{
.appVersion = "3151";
DisplayStrings = (
"OHeGH/Schwa",
G,
"/Schwa"
);
classes = (
{
automatic = 1;
code = "A Aacute Abreve Acircumflex Adieresis Agrave Amacron Aogonek Aring Atilde AE B C Cacute Ccaron Ccedilla D Eth Dcaron Dcroat E Eacute Ecaron Ecircumflex Edieresis Edotaccent Egrave Emacron Eogonek F G Gbreve Gcommaaccent H I Iacute Icircumflex Idieresis Idotaccent Igrave Imacron Iogonek J K Kcommaaccent L Lacute Lcaron Lcommaaccent Lslash M N Nacute Ncaron Ncommaaccent Ntilde O Oacute Ocircumflex Odieresis Ograve Ohungarumlaut Omacron Oslash Otilde OE P Thorn Q R Racute Rcaron Rcommaaccent S Sacute Scaron Scedilla Scommaaccent Germandbls T Tcaron Tcedilla Tcommaaccent U Uacute Ucircumflex Udieresis Ugrave Uhungarumlaut Umacron Uogonek Uring V W X Y Yacute Ydieresis Z Zacute Zcaron Zdotaccent T_b.liga T_h.liga T_k.liga T_l.liga";
name = Uppercase;
}
);
copyright = Collletttivo;
customParameters = (
{
name = Axes;
value = "Weight, Width";
},
{
name = Axes;
value = (
{
Name = Weight;
Tag = wght;
},
{
Name = Width;
Tag = wdth;
}
);
},
{
name = Axes;
value = (
{
Name = Weight;
Tag = wght;
},
{
Name = Width;
Tag = wdth;
}
);
},
{
name = Axes;
value = (
{
Name = Weight;
Tag = wght;
},
{
Name = Width;
Tag = wdth;
}
);
},
{
name = Axes;
value = (
{
Name = Weight;
Tag = wght;
},
{
Name = Width;
Tag = wdth;
}
);
},
{
name = Axes;
value = (
{
Name = Weight;
Tag = wght;
},
{
Name = Width;
Tag = wdth;
}
);
},
{
name = Axes;
value = (
{
Name = Weight;
Tag = wght;
},
{
Name = Width;
Tag = wdth;
}
);
},
{
name = Axes;
value = (
{
Name = Weight;
Tag = wght;
},
{
Name = Width;
Tag = wdth;
}
);
},
{
name = Axes;
value = (
{
Name = Weight;
Tag = wght;
},
{
Name = Width;
Tag = wdth;
}
);
},
{
name = Axes;
value = (
{
Name = Weight;
Tag = wght;
},
{
Name = Width;
Tag = wdth;
}
);
},
{
name = Axes;
value = (
{
Name = Weight;
Tag = wght;
},
{
Name = Width;
Tag = wdth;
}
);
},
{
name = Axes;
value = (
{
Name = Weight;
Tag = wght;
},
{
Name = Width;
Tag = wdth;
}
);
},
{
name = Axes;

glyphs = (
{
glyphname = A;
lastChange = "2022-09-25 10:48:31 +0000";
layers = (
{
anchors = (
{
name = bottom;
position = "{414, 0}";
},
{
name = ogonek;
position = "{726, 10}";
},
{
name = top;
position = "{398, 600}";
}
);
layerId = "0CCC0E2D-406A-4672-8E6C-854B1DF78A27";
paths = (
{
closed = 1;
nodes = (
"650 223 LINE",
"177 223 LINE",
"177 193 LINE",
"650 193 LINE"
);
},
{
closed = 1;
nodes = (
"720 50 LINE",
"530 8 LINE",
"532 0 LINE",
"878 0 LINE",
"880 8 LINE",
"760 50 LINE",
"423 600 LINE",
"206 600 LINE",
"204 592 LINE",
"370 552 LINE",
"70 49 LINE",
"-50 7 LINE",
"-48 -1 LINE",
"290 -1 LINE",
"292 7 LINE",
"107 49 LINE",
"417 572 LINE",
"404 572 LINE"
);
}
);
width = 830;
},
{
anchors = (
{
name = bottom;
position = "{402, 0}";
},
{
name = ogonek;
position = "{714, 10}";
},
{
name = top;
position = "{386, 600}";
}
);
layerId = m002;
paths = (
{
closed = 1;
nodes = (
"638 231 LINE",
"161 231 LINE",
"161 185 LINE",
"638 185 LINE"
);
},
{
closed = 1;
nodes = (
"671 50 LINE",
"481 8 LINE",
"483 0 LINE",
"912 0 LINE",
"914 8 LINE",
"794 50 LINE",
"452 600 LINE",
"174 600 LINE",
"172 592 LINE",
"338 552 LINE",
"38 49 LINE",
"-82 8 LINE",
"-80 0 LINE",
"286 0 LINE",
"288 8 LINE",
"103 49 LINE",
"410 572 LINE",
"363 572 LINE"
);
}
);
width = 848;
},
{
anchors = (
{
name = bottom;
position = "{247, 0}";
},
{
name = ogonek;
position = "{408, 10}";
},
{
name = top;
position = "{228, 600}";
}
);
layerId = m003;
paths = (
{
closed = 1;
nodes = (
"385 227 LINE",
"116 227 LINE",
"116 190 LINE",
"385 190 LINE"
);
},
{
closed = 1;
nodes = (
"384 45 LINE",
"264 8 LINE",
"266 0 LINE",
"538 0 LINE",
"540 8 LINE",
"470 45 LINE",
"283 600 LINE",
"103 600 LINE",
"101 592 LINE",
"210 555 LINE",
"37 44 LINE",
"-33 8 LINE",
"-31 0 LINE",
"206 0 LINE",
"208 8 LINE",
"88 44 LINE",
"260 572 LINE",
"225 572 LINE"
);
}
);
width = 540;
},
{
anchors = (
{
name = bottom;
position = "{246, 0}";
},
{
name = ogonek;
position = "{407, 10}";
},
{
name = top;
position = "{242, 600}";
}
);
layerId = "2C26E880-80A5-4D19-8A94-7D905A372841";
paths = (
{
closed = 1;
nodes = (
"372 224 LINE",
"119 224 LINE",
"119 194 LINE",
"372 194 LINE"
);
},
{
closed = 1;
nodes = (
"407 45 LINE",
"287 8 LINE",
"289 0 LINE",
"510 0 LINE",
"512 8 LINE",
"442 45 LINE",
"260 600 LINE",
"116 600 LINE",
"114 592 LINE",
"223 555 LINE",
"50 45 LINE",
"-20 8 LINE",
"-18 0 LINE",
"204 0 LINE",
"206 8 LINE",
"86 45 LINE",
"259 572 LINE",
"237 572 LINE"
);
}
);
width = 492;
}
);
leftKerningGroup = A;
rightKerningGroup = A;
unicode = 0041;
},
{
glyphname = AE;
lastChange = "2022-09-20 19:14:36 +0000";
layers = (
{
anchors = (
{
name = top;
position = "{742, 600}";
}
);
layerId = "0CCC0E2D-406A-4672-8E6C-854B1DF78A27";
paths = (
{
closed = 1;
nodes = (
"627 572 LINE",
"595 585 LINE",
"595 50 LINE",
"405 8 LINE",
"407 0 LINE",
"1174 0 LINE",
"1153 199 LINE",
"1145 197 LINE",
"1104 24 LINE",
"632 25 LINE",
"632 282 LINE",
"922 279 LINE",
"987 157 LINE",
"995 159 LINE",
"976 293 LINE",
"993 428 LINE",
"985 430 LINE",
"922 308 LINE",
"632 305 LINE",
"632 577 LINE",
"1100 581 LINE",
"1124 422 LINE",
"1132 420 LINE",
"1171 612 LINE",
"415 600 LINE",
"413 592 LINE",
"611 544 LINE",
"599 587 LINE",
"70 49 LINE",
"-50 7 LINE",
"-48 -1 LINE",
"285 -1 LINE",
"287 7 LINE",
"112 49 LINE"
);
},
{
closed = 1;
nodes = (
"230 193 LINE",
"610 193 LINE",
"610 223 LINE",
"267 223 LINE"
);
}
);
width = 1234;
},
{
anchors = (
{
name = top;
position = "{772, 600}";
}
);
layerId = m002;
paths = (
{
closed = 1;
nodes = (
"629 577 LINE",
"597 590 LINE",
"597 55 LINE",
"454 5 LINE",
"456 0 LINE",
"1225 0 LINE",
"1207 232 LINE",
"1201 230 LINE",
"1141 57 LINE",
"693 42 LINE",
"693 270 LINE",
"986 267 LINE",
"1051 145 LINE",
"1059 147 LINE",
"1040 293 LINE",
"1057 440 LINE",
"1049 442 LINE",
"986 320 LINE",
"695 314 LINE",
"695 559 LINE",
"1156 551 LINE",
"1182 392 LINE",
"1188 390 LINE",
"1243 612 LINE",
"374 601 LINE",
"378 595 LINE",
"570 549 LINE",
"587 595 LINE",
"38 56 LINE",
"-82 7 LINE",
"-80 0 LINE",
"272 0 LINE",
"274 7 LINE",
"122 56 LINE"
);
},
{
closed = 1;
nodes = (
"192 172 LINE",
"624 172 LINE",
"624 217 LINE",
"234 217 LINE"
);
}
);
width = 1303;
},
{
anchors = (
{
name = top;
position = "{472, 600}";
}
);
layerId = m003;
paths = (
{
closed = 1;
nodes = (
"397 560 LINE",
"378 564 LINE",
"385 45 LINE",
"268 8 LINE",
"270 0 LINE",
"728 0 LINE",
"707 219 LINE",
"699 217 LINE",
"651 43 LINE",
"464 33 LINE",
"460 275 LINE",
"537 273 LINE",
"597 151 LINE",
"605 153 LINE",
"586 293 LINE",
"603 435 LINE",
"595 437 LINE",
"537 315 LINE",
"459 313 LINE",
"456 570 LINE",
"647 564 LINE",
"678 403 LINE",
"686 401 LINE",
"725 612 LINE",
"229 600 LINE",
"227 592 LINE",
"373 549 LINE",
"367 598 LINE",
"37 44 LINE",
"-33 8 LINE",
"-31 0 LINE",
"212 0 LINE",
"214 8 LINE",
"94 44 LINE"
);
},
{
closed = 1;
nodes = (
"154 188 LINE",
"430 188 LINE",
"430 225 LINE",
"176 225 LINE"
);
}
);
width = 776;
},
{
anchors = (
{
name = top;
position = "{422, 600}";
}
);
layerId = "2C26E880-80A5-4D19-8A94-7D905A372841";
paths = (
{
closed = 1;
nodes = (
"396 575 LINE",
"373 575 LINE",
"373 45 LINE",
"243 10 LINE",
"245 0 LINE",
"675 0 LINE",
"654 198 LINE",
"646 196 LINE",
"609 30 LINE",
"408 25 LINE",
"408 279 LINE",
"507 279 LINE",
"567 156 LINE",
"575 158 LINE",
"556 292 LINE",
"573 429 LINE",
"565 433 LINE",
"507 309 LINE",
"408 309 LINE",
"408 579 LINE",
"605 575 LINE",
"625 423 LINE",
"633 421 LINE",
"672 612 LINE",
"247 600 LINE",
"245 592 LINE",
"366 554 LINE",
"355 574 LINE",
"50 44 LINE",
"-20 9 LINE",
"-18 0 LINE",
"206 0 LINE",
"208 9 LINE",
"88 44 LINE"
);
},
{
closed = 1;
nodes = (
"159 202 LINE",
"395 202 LINE",
"395 232 LINE",
"178 232 LINE"
);
}
);
width = 735;
}
);
leftKerningGroup = A;
leftMetricsKey = A;
rightKerningGroup = E;
rightMetricsKey = E;
unicode = 00C6;
},
{
glyphname = B;
lastChange = "2022-09-20 19:14:36 +0000";
layers = (
{
anchors = (
{
name = bottom;
position = "{484, 0}";
},
{
name = center;
position = "{484, 300}";
},
{
name = top;
position = "{445, 600}";
}
);
guideLines = (
{
angle = 270;
position = "{572, 293}";
}
);
layerId = "0CCC0E2D-406A-4672-8E6C-854B1DF78A27";
paths = (
{
closed = 1;
nodes = (
"32 0 LINE",
"513 1 LINE SMOOTH",
"770 2 OFFCURVE",
"881 56 OFFCURVE",
"881 165 CURVE SMOOTH",
"881 262 OFFCURVE",
"786 307 OFFCURVE",
"609 312 CURVE",
"613 303 LINE",
"774 316 OFFCURVE",
"846 369 OFFCURVE",
"846 454 CURVE SMOOTH",
"846 551 OFFCURVE",
"745 600 OFFCURVE",
"513 600 CURVE SMOOTH",
"32 600 LINE",
"30 597 LINE",
"180 550 LINE",
"180 50 LINE",
"30 3 LINE"
);
},
{
closed = 1;
nodes = (
"217 291 LINE",
"503 291 LINE SMOOTH",
"738 291 OFFCURVE",
"844 248 OFFCURVE",
"844 160 CURVE SMOOTH",
"844 73 OFFCURVE",
"740 28 OFFCURVE",
"533 33 CURVE SMOOTH",
"217 40 LINE"
);
},
{
closed = 1;
nodes = (
"217 572 LINE",
"503 576 LINE SMOOTH",
"711 579 OFFCURVE",
"809 536 OFFCURVE",
"809 450 CURVE SMOOTH",
"809 365 OFFCURVE",
"714 321 OFFCURVE",
"513 321 CURVE SMOOTH",
"217 321 LINE"
);
}
);
width = 941;
},
{
associatedMasterId = "0CCC0E2D-406A-4672-8E6C-854B1DF78A27";
guideLines = (
{
angle = 270;
position = "{606, 293}";
}
);
layerId = "50E6EA7B-AFCA-42BE-AA86-BD03D217D714";
name = "Mar 27 18, 20:39";
paths = (
{
closed = 1;
nodes = (
"42 0 LINE",
"265 0 LINE",
"265 50 LINE",
"266 550 LINE",
"265 600 LINE",
"42 600 LINE",
"40 597 LINE",
"190 550 LINE",
"190 50 LINE",
"40 3 LINE"
);
},
{
closed = 1;
nodes = (
"527 288 LINE SMOOTH",
"761 288 OFFCURVE",
"876 265 OFFCURVE",
"876 154 CURVE SMOOTH",
"876 69 OFFCURVE",
"768 41 OFFCURVE",
"547 41 CURVE",
"226 40 LINE",
"226 0 LINE",
"557 1 LINE SMOOTH",
"825 2 OFFCURVE",
"956 57 OFFCURVE",
"956 167 CURVE SMOOTH",
"956 272 OFFCURVE",
"825 323 OFFCURVE",
"557 323 CURVE SMOOTH",
"211 323 LINE",
"211 288 LINE"
);
},
{
closed = 1;
nodes = (
"527 570 LINE",
"738 569 OFFCURVE",
"841 536 OFFCURVE",
"841 441 CURVE SMOOTH",
"841 361 OFFCURVE",
"741 322 OFFCURVE",
"536 322 CURVE",
"560 309 LINE",
"787 300 OFFCURVE",
"921 355 OFFCURVE",
"921 456 CURVE SMOOTH",
"921 547 OFFCURVE",
"786 600 OFFCURVE",
"557 600 CURVE SMOOTH",
"211 600 LINE",
"211 560 LINE"
);
}
);
width = 1006;
},
{
associatedMasterId = "0CCC0E2D-406A-4672-8E6C-854B1DF78A27";
guideLines = (
{
angle = 270;
position = "{606, 293}";
}
);
layerId = "39A7403D-D5F7-476E-B4DD-AC7E852F258F";
name = "Mar 27 18, 20:39";
paths = (
{
closed = 1;
nodes = (
"42 0 LINE",
"265 0 LINE",
"265 50 LINE",
"266 550 LINE",
"265 600 LINE",
"42 600 LINE",
"40 597 LINE",
"190 550 LINE",
"190 50 LINE",
"40 3 LINE"
);
},
{
closed = 1;
nodes = (
"527 288 LINE SMOOTH",
"761 288 OFFCURVE",
"876 265 OFFCURVE",
"876 154 CURVE SMOOTH",
"876 69 OFFCURVE",
"768 41 OFFCURVE",
"547 41 CURVE",
"226 40 LINE",
"226 0 LINE",
"557 1 LINE SMOOTH",
"825 2 OFFCURVE",
"956 57 OFFCURVE",
"956 167 CURVE SMOOTH",
"956 272 OFFCURVE",
"825 323 OFFCURVE",
"557 323 CURVE SMOOTH",
"211 323 LINE",
"211 288 LINE"
);
},
{
closed = 1;
nodes = (
"527 570 LINE",
"738 569 OFFCURVE",
"841 536 OFFCURVE",
"841 441 CURVE SMOOTH",
"841 361 OFFCURVE",
"741 322 OFFCURVE",
"536 322 CURVE",
"560 309 LINE",
"787 300 OFFCURVE",
"921 355 OFFCURVE",
"921 456 CURVE SMOOTH",
"921 547 OFFCURVE",
"786 600 OFFCURVE",
"557 600 CURVE SMOOTH",
"211 600 LINE",
"211 560 LINE"
);
}
);
width = 1006;
},
{
anchors = (
{
name = bottom;
position = "{413, 0}";
},
{
name = center;
position = "{413, 300}";
},
{
name = top;
position = "{374, 600}";
}
);
guideLines = (
{
angle = 270;
position = "{526, 293}";
}
);
layerId = m002;
paths = (
{
closed = 1;
nodes = (
"16 0 LINE",
"426 1 LINE SMOOTH",
"724 2 OFFCURVE",
"873 49 OFFCURVE",
"873 173 CURVE SMOOTH",
"873 256 OFFCURVE",
"771 323 OFFCURVE",
"553 328 CURVE",
"557 311 LINE",
"703 322 OFFCURVE",
"838 388 OFFCURVE",
"838 462 CURVE SMOOTH",
"838 559 OFFCURVE",
"717 600 OFFCURVE",
"457 600 CURVE SMOOTH",
"16 600 LINE",
"14 589 LINE",
"164 550 LINE",
"164 50 LINE",
"14 11 LINE"
);
},
{
closed = 1;
nodes = (
"260 283 LINE",
"416 283 LINE SMOOTH",
"696 283 OFFCURVE",
"762 259 OFFCURVE",
"762 152 CURVE SMOOTH",
"762 102 OFFCURVE",
"690 33 OFFCURVE",
"477 44 CURVE SMOOTH",
"260 56 LINE"
);
},
{
closed = 1;
nodes = (
"262 556 LINE",
"416 560 LINE SMOOTH",
"659 566 OFFCURVE",
"727 535 OFFCURVE",
"727 442 CURVE SMOOTH",
"727 389 OFFCURVE",
"642 329 OFFCURVE",
"457 329 CURVE SMOOTH",
"262 329 LINE"
);
}
);
width = 917;
},
{
associatedMasterId = m002;
guideLines = (
{
angle = 270;
position = "{606, 293}";
}
);
layerId = "43B2A580-BF78-4B03-8168-D5052E8B1B5D";
name = "Mar 27 18, 20:39";
paths = (
{
closed = 1;
nodes = (
"42 0 LINE",
"265 0 LINE",
"265 50 LINE",
"266 550 LINE",
"265 600 LINE",
"42 600 LINE",
"40 597 LINE",
"190 550 LINE",
"190 50 LINE",
"40 3 LINE"
);
},
{
closed = 1;
nodes = (
"527 288 LINE SMOOTH",
"761 288 OFFCURVE",
"876 265 OFFCURVE",
"876 154 CURVE SMOOTH",
"876 69 OFFCURVE",
"768 41 OFFCURVE",
"547 41 CURVE",
"226 40 LINE",
"226 0 LINE",
"557 1 LINE SMOOTH",
"825 2 OFFCURVE",
"956 57 OFFCURVE",
"956 167 CURVE SMOOTH",
"956 272 OFFCURVE",
"825 323 OFFCURVE",
"557 323 CURVE SMOOTH",
"211 323 LINE",
"211 288 LINE"
);
},
{
closed = 1;
nodes = (
"527 570 LINE",
"738 569 OFFCURVE",
"841 536 OFFCURVE",
"841 441 CURVE SMOOTH",
"841 361 OFFCURVE",
"741 322 OFFCURVE",
"536 322 CURVE",
"560 309 LINE",
"787 300 OFFCURVE",
"921 355 OFFCURVE",
"921 456 CURVE SMOOTH",
"921 547 OFFCURVE",
"786 600 OFFCURVE",
"557 600 CURVE SMOOTH",
"211 600 LINE",
"211 560 LINE"
);
}
);
width = 1006;
},
{
associatedMasterId = m002;
guideLines = (
{
angle = 270;
position = "{606, 293}";
}
);
layerId = "D68D85A3-5241-4F0D-B719-64BDAE41CD07";
name = "Mar 27 18, 20:39";
paths = (
{
closed = 1;
nodes = (
"42 0 LINE",
"265 0 LINE",
"265 50 LINE",
"266 550 LINE",
"265 600 LINE",
"42 600 LINE",
"40 597 LINE",
"190 550 LINE",
"190 50 LINE",
"40 3 LINE"
);
},
{
closed = 1;
nodes = (
"527 288 LINE SMOOTH",
"761 288 OFFCURVE",
"876 265 OFFCURVE",
"876 154 CURVE SMOOTH",
"876 69 OFFCURVE",
"768 41 OFFCURVE",
"547 41 CURVE",
"226 40 LINE",
"226 0 LINE",
"557 1 LINE SMOOTH",
"825 2 OFFCURVE",
"956 57 OFFCURVE",
"956 167 CURVE SMOOTH",
"956 272 OFFCURVE",
"825 323 OFFCURVE",
"557 323 CURVE SMOOTH",
"211 323 LINE",
"211 288 LINE"
);
},
{
closed = 1;
nodes = (
"527 570 LINE",
"738 569 OFFCURVE",
"841 536 OFFCURVE",
"841 441 CURVE SMOOTH",
"841 361 OFFCURVE",
"741 322 OFFCURVE",
"536 322 CURVE",
"560 309 LINE",
"787 300 OFFCURVE",
"921 355 OFFCURVE",
"921 456 CURVE SMOOTH",
"921 547 OFFCURVE",
"786 600 OFFCURVE",
"557 600 CURVE SMOOTH",
"211 600 LINE",
"211 560 LINE"
);
}
);
width = 1006;
},
{
anchors = (
{
name = bottom;
position = "{303, 0}";
},
{
name = center;
position = "{303, 300}";
},
{
name = top;
position = "{264, 600}";
}
);
guideLines = (
{
angle = 270;
position = "{401, 293}";
}
);
layerId = m003;
paths = (
{
closed = 1;
nodes = (
"10 0 LINE",
"251 1 LINE SMOOTH",
"396 2 OFFCURVE",
"482 67 OFFCURVE",
"482 181 CURVE SMOOTH",
"482 260 OFFCURVE",
"415 330 OFFCURVE",
"312 334 CURVE",
"319 319 LINE",
"391 330 OFFCURVE",
"437 391 OFFCURVE",
"437 465 CURVE SMOOTH",
"437 548 OFFCURVE",
"374 600 OFFCURVE",
"266 600 CURVE SMOOTH",
"10 600 LINE",
"8 591 LINE",
"118 555 LINE",
"118 46 LINE",
"8 9 LINE"
);
},
{
closed = 1;
nodes = (
"197 297 LINE",
"232 297 LINE SMOOTH",
"329 297 OFFCURVE",
"397 238 OFFCURVE",
"397 164 CURVE SMOOTH",
"397 78 OFFCURVE",
"347 35 OFFCURVE",
"266 41 CURVE SMOOTH",
"197 46 LINE"
);
},
{
closed = 1;
nodes = (
"198 567 LINE",
"232 570 LINE SMOOTH",
"303 576 OFFCURVE",
"352 526 OFFCURVE",
"352 449 CURVE SMOOTH",
"352 383 OFFCURVE",
"315 334 OFFCURVE",
"266 334 CURVE SMOOTH",
"198 334 LINE"
);
}
);
width = 525;
},
{
associatedMasterId = m003;
guideLines = (
{
angle = 270;
position = "{606, 293}";
}
);
layerId = "6C02418F-0930-42E1-A8C1-B67EB353634A";
name = "Mar 27 18, 20:39";
paths = (
{
closed = 1;
nodes = (
"42 0 LINE",
"265 0 LINE",
"265 50 LINE",
"266 550 LINE",
"265 600 LINE",
"42 600 LINE",
"40 597 LINE",
"190 550 LINE",
"190 50 LINE",
"40 3 LINE"
);
},
{
closed = 1;
nodes = (
"527 288 LINE SMOOTH",
"761 288 OFFCURVE",
"876 265 OFFCURVE",
"876 154 CURVE SMOOTH",
"876 69 OFFCURVE",
"768 41 OFFCURVE",
"547 41 CURVE",
"226 40 LINE",
"226 0 LINE",
"557 1 LINE SMOOTH",
"825 2 OFFCURVE",
"956 57 OFFCURVE",
"956 167 CURVE SMOOTH",
"956 272 OFFCURVE",
"825 323 OFFCURVE",
"557 323 CURVE SMOOTH",
"211 323 LINE",
"211 288 LINE"
);
},
{
closed = 1;
nodes = (
"527 570 LINE",
"738 569 OFFCURVE",
"841 536 OFFCURVE",
"841 441 CURVE SMOOTH",
"841 361 OFFCURVE",
"741 322 OFFCURVE",
"536 322 CURVE",
"560 309 LINE",
"787 300 OFFCURVE",
"921 355 OFFCURVE",
"921 456 CURVE SMOOTH",
"921 547 OFFCURVE",
"786 600 OFFCURVE",
"557 600 CURVE SMOOTH",
"211 600 LINE",
"211 560 LINE"
);
}
);
width = 1006;
},
{
associatedMasterId = m003;
guideLines = (
{
angle = 270;
position = "{606, 293}";
}
);
layerId = "1F67A0A9-1E17-4830-886F-1B348A9F3DC0";
name = "Mar 27 18, 20:39";
paths = (
{
closed = 1;
nodes = (
"42 0 LINE",
"265 0 LINE",
"265 50 LINE",
"266 550 LINE",
"265 600 LINE",
"42 600 LINE",
"40 597 LINE",
"190 550 LINE",
"190 50 LINE",
"40 3 LINE"
);
},
{
closed = 1;
nodes = (
"527 288 LINE SMOOTH",
"761 288 OFFCURVE",
"876 265 OFFCURVE",
"876 154 CURVE SMOOTH",
"876 69 OFFCURVE",
"768 41 OFFCURVE",
"547 41 CURVE",
"226 40 LINE",
"226 0 LINE",
"557 1 LINE SMOOTH",
"825 2 OFFCURVE",
"956 57 OFFCURVE",
"956 167 CURVE SMOOTH",
"956 272 OFFCURVE",
"825 323 OFFCURVE",
"557 323 CURVE SMOOTH",
"211 323 LINE",
"211 288 LINE"
);
},
{
closed = 1;
nodes = (
"527 570 LINE",
"738 569 OFFCURVE",
"841 536 OFFCURVE",
"841 441 CURVE SMOOTH",
"841 361 OFFCURVE",
"741 322 OFFCURVE",
"536 322 CURVE",
"560 309 LINE",
"787 300 OFFCURVE",
"921 355 OFFCURVE",
"921 456 CURVE SMOOTH",
"921 547 OFFCURVE",
"786 600 OFFCURVE",
"557 600 CURVE SMOOTH",
"211 600 LINE",
"211 560 LINE"
);
}
);
width = 1006;
},
{
anchors = (
{
name = bottom;
position = "{357, 0}";
},
{
name = center;
position = "{357, 300}";
},
{
name = top;
position = "{318, 600}";
}
);
layerId = "2C26E880-80A5-4D19-8A94-7D905A372841";
paths = (
{
closed = 1;
nodes = (
"22 0 LINE",
"306 1 LINE SMOOTH",
"403 1 OFFCURVE",
"480 78 OFFCURVE",
"480 175 CURVE SMOOTH",
"480 257 OFFCURVE",
"423 319 OFFCURVE",
"343 323 CURVE",
"337 313 LINE",
"392 320 OFFCURVE",
"434 383 OFFCURVE",
"434 459 CURVE SMOOTH",
"434 543 OFFCURVE",
"379 600 OFFCURVE",
"297 600 CURVE SMOOTH",
"22 600 LINE",
"20 597 LINE",
"130 555 LINE",
"130 46 LINE",
"20 3 LINE"
);
},
{
closed = 1;
nodes = (
"165 301 LINE",
"286 301 LINE SMOOTH",
"379 301 OFFCURVE",
"445 248 OFFCURVE",
"445 170 CURVE SMOOTH",
"445 91 OFFCURVE",
"380 30 OFFCURVE",
"297 32 CURVE SMOOTH",
"165 35 LINE"
);
},
{
closed = 1;
nodes = (
"165 569 LINE",
"286 573 LINE SMOOTH",
"351 575 OFFCURVE",
"400 531 OFFCURVE",
"400 455 CURVE SMOOTH",
"400 383 OFFCURVE",
"356 331 OFFCURVE",
"297 331 CURVE SMOOTH",
"165 331 LINE"
);
}
);
width = 510;
}
);
leftKerningGroup = H;
leftMetricsKey = H;
rightKerningGroup = B;
unicode = 0042;
},
{
glyphname = C;
lastChange = "2022-09-24 14:25:50 +0000";
layers = (
{
anchors = (
{
name = bottom;
position = "{488, 0}";
},
{
name = top;
position = "{455, 600}";
}
);
layerId = "0CCC0E2D-406A-4672-8E6C-854B1DF78A27";
paths = (
{
closed = 1;
nodes = (
"551 593 OFFCURVE",
"671 573 OFFCURVE",
"719 555 CURVE",
"736 378 LINE",
"744 376 LINE",
"805 572 LINE",
"733 597 OFFCURVE",
"595 625 OFFCURVE",
"453 625 CURVE SMOOTH",
"192 625 OFFCURVE",
"40 502 OFFCURVE",
"40 304 CURVE SMOOTH",
"40 106 OFFCURVE",
"205 -20 OFFCURVE",
"465 -20 CURVE SMOOTH",
"600 -20 OFFCURVE",
"708 12 OFFCURVE",
"785 77 CURVE",
"772 97 LINE",
"703 44 OFFCURVE",
"595 12 OFFCURVE",
"479 12 CURVE SMOOTH",
"240 12 OFFCURVE",
"78 134 OFFCURVE",
"78 310 CURVE SMOOTH",
"78 483 OFFCURVE",
"226 593 OFFCURVE",
"450 593 CURVE SMOOTH"
);
}
);
width = 845;
},
{
associatedMasterId = "0CCC0E2D-406A-4672-8E6C-854B1DF78A27";
layerId = "D1E02D2E-03A9-408A-95E8-8AA71CA27DF5";
name = "Mar 27 18, 21:18";
paths = (
{
closed = 1;
nodes = (
"735 500 LINE",
"793 331 LINE",
"797 329 LINE",
"819 533 LINE"
);
},
{
closed = 1;
nodes = (
"792 257 LINE",
"786 255 LINE",
"756 102 LINE",
"819 92 LINE"
);
},
{
closed = 1;
nodes = (
"819 533 LINE",
"744 587 OFFCURVE",
"625 625 OFFCURVE",
"504 625 CURVE SMOOTH",
"232 625 OFFCURVE",
"40 490 OFFCURVE",
"40 299 CURVE SMOOTH",
"40 112 OFFCURVE",
"214 -20 OFFCURVE",
"475 -20 CURVE SMOOTH",
"626 -20 OFFCURVE",
"741 16 OFFCURVE",
"819 92 CURVE",
"756 102 LINE",
"699 48 OFFCURVE",
"623 25 OFFCURVE",
"519 25 CURVE SMOOTH",
"279 25 OFFCURVE",
"120 149 OFFCURVE",
"120 325 CURVE SMOOTH",
"120 474 OFFCURVE",
"261 580 OFFCURVE",
"461 580 CURVE SMOOTH",
"567 580 OFFCURVE",
"668 546 OFFCURVE",
"735 500 CURVE"
);
}
);
width = 869;
},
{
associatedMasterId = "0CCC0E2D-406A-4672-8E6C-854B1DF78A27";
layerId = "2916A66B-B6EE-41CB-B69B-6CA9D5BF9094";
name = "Mar 27 18, 21:18";
paths = (
{
closed = 1;
nodes = (
"735 500 LINE",
"793 331 LINE",
"797 329 LINE",
"819 533 LINE"
);
},
{
closed = 1;
nodes = (
"792 257 LINE",
"786 255 LINE",
"756 102 LINE",
"819 92 LINE"
);
},
{
closed = 1;
nodes = (
"819 533 LINE",
"744 587 OFFCURVE",
"625 625 OFFCURVE",
"504 625 CURVE SMOOTH",
"232 625 OFFCURVE",
"40 490 OFFCURVE",
"40 299 CURVE SMOOTH",
"40 112 OFFCURVE",
"214 -20 OFFCURVE",
"475 -20 CURVE SMOOTH",
"626 -20 OFFCURVE",
"741 16 OFFCURVE",
"819 92 CURVE",
"756 102 LINE",
"699 48 OFFCURVE",
"623 25 OFFCURVE",
"519 25 CURVE SMOOTH",
"279 25 OFFCURVE",
"120 149 OFFCURVE",
"120 325 CURVE SMOOTH",
"120 474 OFFCURVE",
"261 580 OFFCURVE",
"461 580 CURVE SMOOTH",
"567 580 OFFCURVE",
"668 546 OFFCURVE",
"735 500 CURVE"
);
}
);
width = 869;
},
{
anchors = (
{
name = bottom;
position = "{518, 0}";
},
{
name = top;
position = "{485, 600}";
}
);
layerId = m002;
paths = (
{
closed = 1;
nodes = (
"564 573 OFFCURVE",
"678 552 OFFCURVE",
"765 519 CURVE",
"782 358 LINE",
"790 356 LINE",
"851 576 LINE",
"757 606 OFFCURVE",
"625 625 OFFCURVE",
"516 625 CURVE SMOOTH",
"230 625 OFFCURVE",
"24 487 OFFCURVE",
"24 296 CURVE SMOOTH",
"24 113 OFFCURVE",
"217 -20 OFFCURVE",
"481 -20 CURVE SMOOTH",
"622 -20 OFFCURVE",
"739 19 OFFCURVE",
"831 98 CURVE",
"818 112 LINE",
"758 62 OFFCURVE",
"663 32 OFFCURVE",
"541 32 CURVE SMOOTH",
"290 32 OFFCURVE",
"127 144 OFFCURVE",
"127 318 CURVE SMOOTH",
"127 476 OFFCURVE",
"257 573 OFFCURVE",
"467 573 CURVE SMOOTH"
);
}
);
width = 891;
},
{
associatedMasterId = m002;
layerId = "D37FF26B-FFFA-4513-93F2-92C6E84B81F6";
name = "Mar 27 18, 21:18";
paths = (
{
closed = 1;
nodes = (
"735 500 LINE",
"793 331 LINE",
"797 329 LINE",
"819 533 LINE"
);
},
{
closed = 1;
nodes = (
"792 257 LINE",
"786 255 LINE",
"756 102 LINE",
"819 92 LINE"
);
},
{
closed = 1;
nodes = (
"819 533 LINE",
"744 587 OFFCURVE",
"625 625 OFFCURVE",
"504 625 CURVE SMOOTH",
"232 625 OFFCURVE",
"40 490 OFFCURVE",
"40 299 CURVE SMOOTH",
"40 112 OFFCURVE",
"214 -20 OFFCURVE",
"475 -20 CURVE SMOOTH",
"626 -20 OFFCURVE",
"741 16 OFFCURVE",
"819 92 CURVE",
"756 102 LINE",
"699 48 OFFCURVE",
"623 25 OFFCURVE",
"519 25 CURVE SMOOTH",
"279 25 OFFCURVE",
"120 149 OFFCURVE",
"120 325 CURVE SMOOTH",
"120 474 OFFCURVE",
"261 580 OFFCURVE",
"461 580 CURVE SMOOTH",
"567 580 OFFCURVE",
"668 546 OFFCURVE",
"735 500 CURVE"
);
}
);
width = 869;
},
{
associatedMasterId = m002;
layerId = "C48C7457-2E38-4B7F-9FBF-26AEF6081B3D";
name = "Mar 27 18, 21:18";
paths = (
{
closed = 1;
nodes = (
"735 500 LINE",
"793 331 LINE",
"797 329 LINE",
"819 533 LINE"
);
},
{
closed = 1;
nodes = (
"792 257 LINE",
"786 255 LINE",
"756 102 LINE",
"819 92 LINE"
);
},
{
closed = 1;
nodes = (
"819 533 LINE",
"744 587 OFFCURVE",
"625 625 OFFCURVE",
"504 625 CURVE SMOOTH",
"232 625 OFFCURVE",
"40 490 OFFCURVE",
"40 299 CURVE SMOOTH",
"40 112 OFFCURVE",
"214 -20 OFFCURVE",
"475 -20 CURVE SMOOTH",
"626 -20 OFFCURVE",
"741 16 OFFCURVE",
"819 92 CURVE",
"756 102 LINE",
"699 48 OFFCURVE",
"623 25 OFFCURVE",
"519 25 CURVE SMOOTH",
"279 25 OFFCURVE",
"120 149 OFFCURVE",
"120 325 CURVE SMOOTH",
"120 474 OFFCURVE",
"261 580 OFFCURVE",
"461 580 CURVE SMOOTH",
"567 580 OFFCURVE",
"668 546 OFFCURVE",
"735 500 CURVE"
);
}
);
width = 869;
},
{
anchors = (
{
name = bottom;
position = "{273, 0}";
},
{
name = top;
position = "{242, 600}";
}
);
layerId = m003;
paths = (
{
closed = 1;
nodes = (
"316 577 OFFCURVE",
"348 567 OFFCURVE",
"371 556 CURVE",
"388 389 LINE",
"396 387 LINE",
"447 592 LINE",
"384 612 OFFCURVE",
"339 621 OFFCURVE",
"286 621 CURVE SMOOTH",
"114 621 OFFCURVE",
"26 492 OFFCURVE",
"26 288 CURVE SMOOTH",
"26 109 OFFCURVE",
"108 -20 OFFCURVE",
"250 -20 CURVE SMOOTH",
"328 -20 OFFCURVE",
"386 11 OFFCURVE",
"455 94 CURVE",
"443 109 LINE",
"387 56 OFFCURVE",
"346 37 OFFCURVE",
"291 37 CURVE SMOOTH",
"178 37 OFFCURVE",
"110 151 OFFCURVE",
"110 306 CURVE SMOOTH",
"110 474 OFFCURVE",
"169 576 OFFCURVE",
"269 576 CURVE SMOOTH"
);
}
);
width = 493;
},
{
associatedMasterId = m003;
layerId = "FC68B829-F3AC-46F8-9E26-730E0D21566D";
name = "Mar 27 18, 21:18";
paths = (
{
closed = 1;
nodes = (
"735 500 LINE",
"793 331 LINE",
"797 329 LINE",
"819 533 LINE"
);
},
{
closed = 1;
nodes = (
"792 257 LINE",
"786 255 LINE",
"756 102 LINE",
"819 92 LINE"
);
},
{
closed = 1;
nodes = (
"819 533 LINE",
"744 587 OFFCURVE",
"625 625 OFFCURVE",
"504 625 CURVE SMOOTH",
"232 625 OFFCURVE",
"40 490 OFFCURVE",
"40 299 CURVE SMOOTH",
"40 112 OFFCURVE",
"214 -20 OFFCURVE",
"475 -20 CURVE SMOOTH",
"626 -20 OFFCURVE",
"741 16 OFFCURVE",
"819 92 CURVE",
"756 102 LINE",
"699 48 OFFCURVE",
"623 25 OFFCURVE",
"519 25 CURVE SMOOTH",
"279 25 OFFCURVE",
"120 149 OFFCURVE",
"120 325 CURVE SMOOTH",
"120 474 OFFCURVE",
"261 580 OFFCURVE",
"461 580 CURVE SMOOTH",
"567 580 OFFCURVE",
"668 546 OFFCURVE",
"735 500 CURVE"
);
}
);
width = 869;
},
{
associatedMasterId = m003;
layerId = "751F7E29-BE51-41A8-9C31-13288B0E299C";
name = "Mar 27 18, 21:18";
paths = (
{
closed = 1;
nodes = (
"735 500 LINE",
"793 331 LINE",
"797 329 LINE",
"819 533 LINE"
);
},
{
closed = 1;
nodes = (
"792 257 LINE",
"786 255 LINE",
"756 102 LINE",
"819 92 LINE"
);
},
{
closed = 1;
nodes = (
"819 533 LINE",
"744 587 OFFCURVE",
"625 625 OFFCURVE",
"504 625 CURVE SMOOTH",
"232 625 OFFCURVE",
"40 490 OFFCURVE",
"40 299 CURVE SMOOTH",
"40 112 OFFCURVE",
"214 -20 OFFCURVE",
"475 -20 CURVE SMOOTH",
"626 -20 OFFCURVE",
"741 16 OFFCURVE",
"819 92 CURVE",
"756 102 LINE",
"699 48 OFFCURVE",
"623 25 OFFCURVE",
"519 25 CURVE SMOOTH",
"279 25 OFFCURVE",
"120 149 OFFCURVE",
"120 325 CURVE SMOOTH",
"120 474 OFFCURVE",
"261 580 OFFCURVE",
"461 580 CURVE SMOOTH",
"567 580 OFFCURVE",
"668 546 OFFCURVE",
"735 500 CURVE"
);
}
);
width = 869;
},
{
anchors = (
{
name = bottom;
position = "{272, 0}";
},
{
name = top;
position = "{230, 600}";
}
);
layerId = "2C26E880-80A5-4D19-8A94-7D905A372841";
paths = (
{
closed = 1;
nodes = (
"283 589 OFFCURVE",
"317 584 OFFCURVE",
"334 577 CURVE",
"351 413 LINE",
"359 411 LINE",
"410 589 LINE",
"375 607 OFFCURVE",
"312 620 OFFCURVE",
"261 620 CURVE SMOOTH",
"118 620 OFFCURVE",
"45 510 OFFCURVE",
"45 294 CURVE SMOOTH",
"45 85 OFFCURVE",
"113 -20 OFFCURVE",
"249 -20 CURVE SMOOTH",
"320 -20 OFFCURVE",
"373 9 OFFCURVE",
"430 78 CURVE",
"414 90 LINE",
"366 35 OFFCURVE",
"314 8 OFFCURVE",
"255 8 CURVE SMOOTH",
"141 8 OFFCURVE",
"84 106 OFFCURVE",
"84 300 CURVE SMOOTH",
"84 495 OFFCURVE",
"139 589 OFFCURVE",
"254 589 CURVE SMOOTH"
);
}
);
width = 480;
}
);
leftKerningGroup = O;
leftMetricsKey = O;
rightKerningGroup = C;
unicode = 0043;
},
{
glyphname = D;
lastChange = "2022-09-20 19:14:36 +0000";
layers = (
{
anchors = (
{
name = bottom;
position = "{491, 0}";
},
{
name = center;
position = "{491, 300}";
},
{
name = top;
position = "{493, 600}";
}
);
layerId = "0CCC0E2D-406A-4672-8E6C-854B1DF78A27";
paths = (
{
closed = 1;
nodes = (
"453 1 LINE SMOOTH",
"772 2 OFFCURVE",
"928 93 OFFCURVE",
"928 300 CURVE SMOOTH",
"928 494 OFFCURVE",
"757 600 OFFCURVE",
"443 600 CURVE SMOOTH",
"32 600 LINE",
"30 591 LINE",
"180 550 LINE",
"180 50 LINE",
"30 8 LINE",
"32 0 LINE"
);
},
{
closed = 1;
nodes = (
"217 572 LINE",
"433 572 LINE SMOOTH",
"718 572 OFFCURVE",
"887 474 OFFCURVE",
"887 287 CURVE SMOOTH",
"887 109 OFFCURVE",
"732 32 OFFCURVE",
"463 36 CURVE SMOOTH",
"217 40 LINE"
);
}
);
width = 973;
},
{
anchors = (
{
name = bottom;
position = "{511, 0}";
},
{
name = center;
position = "{511, 300}";
},
{
name = top;
position = "{513, 600}";
}
);
layerId = m002;
paths = (
{
closed = 1;
nodes = (
"441 1 LINE SMOOTH",
"809 2 OFFCURVE",
"987 102 OFFCURVE",
"987 300 CURVE SMOOTH",
"987 505 OFFCURVE",
"819 600 OFFCURVE",
"463 600 CURVE SMOOTH",
"16 600 LINE",
"14 591 LINE",
"164 550 LINE",
"164 50 LINE",
"14 8 LINE",
"16 0 LINE"
);
},
{
closed = 1;
nodes = (
"262 556 LINE",
"422 561 LINE SMOOTH",
"733 570 OFFCURVE",
"882 474 OFFCURVE",
"882 287 CURVE SMOOTH",
"882 119 OFFCURVE",
"745 28 OFFCURVE",
"483 43 CURVE SMOOTH",
"260 56 LINE"
);
}
);
width = 1016;
},
{
anchors = (
{
name = bottom;
position = "{271, 0}";
},
{
name = center;
position = "{271, 300}";
},
{
name = top;
position = "{273, 600}";
}
);
layerId = m003;
paths = (
{
closed = 1;
nodes = (
"238 1 LINE SMOOTH",
"427 2 OFFCURVE",
"520 101 OFFCURVE",
"520 300 CURVE SMOOTH",
"520 496 OFFCURVE",
"431 600 OFFCURVE",
"263 600 CURVE SMOOTH",
"10 600 LINE",
"8 591 LINE",
"118 555 LINE",
"118 45 LINE",
"8 8 LINE",
"10 0 LINE"
);
},
{
closed = 1;
nodes = (
"197 566 LINE",
"228 568 LINE SMOOTH",
"356 576 OFFCURVE",
"432 479 OFFCURVE",
"432 287 CURVE SMOOTH",
"432 121 OFFCURVE",
"374 42 OFFCURVE",
"253 46 CURVE SMOOTH",
"196 48 LINE"
);
}
);
width = 553;
},
{
anchors = (
{
name = bottom;
position = "{258, 0}";
},
{
name = center;
position = "{258, 300}";
},
{
name = top;
position = "{260, 600}";
}
);
layerId = "2C26E880-80A5-4D19-8A94-7D905A372841";
paths = (
{
closed = 1;
nodes = (
"249 1 LINE SMOOTH",
"395 2 OFFCURVE",
"476 109 OFFCURVE",
"476 300 CURVE SMOOTH",
"476 491 OFFCURVE",
"394 600 OFFCURVE",
"250 600 CURVE SMOOTH",
"22 600 LINE",
"20 591 LINE",
"130 555 LINE",
"130 45 LINE",
"20 8 LINE",
"22 0 LINE"
);
},
{
closed = 1;
nodes = (
"165 571 LINE",
"242 571 LINE SMOOTH",
"366 571 OFFCURVE",
"440 468 OFFCURVE",
"440 287 CURVE SMOOTH",
"440 113 OFFCURVE",
"370 24 OFFCURVE",
"240 31 CURVE SMOOTH",
"165 35 LINE"
);
}
);
width = 521;
}
);
leftKerningGroup = H;
leftMetricsKey = H;
rightKerningGroup = O;
rightMetricsKey = O;
unicode = 0044;
},
{
glyphname = Eth;
lastChange = "2024-10-31 09:57:03 +0000";
layers = (
{
components = (
{
name = D;
transform = "{1, 0, 0, 1, 10, 0}";
}
);
layerId = "0CCC0E2D-406A-4672-8E6C-854B1DF78A27";
paths = (
{
closed = 1;
nodes = (
"30 315 LINE",
"30 285 LINE",
"406 285 LINE",
"406 315 LINE"
);
}
);
width = 983;
},
{
components = (
{
name = D;
}
);
layerId = m002;
paths = (
{
closed = 1;
nodes = (
"14 320 LINE",
"14 280 LINE",
"468 280 LINE",
"468 320 LINE"
);
}
);
width = 1016;
},
{
components = (
{
name = D;
}
);
layerId = m003;
paths = (
{
closed = 1;
nodes = (
"30 315 LINE",
"30 285 LINE",
"348 285 LINE",
"348 315 LINE"
);
}
);
width = 553;
},
{
components = (
{
alignment = -1;
name = D;
}
);
layerId = "2C26E880-80A5-4D19-8A94-7D905A372841";
paths = (
{
closed = 1;
nodes = (
"30 314 LINE",
"30 287 LINE",
"290 287 LINE",
"290 314 LINE"
);
}
);
width = 521;
}
);
leftMetricsKey = D;
rightKerningGroup = O;
rightMetricsKey = D;
unicode = 00D0;
},
{
glyphname = E;
lastChange = "2022-09-20 19:14:52 +0000";
layers = (
{
anchors = (
{
name = bottom;
position = "{474, 0}";
},
{
name = ogonek;
position = "{736, 10}";
},
{
name = top;
position = "{471, 600}";
},
{
name = topleft;
position = "{88, 600}";
}
);
layerId = "0CCC0E2D-406A-4672-8E6C-854B1DF78A27";
paths = (
{
closed = 1;
nodes = (
"32 0 LINE",
"849 0 LINE",
"828 199 LINE",
"820 197 LINE",
"779 34 LINE",
"217 24 LINE",
"217 282 LINE",
"567 279 LINE",
"632 157 LINE",
"640 159 LINE",
"621 293 LINE",
"638 428 LINE",
"630 430 LINE",
"567 309 LINE",
"217 306 LINE",
"217 578 LINE",
"775 575 LINE",
"799 422 LINE",
"807 420 LINE",
"846 612 LINE",
"32 600 LINE",
"30 592 LINE",
"180 550 LINE",
"180 50 LINE",
"30 8 LINE"
);
}
);
width = 909;
},
{
associatedMasterId = "0CCC0E2D-406A-4672-8E6C-854B1DF78A27";
layerId = "A910C0A5-6BB5-4CBA-8C8A-E5C5693DC7F9";
name = "Apr 20 19, 12:14";
paths = (
{
closed = 1;
nodes = (
"22 0 LINE",
"387 0 LINE",
"372 210 LINE",
"368 208 LINE",
"337 30 LINE",
"165 21.042 LINE",
"165 283.834 LINE",
"307 276 LINE",
"307 311 LINE",
"165 304.145 LINE",
"165 579.101 LINE",
"337 570 LINE",
"361 402 LINE",
"365 400 LINE",
"389 610 LINE",
"302 600 LINE",
"22 600 LINE",
"20 594 LINE",
"110 570 LINE",
"110 30 LINE",
"20 6 LINE"
);
}
);
width = 434;
},
{
anchors = (
{
name = bottom;
position = "{491, 0}";
},
{
name = ogonek;
position = "{753, 10}";
},
{
name = top;
position = "{488, 600}";
},
{
name = topleft;
position = "{13, 600}";
}
);
layerId = m002;
paths = (
{
closed = 1;
nodes = (
"16 0 LINE",
"898 0 LINE",
"877 232 LINE",
"869 230 LINE",
"812 51 LINE",
"259 43 LINE",
"259 271 LINE",
"600 263 LINE",
"665 145 LINE",
"673 147 LINE",
"654 293 LINE",
"671 440 LINE",
"663 442 LINE",
"600 323 LINE",
"261 315 LINE",
"261 561 LINE",
"808 554 LINE",
"848 392 LINE",
"856 390 LINE",
"895 612 LINE",
"16 600 LINE",
"14 592 LINE",
"164 550 LINE",
"164 50 LINE",
"14 8 LINE"
);
}
);
width = 958;
},
{
associatedMasterId = m002;
layerId = "DBE2B7AB-580F-47C0-9C67-7A78F778FAF3";
name = "Apr 20 19, 12:14";
paths = (
{
closed = 1;
nodes = (
"22 0 LINE",
"387 0 LINE",
"372 210 LINE",
"368 208 LINE",
"337 30 LINE",
"165 21.042 LINE",
"165 283.834 LINE",
"307 276 LINE",
"307 311 LINE",
"165 304.145 LINE",
"165 579.101 LINE",
"337 570 LINE",
"361 402 LINE",
"365 400 LINE",
"389 610 LINE",
"302 600 LINE",
"22 600 LINE",
"20 594 LINE",
"110 570 LINE",
"110 30 LINE",
"20 6 LINE"
);
}
);
width = 434;
},
{
anchors = (
{
name = bottom;
position = "{304, 0}";
},
{
name = ogonek;
position = "{395, 10}";
},
{
name = top;
position = "{284, 600}";
},
{
name = topleft;
position = "{-26, 600}";
}
);
layerId = m003;
paths = (
{
closed = 1;
nodes = (
"10 0 LINE",
"489 0 LINE",
"468 219 LINE",
"460 217 LINE",
"412 43 LINE",
"197 33 LINE",
"197 275 LINE",
"300 273 LINE",
"360 151 LINE",
"368 153 LINE",
"349 293 LINE",
"366 435 LINE",
"358 437 LINE",
"300 315 LINE",
"197 313 LINE",
"197 570 LINE",
"408 564 LINE",
"439 403 LINE",
"447 401 LINE",
"486 612 LINE",
"10 600 LINE",
"8 592 LINE",
"118 555 LINE",
"118 45 LINE",
"8 8 LINE"
);
}
);
width = 537;
},
{
associatedMasterId = m003;
layerId = "22B5D069-41FA-4BCA-98A1-1FA1BC7EF4B7";
name = "Apr 20 19, 12:14";
paths = (
{
closed = 1;
nodes = (
"22 0 LINE",
"387 0 LINE",
"372 210 LINE",
"368 208 LINE",
"337 30 LINE",
"165 21.042 LINE",
"165 283.834 LINE",
"307 276 LINE",
"307 311 LINE",
"165 304.145 LINE",
"165 579.101 LINE",
"337 570 LINE",
"361 402 LINE",
"365 400 LINE",
"389 610 LINE",
"302 600 LINE",
"22 600 LINE",
"20 594 LINE",
"110 570 LINE",
"110 30 LINE",
"20 6 LINE"
);
}
);
width = 434;
},
{
anchors = (
{
name = bottom;
position = "{291, 0}";
},
{
name = ogonek;
position = "{382, 10}";
},
{
name = top;
position = "{258, 600}";
},
{
name = topleft;
position = "{31, 600}";
}
);
layerId = "2C26E880-80A5-4D19-8A94-7D905A372841";
paths = (
{
closed = 1;
nodes = (
"22 0 LINE",
"452 0 LINE",
"431 198 LINE",
"423 196 LINE",
"386 30 LINE",
"165 25 LINE",
"165 279 LINE",
"274 279 LINE",
"334 156 LINE",
"342 158 LINE",
"323 292 LINE",
"340 429 LINE",
"332 433 LINE",
"274 309 LINE",
"165 309 LINE",
"165 579 LINE",
"382 575 LINE",
"402 423 LINE",
"410 421 LINE",
"449 612 LINE",
"22 600 LINE",
"20 592 LINE",
"130 555 LINE",
"130 45 LINE",
"20 8 LINE"
);
}
);
width = 512;
}
);
leftKerningGroup = H;
leftMetricsKey = H;
rightKerningGroup = E;
unicode = 0045;
},
{
glyphname = Schwa;
lastChange = "2024-10-31 10:37:01 +0000";
layers = (
{
layerId = "2C26E880-80A5-4D19-8A94-7D905A372841";
paths = (
{
closed = 1;
nodes = (
"418 303 LINE",
"45 310 LINE",
"45 90 OFFCURVE",
"107 -19 OFFCURVE",
"231 -19 CURVE SMOOTH",
"363 -19 OFFCURVE",
"443 110 OFFCURVE",
"443 322 CURVE SMOOTH",
"443 514 OFFCURVE",
"380 616 OFFCURVE",
"248 620 CURVE SMOOTH",
"169 623 OFFCURVE",
"108 590 OFFCURVE",
"66 522 CURVE",
"84 509 LINE",
"128 564 OFFCURVE",
"175 589 OFFCURVE",
"233 587 CURVE SMOOTH",
"346 583 OFFCURVE",
"407 475 OFFCURVE",
"407 292 CURVE SMOOTH",
"407 116 OFFCURVE",
"345 11 OFFCURVE",
"241 11 CURVE SMOOTH",
"145 11 OFFCURVE",
"95 101 OFFCURVE",
"95 275 CURVE",
"419 279 LINE"
);
}
);
width = 488;
},
{
layerId = m003;
paths = (
{
closed = 1;
nodes = (
"435 299 LINE",
"26 304 LINE",
"28 89 OFFCURVE",
"106 -19 OFFCURVE",
"249 -19 CURVE SMOOTH",
"402 -19 OFFCURVE",
"497 115 OFFCURVE",
"497 315 CURVE SMOOTH",
"497 513 OFFCURVE",
"404 620 OFFCURVE",
"275 620 CURVE SMOOTH",
"187 620 OFFCURVE",
"103 581 OFFCURVE",
"45 488 CURVE",
"63 477 LINE",
"107 546 OFFCURVE",
"180 572 OFFCURVE",
"237 572 CURVE SMOOTH",
"343 572 OFFCURVE",
"412 448 OFFCURVE",
"412 279 CURVE SMOOTH",
"412 127 OFFCURVE",
"354 29 OFFCURVE",
"262 29 CURVE SMOOTH",
"179 29 OFFCURVE",
"127 104 OFFCURVE",
"125 259 CURVE",
"438 276 LINE"
);
}
);
width = 530;
},
{
layerId = m002;
paths = (
{
closed = 1;
nodes = (
"811 306 LINE",
"24 319 LINE",
"24 116 OFFCURVE",
"187 -19 OFFCURVE",
"423 -19 CURVE SMOOTH",
"688 -19 OFFCURVE",
"890 126 OFFCURVE",
"890 316 CURVE SMOOTH",
"890 491 OFFCURVE",
"713 625 OFFCURVE",
"480 625 CURVE SMOOTH",
"314 625 OFFCURVE",
"156 557 OFFCURVE",
"54 442 CURVE",
"75 421 LINE",
"156 515 OFFCURVE",
"286 573 OFFCURVE",
"416 573 CURVE SMOOTH",
"622 573 OFFCURVE",
"789 444 OFFCURVE",
"787 288 CURVE SMOOTH",
"785 138 OFFCURVE",
"649 33 OFFCURVE",
"474 33 CURVE SMOOTH",
"303 33 OFFCURVE",
"149 141 OFFCURVE",
"141 259 CURVE",
"813 275 LINE"
);
}
);
width = 919;
},
{
layerId = "0CCC0E2D-406A-4672-8E6C-854B1DF78A27";
paths = (
{
closed = 1;
nodes = (
"821 298 LINE",
"40 310 LINE",
"37 131 OFFCURVE",
"190 -12 OFFCURVE",
"435 -12 CURVE SMOOTH",
"675 -12 OFFCURVE",
"842 114 OFFCURVE",
"842 304 CURVE SMOOTH",
"842 493 OFFCURVE",
"679 625 OFFCURVE",
"439 625 CURVE SMOOTH",
"287 625 OFFCURVE",
"144 571 OFFCURVE",
"62 483 CURVE",
"76 468 LINE",
"166 549 OFFCURVE",
"283 593 OFFCURVE",
"407 593 CURVE SMOOTH",
"628 593 OFFCURVE",
"804 459 OFFCURVE",
"804 289 CURVE SMOOTH",
"804 135 OFFCURVE",
"656 20 OFFCURVE",
"454 20 CURVE SMOOTH",
"254 20 OFFCURVE",
"111 152 OFFCURVE",
"110 270 CURVE",
"822 278 LINE"
);
}
);
width = 887;
}
);
leftKerningGroup = O;
leftMetricsKey = O;
rightKerningGroup = O;
rightMetricsKey = O;
unicode = 018F;
},
{
glyphname = F;
lastChange = "2022-09-20 19:14:36 +0000";
layers = (
{
anchors = (
{
name = bottom;
position = "{448, 0}";
},
{
name = top;
position = "{460, 600}";
}
);
layerId = "0CCC0E2D-406A-4672-8E6C-854B1DF78A27";
paths = (
{
closed = 1;
nodes = (
"30 592 LINE",
"180 550 LINE",
"181 50 LINE",
"31 8 LINE",
"33 0 LINE",
"415 0 LINE",
"417 8 LINE",
"218 53 LINE",
"218 268 LINE",
"535 266 LINE",
"600 146 LINE",
"608 149 LINE",
"589 280 LINE",
"606 412 LINE",
"598 415 LINE",
"535 295 LINE",
"218 291 LINE",
"217 577 LINE",
"724 581 LINE",
"748 422 LINE",
"755 420 LINE",
"795 612 LINE",
"32 600 LINE"
);
}
);
width = 805;
},
{
associatedMasterId = "0CCC0E2D-406A-4672-8E6C-854B1DF78A27";
layerId = "8E3AE6BA-28EB-4BD7-9A6A-D82C415CF13D";
name = "Apr 20 19, 12:25";
paths = (
{
closed = 1;
nodes = (
"160 550 LINE",
"161 50 LINE",
"11 6 LINE",
"13 0 LINE",
"433 0 LINE",
"436 6 LINE",
"236 53 LINE",
"235.615 263.668 LINE",
"591 255 LINE",
"591 305 LINE",
"235.555 296.331 LINE",
"235.056 569.418 LINE",
"800 561 LINE",
"825 402 LINE",
"832 400 LINE",
"881 615 LINE",
"582 600 LINE",
"12 600 LINE",
"10 597 LINE"
);
}
);
width = 901;
},
{
associatedMasterId = "0CCC0E2D-406A-4672-8E6C-854B1DF78A27";
layerId = "B26159C7-A002-4A1B-A6BB-21D8CC73AC5D";
name = "Apr 20 19, 12:25";
paths = (
{
closed = 1;
nodes = (
"160 550 LINE",
"161 50 LINE",
"11 6 LINE",
"13 0 LINE",
"433 0 LINE",
"436 6 LINE",
"236 53 LINE",
"235.615 263.668 LINE",
"591 255 LINE",
"591 305 LINE",
"235.555 296.331 LINE",
"235.056 569.418 LINE",
"800 561 LINE",
"825 402 LINE",
"832 400 LINE",
"881 615 LINE",
"582 600 LINE",
"12 600 LINE",
"10 597 LINE"
);
}
);
width = 901;
},
{
associatedMasterId = "0CCC0E2D-406A-4672-8E6C-854B1DF78A27";
layerId = "EA982466-DFC0-4B75-BFAC-EDF952505A81";
name = "Apr 20 19, 12:20";
paths = (
{
closed = 1;
nodes = (
"120 570 LINE",
"120 30 LINE",
"30 6 LINE",
"32 0 LINE",
"293 0 LINE",
"295 6 LINE",
"175 31 LINE",
"175 283.834 LINE",
"317 276 LINE",
"317 311 LINE",
"175 304.145 LINE",
"175 579.101 LINE",
"347 570 LINE",
"371 402 LINE",
"375 400 LINE",
"399 610 LINE",
"312 600 LINE",
"32 600 LINE",
"30 594 LINE"
);
}
);
width = 419;
},
{
anchors = (
{
name = bottom;
position = "{468, 0}";
},
{
name = top;
position = "{480, 600}";
}
);
layerId = m002;
paths = (
{
closed = 1;
nodes = (
"14 592 LINE",
"164 550 LINE",
"165 50 LINE",
"15 8 LINE",
"17 0 LINE",
"458 0 LINE",
"460 8 LINE",
"261 53 LINE",
"261 257 LINE",
"570 250 LINE",
"635 130 LINE",
"643 133 LINE",
"624 280 LINE",
"641 428 LINE",
"633 431 LINE",
"570 311 LINE",
"261 302 LINE",
"260 561 LINE",
"759 551 LINE",
"798 392 LINE",
"805 390 LINE",
"845 612 LINE",
"16 600 LINE"
);
}
);
width = 839;
},
{
associatedMasterId = m002;
layerId = "89670E76-D3F5-4127-A16A-2E9876A3F11A";
name = "Apr 20 19, 12:25";
paths = (
{
closed = 1;
nodes = (
"160 550 LINE",
"161 50 LINE",
"11 6 LINE",
"13 0 LINE",
"433 0 LINE",
"436 6 LINE",
"236 53 LINE",
"235.615 263.668 LINE",
"591 255 LINE",
"591 305 LINE",
"235.555 296.331 LINE",
"235.056 569.418 LINE",
"800 561 LINE",
"825 402 LINE",
"832 400 LINE",
"881 615 LINE",
"582 600 LINE",
"12 600 LINE",
"10 597 LINE"
);
}
);
width = 901;
},
{
associatedMasterId = m002;
layerId = "CC1F26F2-EE20-46CB-881E-8364BBA7445B";
name = "Apr 20 19, 12:25";
paths = (
{
closed = 1;
nodes = (
"160 550 LINE",
"161 50 LINE",
"11 6 LINE",
"13 0 LINE",
"433 0 LINE",
"436 6 LINE",
"236 53 LINE",
"235.615 263.668 LINE",
"591 255 LINE",
"591 305 LINE",
"235.555 296.331 LINE",
"235.056 569.418 LINE",
"800 561 LINE",
"825 402 LINE",
"832 400 LINE",
"881 615 LINE",
"582 600 LINE",
"12 600 LINE",
"10 597 LINE"
);
}
);
width = 901;
},
{
associatedMasterId = m002;
layerId = "A2D744AB-844D-4C9D-A046-40483784C52A";
name = "Apr 20 19, 12:20";
paths = (
{
closed = 1;
nodes = (
"120 570 LINE",
"120 30 LINE",
"30 6 LINE",
"32 0 LINE",
"293 0 LINE",
"295 6 LINE",
"175 31 LINE",
"175 283.834 LINE",
"317 276 LINE",
"317 311 LINE",
"175 304.145 LINE",
"175 579.101 LINE",
"347 570 LINE",
"371 402 LINE",
"375 400 LINE",
"399 610 LINE",
"312 600 LINE",
"32 600 LINE",
"30 594 LINE"
);
}
);
width = 419;
},
{
anchors = (
{
name = bottom;
position = "{255, 0}";
},
{
name = top;
position = "{267, 600}";
}
);
layerId = m003;
paths = (
{
closed = 1;
nodes = (
"8 592 LINE",
"118 555 LINE",
"118 45 LINE",
"8 8 LINE",
"10 0 LINE",
"367 0 LINE",
"369 8 LINE",
"197 45 LINE",
"197 265 LINE",
"291 263 LINE",
"351 141 LINE",
"359 143 LINE",
"340 283 LINE",
"357 425 LINE",
"349 427 LINE",
"291 305 LINE",
"198 303 LINE",
"198 570 LINE",
"398 564 LINE",
"430 403 LINE",
"438 401 LINE",
"477 612 LINE",
"10 600 LINE"
);
}
);
width = 474;
},
{
associatedMasterId = m003;
layerId = "9EC86ED5-0CBE-4066-B329-5855C57D4A20";
name = "Apr 20 19, 12:25";
paths = (
{
closed = 1;
nodes = (
"160 550 LINE",
"161 50 LINE",
"11 6 LINE",
"13 0 LINE",
"433 0 LINE",
"436 6 LINE",
"236 53 LINE",
"235.615 263.668 LINE",
"591 255 LINE",
"591 305 LINE",
"235.555 296.331 LINE",
"235.056 569.418 LINE",
"800 561 LINE",
"825 402 LINE",
"832 400 LINE",
"881 615 LINE",
"582 600 LINE",
"12 600 LINE",
"10 597 LINE"
);
}
);
width = 901;
},
{
associatedMasterId = m003;
layerId = "81D320CF-B678-4791-9A53-47CFBDE6A85F";
name = "Apr 20 19, 12:25";
paths = (
{
closed = 1;
nodes = (
"160 550 LINE",
"161 50 LINE",
"11 6 LINE",
"13 0 LINE",
"433 0 LINE",
"436 6 LINE",
"236 53 LINE",
"235.615 263.668 LINE",
"591 255 LINE",
"591 305 LINE",
"235.555 296.331 LINE",
"235.056 569.418 LINE",
"800 561 LINE",
"825 402 LINE",
"832 400 LINE",
"881 615 LINE",
"582 600 LINE",
"12 600 LINE",
"10 597 LINE"
);
}
);
width = 901;
},
{
associatedMasterId = m003;
layerId = "ADD57032-0487-4C9E-8088-7A92222FE6E5";
name = "Apr 20 19, 12:20";
paths = (
{
closed = 1;
nodes = (
"120 570 LINE",
"120 30 LINE",
"30 6 LINE",
"32 0 LINE",
"293 0 LINE",
"295 6 LINE",
"175 31 LINE",
"175 283.834 LINE",
"317 276 LINE",
"317 311 LINE",
"175 304.145 LINE",
"175 579.101 LINE",
"347 570 LINE",
"371 402 LINE",
"375 400 LINE",
"399 610 LINE",
"312 600 LINE",
"32 600 LINE",
"30 594 LINE"
);
}
);
width = 419;
},
{
anchors = (
{
name = bottom;
position = "{238, 0}";
},
{
name = top;
position = "{250, 600}";
}
);
background = {
paths = (
{
closed = 1;
nodes = (
"22 0 LINE",
"323 0 LINE",
"325 8 LINE",
"165 45 LINE",
"165 271 LINE",
"260 271 LINE",
"320 148 LINE",
"328 150 LINE",
"309 282 LINE",
"326 419 LINE",
"318 421 LINE",
"260 297 LINE",
"164 297 LINE",
"164 582 LINE",
"369 578 LINE",
"389 426 LINE",
"397 424 LINE",
"436 612 LINE",
"22 600 LINE",
"20 592 LINE",
"130 555 LINE",
"130 45 LINE",
"20 8 LINE"
);
}
);
};
layerId = "2C26E880-80A5-4D19-8A94-7D905A372841";
paths = (
{
closed = 1;
nodes = (
"20 592 LINE",
"130 555 LINE",
"130 45 LINE",
"20 8 LINE",
"22 0 LINE",
"323 0 LINE",
"325 8 LINE",
"165 45 LINE",
"165 269 LINE",
"260 269 LINE",
"320 146 LINE",
"328 148 LINE",
"309 282 LINE",
"326 421 LINE",
"318 423 LINE",
"260 299 LINE",
"164 299 LINE",
"164 579 LINE",
"369 575 LINE",
"389 423 LINE",
"397 421 LINE",
"436 612 LINE",
"22 600 LINE"
);
}
);
width = 446;
}
);
leftKerningGroup = H;
leftMetricsKey = H;
rightKerningGroup = F;
unicode = 0046;
},
{
glyphname = G;
lastChange = "2024-10-31 10:33:50 +0000";
layers = (
{
anchors = (
{
name = bottom;
position = "{473, 0}";
},
{
name = top;
position = "{452, 600}";
}
);
background = {
anchors = (
{
name = bottom;
position = "{432, 0}";
},
{
name = top;
position = "{459, 600}";
}
);
paths = (
{
closed = 1;
nodes = (
"40 106 OFFCURVE",
"205 -20 OFFCURVE",
"465 -20 CURVE SMOOTH",
"600 -20 OFFCURVE",
"708 16 OFFCURVE",
"795 91 CURVE",
"782 105 LINE",
"703 42 OFFCURVE",
"605 10 OFFCURVE",
"489 10 CURVE SMOOTH",
"250 10 OFFCURVE",
"80 134 OFFCURVE",
"80 310 CURVE SMOOTH",
"80 483 OFFCURVE",
"226 595 OFFCURVE",
"450 595 CURVE SMOOTH",
"551 595 OFFCURVE",
"671 573 OFFCURVE",
"729 545 CURVE",
"746 362 LINE",
"754 360 LINE",
"815 546 LINE",
"737 594 OFFCURVE",
"598 625 OFFCURVE",
"463 625 CURVE SMOOTH",
"202 625 OFFCURVE",
"40 502 OFFCURVE",
"40 304 CURVE SMOOTH"
);
}
);
};
layerId = "0CCC0E2D-406A-4672-8E6C-854B1DF78A27";
paths = (
{
closed = 1;
nodes = (
"776 -15 LINE",
"786 -17 LINE",
"801 269 LINE",
"346 272 LINE",
"348 257 LINE",
"741 212 LINE"
);
},
{
closed = 1;
nodes = (
"551 593 OFFCURVE",
"671 573 OFFCURVE",
"719 555 CURVE",
"736 378 LINE",
"744 376 LINE",
"805 572 LINE",
"733 597 OFFCURVE",
"595 625 OFFCURVE",
"453 625 CURVE SMOOTH",
"192 625 OFFCURVE",
"40 502 OFFCURVE",
"40 304 CURVE SMOOTH",
"40 106 OFFCURVE",
"205 -20 OFFCURVE",
"465 -20 CURVE SMOOTH",
"600 -20 OFFCURVE",
"708 12 OFFCURVE",
"785 77 CURVE",
"772 97 LINE",
"703 44 OFFCURVE",
"595 12 OFFCURVE",
"479 12 CURVE SMOOTH",
"240 12 OFFCURVE",
"78 134 OFFCURVE",
"78 310 CURVE SMOOTH",
"78 483 OFFCURVE",
"226 593 OFFCURVE",
"450 593 CURVE SMOOTH"
);
}
);
width = 875;
},
{
associatedMasterId = "0CCC0E2D-406A-4672-8E6C-854B1DF78A27";
layerId = "0BFE6188-949A-456E-A6EC-EA65FB64DE6E";
name = "Sep 12 19, 11:21";
paths = (
{
closed = 1;
nodes = (
"60 112 OFFCURVE",
"244 -20 OFFCURVE",
"505 -20 CURVE SMOOTH",
"627.98 -20 OFFCURVE",
"742.41 9.925 OFFCURVE",
"820.62 62.66 CURVE",
"829 4 LINE",
"857 0 LINE",
"867 269 LINE",
"343 269 LINE",
"356 249 LINE",
"797 228 LINE",
"814.876 102.866 LINE",
"747.185 45.265 OFFCURVE",
"646.404 25 OFFCURVE",
"549 25 CURVE SMOOTH",
"309 25 OFFCURVE",
"140 149 OFFCURVE",
"140 325 CURVE SMOOTH",
"140 477 OFFCURVE",
"252 580 OFFCURVE",
"481 580 CURVE SMOOTH",
"599 580 OFFCURVE",
"710 557 OFFCURVE",
"779 500 CURVE",
"797 332 LINE",
"804 330 LINE",
"865 511 LINE",
"789 579 OFFCURVE",
"662 625 OFFCURVE",
"524 625 CURVE SMOOTH",
"252 625 OFFCURVE",
"60 490 OFFCURVE",
"60 299 CURVE SMOOTH"
);
}
);
width = 957;
},
{
anchors = (
{
name = bottom;
position = "{498, 0}";
},
{
name = top;
position = "{477, 600}";
}
);
layerId = m002;
paths = (
{
closed = 1;
nodes = (
"825 -16 LINE",
"835 -18 LINE",
"856 269 LINE",
"370 268 LINE",
"372 253 LINE",
"776 206 LINE"
);
},
{
closed = 1;
nodes = (
"560 573 OFFCURVE",
"677 552 OFFCURVE",
"765 519 CURVE",
"782 358 LINE",
"790 356 LINE",
"851 576 LINE",
"763 605 OFFCURVE",
"625 625 OFFCURVE",
"516 625 CURVE SMOOTH",
"234 625 OFFCURVE",
"24 485 OFFCURVE",
"24 296 CURVE SMOOTH",
"24 110 OFFCURVE",
"212 -20 OFFCURVE",
"481 -20 CURVE SMOOTH",
"625 -20 OFFCURVE",
"756 16 OFFCURVE",
"822 74 CURVE",
"818 109 LINE",
"773 64 OFFCURVE",
"659 32 OFFCURVE",
"541 32 CURVE SMOOTH",
"313 32 OFFCURVE",
"127 167 OFFCURVE",
"127 334 CURVE SMOOTH",
"127 475 OFFCURVE",
"266 573 OFFCURVE",
"467 573 CURVE SMOOTH"
);
}
);
width = 909;
},
{
associatedMasterId = m002;
layerId = "D1021EB0-D77D-44F0-A622-BDCF0C8F9750";
name = "Sep 12 19, 11:21";
paths = (
{
closed = 1;
nodes = (
"60 112 OFFCURVE",
"244 -20 OFFCURVE",
"505 -20 CURVE SMOOTH",
"627.98 -20 OFFCURVE",
"742.41 9.925 OFFCURVE",
"820.62 62.66 CURVE",
"829 4 LINE",
"857 0 LINE",
"867 269 LINE",
"343 269 LINE",
"356 249 LINE",
"797 228 LINE",
"814.876 102.866 LINE",
"747.185 45.265 OFFCURVE",
"646.404 25 OFFCURVE",
"549 25 CURVE SMOOTH",
"309 25 OFFCURVE",
"140 149 OFFCURVE",
"140 325 CURVE SMOOTH",
"140 477 OFFCURVE",
"252 580 OFFCURVE",
"481 580 CURVE SMOOTH",
"599 580 OFFCURVE",
"710 557 OFFCURVE",
"779 500 CURVE",
"797 332 LINE",
"804 330 LINE",
"865 511 LINE",
"789 579 OFFCURVE",
"662 625 OFFCURVE",
"524 625 CURVE SMOOTH",
"252 625 OFFCURVE",
"60 490 OFFCURVE",
"60 299 CURVE SMOOTH"
);
}
);
width = 957;
},
{
anchors = (
{
name = bottom;
position = "{301, 0}";
},
{
name = top;
position = "{280, 600}";
}
);
layerId = m003;
paths = (
{
closed = 1;
nodes = (
"443 -16 LINE",
"455 -18 LINE",
"474 269 LINE",
"264 269 LINE",
"266 261 LINE",
"400 214 LINE"
);
},
{
closed = 1;
nodes = (
"335 577 OFFCURVE",
"367 567 OFFCURVE",
"390 556 CURVE",
"407 389 LINE",
"415 387 LINE",
"466 594 LINE",
"403 612 OFFCURVE",
"358 621 OFFCURVE",
"305 621 CURVE SMOOTH",
"132 621 OFFCURVE",
"26 493 OFFCURVE",
"26 288 CURVE SMOOTH",
"26 107 OFFCURVE",
"123 -20 OFFCURVE",
"266 -20 CURVE SMOOTH",
"339 -20 OFFCURVE",
"392 6 OFFCURVE",
"448 64 CURVE",
"436 85 LINE",
"392 49 OFFCURVE",
"353 36 OFFCURVE",
"307 36 CURVE SMOOTH",
"194 36 OFFCURVE",
"116 147 OFFCURVE",
"116 306 CURVE SMOOTH",
"116 446 OFFCURVE",
"156 574 OFFCURVE",
"288 576 CURVE SMOOTH"
);
}
);
width = 522;
},
{
associatedMasterId = m003;
layerId = "EE3D0923-803A-4EED-AC62-0D021C8E5589";
name = "Sep 12 19, 11:21";
paths = (
{
closed = 1;
nodes = (
"60 112 OFFCURVE",
"244 -20 OFFCURVE",
"505 -20 CURVE SMOOTH",
"627.98 -20 OFFCURVE",
"742.41 9.925 OFFCURVE",
"820.62 62.66 CURVE",
"829 4 LINE",
"857 0 LINE",
"867 269 LINE",
"343 269 LINE",
"356 249 LINE",
"797 228 LINE",
"814.876 102.866 LINE",
"747.185 45.265 OFFCURVE",
"646.404 25 OFFCURVE",
"549 25 CURVE SMOOTH",
"309 25 OFFCURVE",
"140 149 OFFCURVE",
"140 325 CURVE SMOOTH",
"140 477 OFFCURVE",
"252 580 OFFCURVE",
"481 580 CURVE SMOOTH",
"599 580 OFFCURVE",
"710 557 OFFCURVE",
"779 500 CURVE",
"797 332 LINE",
"804 330 LINE",
"865 511 LINE",
"789 579 OFFCURVE",
"662 625 OFFCURVE",
"524 625 CURVE SMOOTH",
"252 625 OFFCURVE",
"60 490 OFFCURVE",
"60 299 CURVE SMOOTH"
);
}
);
width = 957;
},
{
anchors = (
{
name = bottom;
position = "{290, 0}";
},
{
name = top;
position = "{269, 600}";
}
);
layerId = "2C26E880-80A5-4D19-8A94-7D905A372841";
paths = (
{
closed = 1;
nodes = (
"405 -16 LINE",
"417 -18 LINE",
"436 269 LINE",
"236 269 LINE",
"238 261 LINE",
"375 224 LINE"
);
},
{
closed = 1;
nodes = (
"283 587 OFFCURVE",
"329 582 OFFCURVE",
"344 575 CURVE",
"361 413 LINE",
"369 411 LINE",
"420 589 LINE",
"386 607 OFFCURVE",
"313 620 OFFCURVE",
"261 620 CURVE SMOOTH",
"120 620 OFFCURVE",
"45 507 OFFCURVE",
"45 294 CURVE SMOOTH",
"45 92 OFFCURVE",
"128 -20 OFFCURVE",
"259 -20 CURVE SMOOTH",
"326 -20 OFFCURVE",
"374 10 OFFCURVE",
"422 68 CURVE",
"414 92 LINE",
"367 38 OFFCURVE",
"323 10 OFFCURVE",
"265 10 CURVE SMOOTH",
"155 10 OFFCURVE",
"84 114 OFFCURVE",
"84 300 CURVE SMOOTH",
"84 494 OFFCURVE",
"139 587 OFFCURVE",
"254 587 CURVE SMOOTH"
);
}
);
width = 499;
}
);
leftKerningGroup = O;
leftMetricsKey = O;
rightKerningGroup = G;
unicode = 0047;
},
{
glyphname = H;
lastChange = "2024-10-31 09:55:26 +0000";
layers = (
{
anchors = (
{
name = bar;
position = "{524, 477}";
},
{
name = bottom;
position = "{525, 0}";
},
{
name = center;
position = "{525, 300}";
},
{
name = top;
position = "{525, 600}";
},
{
name = topleft;
position = "{-28, 600}";
}
);
layerId = "0CCC0E2D-406A-4672-8E6C-854B1DF78A27";
paths = (
{
closed = 1;
nodes = (
"197 555 LINE",
"367 592 LINE",
"365 600 LINE",
"32 600 LINE",
"30 592 LINE",
"160 555 LINE",
"160 50 LINE",
"30 8 LINE",
"32 0 LINE",
"365 0 LINE",
"367 8 LINE",
"197 50 LINE"
);
},
{
closed = 1;
nodes = (
"868 315 LINE",
"178 315 LINE",
"178 285 LINE",
"868 285 LINE"
);
},
{
closed = 1;
nodes = (
"853 50 LINE",
"683 8 LINE",
"685 0 LINE",
"1018 0 LINE",
"1020 8 LINE",
"890 50 LINE",
"890 555 LINE",
"1020 592 LINE",
"1018 600 LINE",
"685 600 LINE",
"683 592 LINE",
"853 555 LINE"
);
}
);
width = 1050;
},
{
anchors = (
{
name = bar;
position = "{548, 477}";
},
{
name = bottom;
position = "{545, 0}";
},
{
name = center;
position = "{545, 300}";
},
{
name = top;
position = "{545, 600}";
},
{
name = topleft;
position = "{-8, 600}";
}
);
layerId = m002;
paths = (
{
closed = 1;
nodes = (
"241 555 LINE",
"411 592 LINE",
"409 600 LINE",
"16 600 LINE",
"14 592 LINE",
"144 555 LINE",
"144 50 LINE",
"14 8 LINE",
"16 0 LINE",
"409 0 LINE",
"411 8 LINE",
"241 50 LINE"
);
},
{
closed = 1;
nodes = (
"925 323 LINE",
"186 323 LINE",
"186 277 LINE",
"925 277 LINE"
);
},
{
closed = 1;
nodes = (
"849 50 LINE",
"679 8 LINE",
"681 0 LINE",
"1074 0 LINE",
"1076 8 LINE",
"946 50 LINE",
"946 555 LINE",
"1076 592 LINE",
"1074 600 LINE",
"681 600 LINE",
"679 592 LINE",
"849 555 LINE"
);
}
);
width = 1090;
},
{
anchors = (
{
name = bar;
position = "{323, 471}";
},
{
name = bottom;
position = "{331, 0}";
},
{
name = center;
position = "{321, 300}";
},
{
name = top;
position = "{321, 600}";
},
{
name = topleft;
position = "{-72, 600}";
}
);
layerId = m003;
paths = (
{
closed = 1;
nodes = (
"197 555 LINE",
"307 592 LINE",
"305 600 LINE",
"10 600 LINE",
"8 592 LINE",
"118 555 LINE",
"118 45 LINE",
"8 8 LINE",
"10 0 LINE",
"305 0 LINE",
"307 8 LINE",
"197 45 LINE"
);
},
{
closed = 1;
nodes = (
"518 319 LINE",
"148 319 LINE",
"148 282 LINE",
"518 282 LINE"
);
},
{
closed = 1;
nodes = (
"455 45 LINE",
"345 8 LINE",
"347 0 LINE",
"642 0 LINE",
"644 8 LINE",
"534 45 LINE",
"534 555 LINE",
"644 592 LINE",
"642 600 LINE",
"347 600 LINE",
"345 592 LINE",
"455 555 LINE"
);
}
);
width = 652;
},
{
anchors = (
{
name = bar;
position = "{313, 471}";
},
{
name = bottom;
position = "{317, 0}";
},
{
name = center;
position = "{307, 300}";
},
{
name = top;
position = "{307, 600}";
},
{
name = topleft;
position = "{-86, 600}";
}
);
layerId = "2C26E880-80A5-4D19-8A94-7D905A372841";
paths = (
{
closed = 1;
nodes = (
"165 555 LINE",
"275 592 LINE",
"273 600 LINE",
"22 600 LINE",
"20 592 LINE",
"130 555 LINE",
"130 45 LINE",
"20 8 LINE",
"22 0 LINE",
"273 0 LINE",
"275 8 LINE",
"165 45 LINE"
);
},
{
closed = 1;
nodes = (
"475 316 LINE",
"143 316 LINE",
"143 286 LINE",
"475 286 LINE"
);
},
{
closed = 1;
nodes = (
"458 45 LINE",
"348 8 LINE",
"350 0 LINE",
"600 0 LINE",
"602 8 LINE",
"492 45 LINE",
"492 555 LINE",
"602 592 LINE",
"600 600 LINE",
"350 600 LINE",
"348 592 LINE",
"458 555 LINE"
);
}
);
width = 622;
}
);
leftKerningGroup = H;
rightKerningGroup = H;
unicode = 0048;
},
{
glyphname = I;
lastChange = "2022-09-20 19:14:36 +0000";
layers = (
{
anchors = (
{
name = ogonek;
position = "{193, 10}";
},
{
name = top;
position = "{200, 600}";
},
{
name = topleft;
position = "{1, 600}";
}
);
layerId = "0CCC0E2D-406A-4672-8E6C-854B1DF78A27";
paths = (
{
closed = 1;
nodes = (
"32 0 LINE",
"370 0 LINE",
"372 8 LINE",
"222 50 LINE",
"222 550 LINE",
"377 592 LINE",
"375 600 LINE",
"37 600 LINE",
"35 592 LINE",
"185 550 LINE",
"185 50 LINE",
"30 8 LINE"
);
}
);
width = 407;
},
{
anchors = (
{
name = ogonek;
position = "{201, 10}";
},
{
name = top;
position = "{208, 600}";
},
{
name = topleft;
position = "{9, 600}";
}
);
layerId = m002;
paths = (
{
closed = 1;
nodes = (
"20 0 LINE",
"407 0 LINE",
"409 8 LINE",
"259 50 LINE",
"259 550 LINE",
"406 592 LINE",
"404 600 LINE",
"16 600 LINE",
"14 592 LINE",
"164 550 LINE",
"164 50 LINE",
"18 8 LINE"
);
}
);
width = 423;
},
{
anchors = (
{
name = ogonek;
position = "{146, 13}";
},
{
name = top;
position = "{157, 600}";
},
{
name = topleft;
position = "{-42, 600}";
}
);
layerId = m003;
paths = (
{
closed = 1;
nodes = (
"11 0 LINE",
"305 0 LINE",
"307 8 LINE",
"197 45 LINE",
"197 555 LINE",
"305 592 LINE",
"303 600 LINE",
"10 600 LINE",
"8 592 LINE",
"118 555 LINE",
"118 45 LINE",
"9 8 LINE"
);
}
);
width = 315;
},
{
anchors = (
{
name = ogonek;
position = "{164, 0}";
},
{
name = top;
position = "{154, 600}";
},
{
name = topleft;
position = "{-45, 600}";
}
);
layerId = "2C26E880-80A5-4D19-8A94-7D905A372841";
paths = (
{
closed = 1;
nodes = (
"22 0 LINE",
"279 0 LINE",
"281 8 LINE",
"171 45 LINE",
"171 555 LINE",
"286 592 LINE",
"284 600 LINE",
"28 600 LINE",
"26 592 LINE",
"136 555 LINE",
"136 45 LINE",
"20 8 LINE"
);
}
);
width = 306;
}
);
leftKerningGroup = H;
leftMetricsKey = H;
rightKerningGroup = H;
rightMetricsKey = H;
unicode = 0049;
},
{
glyphname = J;
lastChange = "2022-09-20 19:14:36 +0000";
layers = (
{
anchors = (
{
name = bottom;
position = "{317, 0}";
},
{
name = top;
position = "{327, 600}";
}
);
layerId = "0CCC0E2D-406A-4672-8E6C-854B1DF78A27";
paths = (
{
closed = 1;
nodes = (
"61 66 LINE",
"113 40 OFFCURVE",
"203 10 OFFCURVE",
"323 10 CURVE SMOOTH",
"436 10 OFFCURVE",
"507 72 OFFCURVE",
"507 180 CURVE SMOOTH",
"507 590 LINE",
"523 577 LINE",
"203 577 LINE",
"169 418 LINE",
"161 416 LINE",
"122 608 LINE",
"544 600 LINE",
"544 200 LINE SMOOTH",
"544 55 OFFCURVE",
"471 -20 OFFCURVE",
"318 -20 CURVE SMOOTH",
"217 -20 OFFCURVE",
"94 24 OFFCURVE",
"54 56 CURVE"
);
}
);
width = 654;
},
{
associatedMasterId = "0CCC0E2D-406A-4672-8E6C-854B1DF78A27";
layerId = "35E4C493-3815-4981-8420-BF8E2226003F";
name = "2 Dec 21, 12:51";
paths = (
{
closed = 1;
nodes = (
"-55 137 LINE",
"30 77 OFFCURVE",
"179 40 OFFCURVE",
"276 40 CURVE SMOOTH",
"416 40 OFFCURVE",
"455 86 OFFCURVE",
"455 260 CURVE SMOOTH",
"455 550 LINE",
"285 592 LINE",
"287 600 LINE",
"683 600 LINE",
"685 592 LINE",
"530 550 LINE",
"530 260 LINE SMOOTH",
"530 85 OFFCURVE",
"445 -10 OFFCURVE",
"301 -10 CURVE SMOOTH",
"198 -10 OFFCURVE",
"16 51 OFFCURVE",
"-70 117 CURVE"
);
}
);
width = 705;
},
{
associatedMasterId = "0CCC0E2D-406A-4672-8E6C-854B1DF78A27";
layerId = "D4FA388F-006C-4923-9361-837E208B7442";
name = "2 Dec 21, 12:56";
paths = (
{
closed = 1;
nodes = (
"115 12 LINE",
"234 64 OFFCURVE",
"260 109 OFFCURVE",
"260 260 CURVE SMOOTH",
"260 550 LINE",
"90 592 LINE",
"92 600 LINE",
"488 600 LINE",
"490 592 LINE",
"335 550 LINE",
"335 260 LINE SMOOTH",
"335 119 OFFCURVE",
"270 39 OFFCURVE",
"123 0 CURVE"
);
}
);
width = 560;
},
{
associatedMasterId = "0CCC0E2D-406A-4672-8E6C-854B1DF78A27";
layerId = "24E5C3FC-A270-4D99-8E23-AAB1E6002EBA";
name = "2 Dec 21, 13:09";
paths = (
{
closed = 1;
nodes = (
"-185 127 LINE",
"-108 73 OFFCURVE",
"38 30 OFFCURVE",
"146 30 CURVE SMOOTH",
"271 30 OFFCURVE",
"285 62 OFFCURVE",
"285 260 CURVE SMOOTH",
"285 550 LINE",
"115 592 LINE",
"117 600 LINE",
"513 600 LINE",
"515 592 LINE",
"360 550 LINE",
"360 260 LINE SMOOTH",
"360 88 OFFCURVE",
"277 -20 OFFCURVE",
"131 -20 CURVE SMOOTH",
"36 -20 OFFCURVE",
"-106 34 OFFCURVE",
"-200 107 CURVE"
);
}
);
width = 560;
},
{
associatedMasterId = "0CCC0E2D-406A-4672-8E6C-854B1DF78A27";
layerId = "1A4B16EC-09B1-452E-B368-861496CF630C";
name = "2 Dec 21, 13:30";
paths = (
{
closed = 1;
nodes = (
"15 127 LINE",
"76 83 OFFCURVE",
"185 30 OFFCURVE",
"306 30 CURVE SMOOTH",
"410 30 OFFCURVE",
"445 68 OFFCURVE",
"445 180 CURVE SMOOTH",
"445 550 LINE",
"275 592 LINE",
"277 600 LINE",
"673 600 LINE",
"675 592 LINE",
"520 550 LINE",
"520 200 LINE SMOOTH",
"520 64 OFFCURVE",
"435 -20 OFFCURVE",
"291 -20 CURVE SMOOTH",
"201 -20 OFFCURVE",
"100 30 OFFCURVE",
"0 107 CURVE"
);
}
);
width = 720;
},
{
anchors = (
{
name = bottom;
position = "{349, 0}";
},
{
name = top;
position = "{349, 600}";
}
);
associatedMasterId = "0CCC0E2D-406A-4672-8E6C-854B1DF78A27";
layerId = "7B39A3F9-AB02-4D16-AD1C-06514CE1D68F";
name = "20 Jan 22, 13:30";
paths = (
{
closed = 1;
nodes = (
"23 122 LINE",
"91 73 OFFCURVE",
"276 30 OFFCURVE",
"385 30 CURVE SMOOTH",
"489 30 OFFCURVE",
"524 68 OFFCURVE",
"524 180 CURVE SMOOTH",
"524 590 LINE",
"555 560 LINE",
"235 557 LINE",
"201 398 LINE",
"193 396 LINE",
"154 608 LINE",
"599 600 LINE",
"599 200 LINE SMOOTH",
"599 63 OFFCURVE",
"513 -20 OFFCURVE",
"370 -20 CURVE SMOOTH",
"266 -20 OFFCURVE",
"98 39 OFFCURVE",
"10 107 CURVE"
);
}
);
width = 709;
},
{
anchors = (
{
name = bottom;
position = "{329, 0}";
},
{
name = top;
position = "{329, 600}";
}
);
associatedMasterId = "0CCC0E2D-406A-4672-8E6C-854B1DF78A27";
layerId = "07A995FA-2045-4F41-A338-F770EC6D2932";
name = "27 Jan 22, 17:59";
paths = (
{
closed = 1;
nodes = (
"3 112 LINE",
"71 73 OFFCURVE",
"236 30 OFFCURVE",
"345 30 CURVE SMOOTH",
"453 30 OFFCURVE",
"504 77 OFFCURVE",
"504 180 CURVE SMOOTH",
"504 590 LINE",
"535 560 LINE",
"215 557 LINE",
"181 398 LINE",
"173 396 LINE",
"134 608 LINE",
"579 600 LINE",
"579 200 LINE SMOOTH",
"579 63 OFFCURVE",
"473 -20 OFFCURVE",
"330 -20 CURVE SMOOTH",
"226 -20 OFFCURVE",
"78 39 OFFCURVE",
"-10 97 CURVE"
);
}
);
width = 679;
},
{
anchors = (
{
name = bottom;
position = "{335, 0}";
},
{
name = top;
position = "{345, 600}";
}
);
layerId = m002;
paths = (
{
closed = 1;
nodes = (
"48 107 LINE",
"131 65 OFFCURVE",
"259 42 OFFCURVE",
"357 42 CURVE SMOOTH",
"469 42 OFFCURVE",
"502 88 OFFCURVE",
"502 180 CURVE SMOOTH",
"502 590 LINE",
"541 551 LINE",
"190 547 LINE",
"156 388 LINE",
"148 386 LINE",
"109 608 LINE",
"598 600 LINE",
"598 200 LINE SMOOTH",
"598 55 OFFCURVE",
"488 -20 OFFCURVE",
"336 -20 CURVE SMOOTH",
"235 -20 OFFCURVE",
"114 24 OFFCURVE",
"38 88 CURVE"
);
}
);
width = 692;
},
{
associatedMasterId = m002;
layerId = "F752F49A-00CA-4D96-8E69-91447C3B1241";
name = "2 Dec 21, 12:51";
paths = (
{
closed = 1;
nodes = (
"-55 137 LINE",
"30 77 OFFCURVE",
"179 40 OFFCURVE",
"276 40 CURVE SMOOTH",
"416 40 OFFCURVE",
"455 86 OFFCURVE",
"455 260 CURVE SMOOTH",
"455 550 LINE",
"285 592 LINE",
"287 600 LINE",
"683 600 LINE",
"685 592 LINE",
"530 550 LINE",
"530 260 LINE SMOOTH",
"530 85 OFFCURVE",
"445 -10 OFFCURVE",
"301 -10 CURVE SMOOTH",
"198 -10 OFFCURVE",
"16 51 OFFCURVE",
"-70 117 CURVE"
);
}
);
width = 705;
},
{
associatedMasterId = m002;
layerId = "EB2C1CC2-1971-42D6-9DDF-F0FE9C24AC69";
name = "2 Dec 21, 12:56";
paths = (
{
closed = 1;
nodes = (
"115 12 LINE",
"234 64 OFFCURVE",
"260 109 OFFCURVE",
"260 260 CURVE SMOOTH",
"260 550 LINE",
"90 592 LINE",
"92 600 LINE",
"488 600 LINE",
"490 592 LINE",
"335 550 LINE",
"335 260 LINE SMOOTH",
"335 119 OFFCURVE",
"270 39 OFFCURVE",
"123 0 CURVE"
);
}
);
width = 560;
},
{
associatedMasterId = m002;
layerId = "0393DCFA-8013-477E-BEE5-5D60A440C3CE";
name = "2 Dec 21, 13:09";
paths = (
{
closed = 1;
nodes = (
"-185 127 LINE",
"-108 73 OFFCURVE",
"38 30 OFFCURVE",
"146 30 CURVE SMOOTH",
"271 30 OFFCURVE",
"285 62 OFFCURVE",
"285 260 CURVE SMOOTH",
"285 550 LINE",
"115 592 LINE",
"117 600 LINE",
"513 600 LINE",
"515 592 LINE",
"360 550 LINE",
"360 260 LINE SMOOTH",
"360 88 OFFCURVE",
"277 -20 OFFCURVE",
"131 -20 CURVE SMOOTH",
"36 -20 OFFCURVE",
"-106 34 OFFCURVE",
"-200 107 CURVE"
);
}
);
width = 560;
},
{
associatedMasterId = m002;
layerId = "564ABB89-5E88-4883-BBC7-A26E5C544CFA";
name = "2 Dec 21, 13:30";
paths = (
{
closed = 1;
nodes = (
"15 127 LINE",
"76 83 OFFCURVE",
"185 30 OFFCURVE",
"306 30 CURVE SMOOTH",
"410 30 OFFCURVE",
"445 68 OFFCURVE",
"445 180 CURVE SMOOTH",
"445 550 LINE",
"275 592 LINE",
"277 600 LINE",
"673 600 LINE",
"675 592 LINE",
"520 550 LINE",
"520 200 LINE SMOOTH",
"520 64 OFFCURVE",
"435 -20 OFFCURVE",
"291 -20 CURVE SMOOTH",
"201 -20 OFFCURVE",
"100 30 OFFCURVE",
"0 107 CURVE"
);
}
);
width = 720;
},
{
anchors = (
{
name = bottom;
position = "{349, 0}";
},
{
name = top;
position = "{349, 600}";
}
);
associatedMasterId = m002;
layerId = "349CE9AD-595D-4F6B-A90B-7D915D678224";
name = "20 Jan 22, 13:30";
paths = (
{
closed = 1;
nodes = (
"23 122 LINE",
"91 73 OFFCURVE",
"276 30 OFFCURVE",
"385 30 CURVE SMOOTH",
"489 30 OFFCURVE",
"524 68 OFFCURVE",
"524 180 CURVE SMOOTH",
"524 590 LINE",
"555 560 LINE",
"235 557 LINE",
"201 398 LINE",
"193 396 LINE",
"154 608 LINE",
"599 600 LINE",
"599 200 LINE SMOOTH",
"599 63 OFFCURVE",
"513 -20 OFFCURVE",
"370 -20 CURVE SMOOTH",
"266 -20 OFFCURVE",
"98 39 OFFCURVE",
"10 107 CURVE"
);
}
);
width = 709;
},
{
anchors = (
{
name = bottom;
position = "{329, 0}";
},
{
name = top;
position = "{329, 600}";
}
);
associatedMasterId = m002;
layerId = "4A572B9D-392C-423E-839D-A16233EE8FAB";
name = "27 Jan 22, 17:59";
paths = (
{
closed = 1;
nodes = (
"3 112 LINE",
"71 73 OFFCURVE",
"236 30 OFFCURVE",
"345 30 CURVE SMOOTH",
"453 30 OFFCURVE",
"504 77 OFFCURVE",
"504 180 CURVE SMOOTH",
"504 590 LINE",
"535 560 LINE",
"215 557 LINE",
"181 398 LINE",
"173 396 LINE",
"134 608 LINE",
"579 600 LINE",
"579 200 LINE SMOOTH",
"579 63 OFFCURVE",
"473 -20 OFFCURVE",
"330 -20 CURVE SMOOTH",
"226 -20 OFFCURVE",
"78 39 OFFCURVE",
"-10 97 CURVE"
);
}
);
width = 679;
},
{
anchors = (
{
name = bottom;
position = "{192, -1}";
},
{
name = top;
position = "{202, 600}";
}
);
layerId = m003;
paths = (
{
closed = 1;
nodes = (
"22 94 LINE",
"73 55 OFFCURVE",
"141 33 OFFCURVE",
"198 33 CURVE SMOOTH",
"233 33 OFFCURVE",
"264 59 OFFCURVE",
"264 123 CURVE SMOOTH",
"264 588 LINE",
"299 562 LINE",
"149 559 LINE",
"118 392 LINE",
"110 390 LINE",
"71 607 LINE",
"343 600 LINE",
"343 195 LINE SMOOTH",
"343 51 OFFCURVE",
"285 -20 OFFCURVE",
"194 -20 CURVE SMOOTH",
"147 -20 OFFCURVE",
"82 8 OFFCURVE",
"13 82 CURVE"
);
}
);
width = 431;
},
{
associatedMasterId = m003;
layerId = "36AD50BF-23D6-4D95-8320-91E73E7F6C72";
name = "2 Dec 21, 12:51";
paths = (
{
closed = 1;
nodes = (
"-55 137 LINE",
"30 77 OFFCURVE",
"179 40 OFFCURVE",
"276 40 CURVE SMOOTH",
"416 40 OFFCURVE",
"455 86 OFFCURVE",
"455 260 CURVE SMOOTH",
"455 550 LINE",
"285 592 LINE",
"287 600 LINE",
"683 600 LINE",
"685 592 LINE",
"530 550 LINE",
"530 260 LINE SMOOTH",
"530 85 OFFCURVE",
"445 -10 OFFCURVE",
"301 -10 CURVE SMOOTH",
"198 -10 OFFCURVE",
"16 51 OFFCURVE",
"-70 117 CURVE"
);
}
);
width = 705;
},
{
associatedMasterId = m003;
layerId = "28A3366E-01F2-4049-806C-A349C40EBB5C";
name = "2 Dec 21, 12:56";
paths = (
{
closed = 1;
nodes = (
"115 12 LINE",
"234 64 OFFCURVE",
"260 109 OFFCURVE",
"260 260 CURVE SMOOTH",
"260 550 LINE",
"90 592 LINE",
"92 600 LINE",
"488 600 LINE",
"490 592 LINE",
"335 550 LINE",
"335 260 LINE SMOOTH",
"335 119 OFFCURVE",
"270 39 OFFCURVE",
"123 0 CURVE"
);
}
);
width = 560;
},
{
associatedMasterId = m003;
layerId = "6D7DF9DD-5174-44C2-8C1E-182556F1A99F";
name = "2 Dec 21, 13:09";
paths = (
{
closed = 1;
nodes = (
"-185 127 LINE",
"-108 73 OFFCURVE",
"38 30 OFFCURVE",
"146 30 CURVE SMOOTH",
"271 30 OFFCURVE",
"285 62 OFFCURVE",
"285 260 CURVE SMOOTH",
"285 550 LINE",
"115 592 LINE",
"117 600 LINE",
"513 600 LINE",
"515 592 LINE",
"360 550 LINE",
"360 260 LINE SMOOTH",
"360 88 OFFCURVE",
"277 -20 OFFCURVE",
"131 -20 CURVE SMOOTH",
"36 -20 OFFCURVE",
"-106 34 OFFCURVE",
"-200 107 CURVE"
);
}
);
width = 560;
},
{
associatedMasterId = m003;
layerId = "C565C961-B9D0-4304-AA45-D2FA09415D6B";
name = "2 Dec 21, 13:30";
paths = (
{
closed = 1;
nodes = (
"15 127 LINE",
"76 83 OFFCURVE",
"185 30 OFFCURVE",
"306 30 CURVE SMOOTH",
"410 30 OFFCURVE",
"445 68 OFFCURVE",
"445 180 CURVE SMOOTH",
"445 550 LINE",
"275 592 LINE",
"277 600 LINE",
"673 600 LINE",
"675 592 LINE",
"520 550 LINE",
"520 200 LINE SMOOTH",
"520 64 OFFCURVE",
"435 -20 OFFCURVE",
"291 -20 CURVE SMOOTH",
"201 -20 OFFCURVE",
"100 30 OFFCURVE",
"0 107 CURVE"
);
}
);
width = 720;
},
{
anchors = (
{
name = bottom;
position = "{349, 0}";
},
{
name = top;
position = "{349, 600}";
}
);
associatedMasterId = m003;
layerId = "5A45380A-7557-407E-870A-E901AB89AC64";
name = "20 Jan 22, 13:30";
paths = (
{
closed = 1;
nodes = (
"23 122 LINE",
"91 73 OFFCURVE",
"276 30 OFFCURVE",
"385 30 CURVE SMOOTH",
"489 30 OFFCURVE",
"524 68 OFFCURVE",
"524 180 CURVE SMOOTH",
"524 590 LINE",
"555 560 LINE",
"235 557 LINE",
"201 398 LINE",
"193 396 LINE",
"154 608 LINE",
"599 600 LINE",
"599 200 LINE SMOOTH",
"599 63 OFFCURVE",
"513 -20 OFFCURVE",
"370 -20 CURVE SMOOTH",
"266 -20 OFFCURVE",
"98 39 OFFCURVE",
"10 107 CURVE"
);
}
);
width = 709;
},
{
anchors = (
{
name = bottom;
position = "{329, 0}";
},
{
name = top;
position = "{329, 600}";
}
);
associatedMasterId = m003;
layerId = "FCB1C945-064C-4A12-910C-2C2269451BF0";
name = "27 Jan 22, 17:59";
paths = (
{
closed = 1;
nodes = (
"3 112 LINE",
"71 73 OFFCURVE",
"236 30 OFFCURVE",
"345 30 CURVE SMOOTH",
"453 30 OFFCURVE",
"504 77 OFFCURVE",
"504 180 CURVE SMOOTH",
"504 590 LINE",
"535 560 LINE",
"215 557 LINE",
"181 398 LINE",
"173 396 LINE",
"134 608 LINE",
"579 600 LINE",
"579 200 LINE SMOOTH",
"579 63 OFFCURVE",
"473 -20 OFFCURVE",
"330 -20 CURVE SMOOTH",
"226 -20 OFFCURVE",
"78 39 OFFCURVE",
"-10 97 CURVE"
);
}
);
width = 679;
},
{
anchors = (
{
name = bottom;
position = "{183, 2}";
},
{
name = top;
position = "{193, 600}";
}
);
layerId = "2C26E880-80A5-4D19-8A94-7D905A372841";
paths = (
{
closed = 1;
nodes = (
"41 69 LINE",
"81 29 OFFCURVE",
"131 5 OFFCURVE",
"189 5 CURVE SMOOTH",
"251 5 OFFCURVE",
"272 51 OFFCURVE",
"272 135 CURVE SMOOTH",
"272 600 LINE",
"287 577 LINE",
"156 573 LINE",
"136 421 LINE",
"128 419 LINE",
"89 612 LINE",
"307 600 LINE",
"307 170 LINE SMOOTH",
"307 29 OFFCURVE",
"277 -20 OFFCURVE",
"180 -20 CURVE SMOOTH",
"128 -20 OFFCURVE",
"60 9 OFFCURVE",
"25 53 CURVE"
);
}
);
width = 407;
}
);
leftKerningGroup = J;
rightKerningGroup = J;
unicode = 004A;
},
{
glyphname = K;
lastChange = "2022-09-25 12:19:35 +0000";
layers = (
{
associatedMasterId = "0CCC0E2D-406A-4672-8E6C-854B1DF78A27";
layerId = "590979A8-FF2F-4509-A2A3-14684D938160";
name = "Extended Mar 31 18, 15:49";
paths = (
{
closed = 1;
nodes = (
"37 0 LINE",
"412 0 LINE",
"414 6 LINE",
"264 50 LINE",
"264 550 LINE",
"419 594 LINE",
"417 600 LINE",
"42 600 LINE",
"40 594 LINE",
"190 550 LINE",
"190 50 LINE",
"35 6 LINE"
);
},
{
closed = 1;
nodes = (
"259 145 LINE",
"817 550 LINE",
"967 594 LINE",
"970 600 LINE",
"589 600 LINE",
"587 594 LINE",
"737 550 LINE",
"190 145 LINE"
);
},
{
closed = 1;
nodes = (
"909 -66 LINE",
"958 -56 LINE",
"523 382 LINE",
"462 310 LINE"
);
}
);
width = 1035;
},
{
anchors = (
{
name = bottom;
position = "{493, 0}";
},
{
name = top;
position = "{493, 600}";
}
);
layerId = "0CCC0E2D-406A-4672-8E6C-854B1DF78A27";
paths = (
{
closed = 1;
nodes = (
"435 333 LINE",
"752 50 LINE",
"612 8 LINE",
"614 0 LINE",
"956 0 LINE",
"958 8 LINE",
"803 50 LINE",
"456 357 LINE"
);
},
{
closed = 1;
nodes = (
"198 150 LINE",
"763 550 LINE",
"913 592 LINE",
"911 600 LINE",
"563 600 LINE",
"561 592 LINE",
"711 550 LINE",
"198 189 LINE"
);
},
{
closed = 1;
nodes = (
"222 550 LINE",
"377 592 LINE",
"375 600 LINE",
"37 600 LINE",
"35 592 LINE",
"185 550 LINE",
"185 50 LINE",
"30 8 LINE",
"32 0 LINE",
"370 0 LINE",
"372 8 LINE",
"222 50 LINE"
);
}
);
width = 966;
},
{
associatedMasterId = "0CCC0E2D-406A-4672-8E6C-854B1DF78A27";
layerId = "32157E01-D1D7-4E57-A950-BE1247EEB11C";
name = "Extended Mar 31 18, 15:49";
paths = (
{
closed = 1;
nodes = (
"37 0 LINE",
"412 0 LINE",
"414 6 LINE",
"264 50 LINE",
"264 550 LINE",
"419 594 LINE",
"417 600 LINE",
"42 600 LINE",
"40 594 LINE",
"190 550 LINE",
"190 50 LINE",
"35 6 LINE"
);
},
{
closed = 1;
nodes = (
"259 145 LINE",
"817 550 LINE",
"967 594 LINE",
"970 600 LINE",
"589 600 LINE",
"587 594 LINE",
"737 550 LINE",
"190 145 LINE"
);
},
{
closed = 1;
nodes = (
"909 -66 LINE",
"958 -56 LINE",
"523 382 LINE",
"462 310 LINE"
);
}
);
width = 1035;
},
{
associatedMasterId = m002;
layerId = "72398B1D-A87D-49EF-91A3-BC09134A37E2";
name = "Extended Mar 31 18, 15:49";
paths = (
{
closed = 1;
nodes = (
"37 0 LINE",
"412 0 LINE",
"414 6 LINE",
"264 50 LINE",
"264 550 LINE",
"419 594 LINE",
"417 600 LINE",
"42 600 LINE",
"40 594 LINE",
"190 550 LINE",
"190 50 LINE",
"35 6 LINE"
);
},
{
closed = 1;
nodes = (
"259 145 LINE",
"817 550 LINE",
"967 594 LINE",
"970 600 LINE",
"589 600 LINE",
"587 594 LINE",
"737 550 LINE",
"190 145 LINE"
);
},
{
closed = 1;
nodes = (
"909 -66 LINE",
"958 -56 LINE",
"523 382 LINE",
"462 310 LINE"
);
}
);
width = 1035;
},
{
anchors = (
{
name = bottom;
position = "{513, 0}";
},
{
name = top;
position = "{513, 600}";
}
);
layerId = m002;
paths = (
{
closed = 1;
nodes = (
"435 316 LINE",
"735 50 LINE",
"595 8 LINE",
"597 0 LINE",
"1010 0 LINE",
"1012 8 LINE",
"878 50 LINE",
"521 368 LINE"
);
},
{
closed = 1;
nodes = (
"218 138 LINE",
"813 550 LINE",
"979 592 LINE",
"977 600 LINE",
"584 600 LINE",
"582 592 LINE",
"716 550 LINE",
"218 188 LINE"
);
},
{
closed = 1;
nodes = (
"265 550 LINE",
"420 592 LINE",
"418 600 LINE",
"21 600 LINE",
"19 592 LINE",
"169 550 LINE",
"169 50 LINE",
"14 8 LINE",
"16 0 LINE",
"413 0 LINE",
"415 8 LINE",
"265 50 LINE"
);
}
);
width = 1008;
},
{
associatedMasterId = m002;
layerId = "C15363E9-21E1-4023-B213-9165D2E3AD33";
name = "Extended Mar 31 18, 15:49";
paths = (
{
closed = 1;
nodes = (
"37 0 LINE",
"412 0 LINE",
"414 6 LINE",
"264 50 LINE",
"264 550 LINE",
"419 594 LINE",
"417 600 LINE",
"42 600 LINE",
"40 594 LINE",
"190 550 LINE",
"190 50 LINE",
"35 6 LINE"
);
},
{
closed = 1;
nodes = (
"259 145 LINE",
"817 550 LINE",
"967 594 LINE",
"970 600 LINE",
"589 600 LINE",
"587 594 LINE",
"737 550 LINE",
"190 145 LINE"
);
},
{
closed = 1;
nodes = (
"909 -66 LINE",
"958 -56 LINE",
"523 382 LINE",
"462 310 LINE"
);
}
);
width = 1035;
},
{
associatedMasterId = m003;
layerId = "0EBFFA9A-FBF9-4452-84EF-1ACE04C05819";
name = "Extended Mar 31 18, 15:49";
paths = (
{
closed = 1;
nodes = (
"37 0 LINE",
"412 0 LINE",
"414 6 LINE",
"264 50 LINE",
"264 550 LINE",
"419 594 LINE",
"417 600 LINE",
"42 600 LINE",
"40 594 LINE",
"190 550 LINE",
"190 50 LINE",
"35 6 LINE"
);
},
{
closed = 1;
nodes = (
"259 145 LINE",
"817 550 LINE",
"967 594 LINE",
"970 600 LINE",
"589 600 LINE",
"587 594 LINE",
"737 550 LINE",
"190 145 LINE"
);
},
{
closed = 1;
nodes = (
"909 -66 LINE",
"958 -56 LINE",
"523 382 LINE",
"462 310 LINE"
);
}
);
width = 1035;
},
{
anchors = (
{
name = bottom;
position = "{321, 0}";
},
{
name = top;
position = "{301, 600}";
}
);
layerId = m003;
paths = (
{
closed = 1;
nodes = (
"266 313 LINE",
"411 45 LINE",
"322 8 LINE",
"324 0 LINE",
"598 0 LINE",
"600 8 LINE",
"495 45 LINE",
"313 374 LINE"
);
},
{
closed = 1;
nodes = (
"164 132 LINE",
"463 555 LINE",
"575 592 LINE",
"573 600 LINE",
"323 600 LINE",
"321 592 LINE",
"409 555 LINE",
"164 198 LINE"
);
},
{
closed = 1;
nodes = (
"197 555 LINE",
"289 592 LINE",
"287 600 LINE",
"10 600 LINE",
"8 592 LINE",
"118 555 LINE",
"118 45 LINE",
"10 8 LINE",
"12 0 LINE",
"305 0 LINE",
"307 8 LINE",
"197 45 LINE"
);
}
);
width = 605;
},
{
associatedMasterId = m003;
layerId = "628ED45E-E92A-4DC6-B31E-5B8D87C3902E";
name = "Extended Mar 31 18, 15:49";
paths = (
{
closed = 1;
nodes = (
"37 0 LINE",
"412 0 LINE",
"414 6 LINE",
"264 50 LINE",
"264 550 LINE",
"419 594 LINE",
"417 600 LINE",
"42 600 LINE",
"40 594 LINE",
"190 550 LINE",
"190 50 LINE",
"35 6 LINE"
);
},
{
closed = 1;
nodes = (
"259 145 LINE",
"817 550 LINE",
"967 594 LINE",
"970 600 LINE",
"589 600 LINE",
"587 594 LINE",
"737 550 LINE",
"190 145 LINE"
);
},
{
closed = 1;
nodes = (
"909 -66 LINE",
"958 -56 LINE",
"523 382 LINE",
"462 310 LINE"
);
}
);
width = 1035;
},
{
anchors = (
{
name = bottom;
position = "{313, 0}";
},
{
name = top;
position = "{293, 600}";
}
);
layerId = "2C26E880-80A5-4D19-8A94-7D905A372841";
paths = (
{
closed = 1;
nodes = (
"261 328 LINE",
"426 45 LINE",
"327 8 LINE",
"329 0 LINE",
"590 0 LINE",
"592 8 LINE",
"468 45 LINE",
"277 361 LINE"
);
},
{
closed = 1;
nodes = (
"156 147 LINE",
"438 555 LINE",
"539 592 LINE",
"537 600 LINE",
"302 600 LINE",
"300 592 LINE",
"399 555 LINE",
"156 203 LINE"
);
},
{
closed = 1;
nodes = (
"171 555 LINE",
"251 592 LINE",
"249 600 LINE",
"28 600 LINE",
"26 592 LINE",
"136 555 LINE",
"136 45 LINE",
"20 8 LINE",
"22 0 LINE",
"279 0 LINE",
"281 8 LINE",
"171 45 LINE"
);
}
);
width = 604;
}
);
leftKerningGroup = H;
leftMetricsKey = H;
rightKerningGroup = K;
unicode = 004B;
},
{
glyphname = L;
lastChange = "2022-09-23 11:07:05 +0000";
layers = (
{
anchors = (
{
name = bottom;
position = "{439, 0}";
},
{
name = center;
position = "{439, 300}";
},
{
name = top;
position = "{239, 600}";
},
{
name = topright;
position = "{459, 600}";
}
);
layerId = "0CCC0E2D-406A-4672-8E6C-854B1DF78A27";
paths = (
{
closed = 1;
nodes = (
"32 0 LINE",
"767 0 LINE",
"746 199 LINE",
"738 197 LINE",
"697 25 LINE",
"217 25 LINE",
"217 550 LINE",
"372 592 LINE",
"370 600 LINE",
"32 600 LINE",
"30 592 LINE",
"180 550 LINE",
"180 50 LINE",
"30 8 LINE"
);
}
);
width = 837;
},
{
anchors = (
{
name = bottom;
position = "{457, 0}";
},
{
name = center;
position = "{457, 300}";
},
{
name = top;
position = "{257, 600}";
},
{
name = topright;
position = "{477, 600}";
}
);
layerId = m002;
paths = (
{
closed = 1;
nodes = (
"16 0 LINE",
"820 0 LINE",
"800 240 LINE",
"792 238 LINE",
"734 63 LINE",
"260 42 LINE",
"262 550 LINE",
"409 592 LINE",
"407 600 LINE",
"17 600 LINE",
"15 592 LINE",
"165 550 LINE",
"164 50 LINE",
"14 8 LINE"
);
}
);
width = 874;
},
{
anchors = (
{
name = bottom;
position = "{254, 0}";
},
{
name = center;
position = "{414, 300}";
},
{
name = top;
position = "{164, 600}";
},
{
name = topright;
position = "{367, 600}";
}
);
layerId = m003;
paths = (
{
closed = 1;
nodes = (
"10 0 LINE",
"449 0 LINE",
"428 220 LINE",
"420 218 LINE",
"372 42 LINE",
"197 32 LINE",
"197 555 LINE",
"305 592 LINE",
"303 600 LINE",
"10 600 LINE",
"8 592 LINE",
"118 555 LINE",
"118 45 LINE",
"8 8 LINE"
);
}
);
width = 512;
},
{
anchors = (
{
name = bottom;
position = "{241, 0}";
},
{
name = center;
position = "{401, 300}";
},
{
name = top;
position = "{151, 600}";
},
{
name = topright;
position = "{341, 600}";
}
);
layerId = "2C26E880-80A5-4D19-8A94-7D905A372841";
paths = (
{
closed = 1;
nodes = (
"22 0 LINE",
"411 0 LINE",
"390 195 LINE",
"382 193 LINE",
"345 32 LINE",
"165 26 LINE",
"165 555 LINE",
"282 592 LINE",
"280 600 LINE",
"22 600 LINE",
"20 592 LINE",
"130 555 LINE",
"130 45 LINE",
"20 8 LINE"
);
}
);
width = 461;
}
);
leftKerningGroup = H;
leftMetricsKey = H;
rightKerningGroup = L;
unicode = 004C;
},
{
glyphname = Lslash;
lastChange = "2022-09-20 19:14:52 +0000";
layers = (
{
components = (
{
name = L;
transform = "{1, 0, 0, 1, 10, 0}";
}
);
layerId = "0CCC0E2D-406A-4672-8E6C-854B1DF78A27";
paths = (
{
closed = 1;
nodes = (
"549 413 LINE",
"30 224 LINE",
"43 187 LINE",
"562 376 LINE"
);
}
);
width = 847;
},
{
components = (
{
name = L;
transform = "{1, 0, 0, 1, 2, 0}";
}
);
layerId = m002;
paths = (
{
closed = 1;
nodes = (
"533 413 LINE",
"14 224 LINE",
"27 187 LINE",
"546 376 LINE"
);
}
);
width = 876;
},
{
components = (
{
name = L;
transform = "{1, 0, 0, 1, 7, 0}";
}
);
layerId = m003;
paths = (
{
closed = 1;
nodes = (
"385 472 LINE",
"8 156 LINE",
"32 127 LINE",
"409 443 LINE"
);
}
);
width = 519;
},
{
components = (
{
alignment = -1;
name = L;
transform = "{1, 0, 0, 1, 16, 0}";
}
);
layerId = "2C26E880-80A5-4D19-8A94-7D905A372841";
paths = (
{
closed = 1;
nodes = (
"397 472 LINE",
"20 156 LINE",
"44 127 LINE",
"421 443 LINE"
);
}
);
width = 477;
}
);
leftMetricsKey = L;
rightKerningGroup = L;
rightMetricsKey = L;
unicode = 0141;
},
{
glyphname = M;
lastChange = "2022-09-25 10:49:32 +0000";
layers = (
{
anchors = (
{
name = bottom;
position = "{565, 0}";
},
{
name = top;
position = "{565, 600}";
}
);
layerId = "0CCC0E2D-406A-4672-8E6C-854B1DF78A27";
paths = (
{
closed = 1;
nodes = (
"12 0 LINE",
"367 0 LINE",
"369 8 LINE",
"182 50 LINE",
"301 541 LINE",
"292 540 LINE",
"585 0 LINE",
"598 0 LINE",
"919 595 LINE",
"883 565 LINE",
"1005 50 LINE",
"818 8 LINE",
"820 0 LINE",
"1178 0 LINE",
"1180 8 LINE",
"1040 50 LINE",
"923 552 LINE",
"1073 592 LINE",
"1071 600 LINE",
"889 600 LINE",
"578 31 LINE",
"607 31 LINE",
"296 600 LINE",
"126 600 LINE",
"124 592 LINE",
"270 549 LINE",
"150 50 LINE",
"10 8 LINE"
);
}
);
width = 1195;
},
{
anchors = (
{
name = bottom;
position = "{642, 0}";
},
{
name = top;
position = "{642, 600}";
}
);
layerId = m002;
paths = (
{
closed = 1;
nodes = (
"-4 0 LINE",
"376 0 LINE",
"378 8 LINE",
"191 50 LINE",
"277 541 LINE",
"240 532 LINE",
"558 0 LINE",
"628 0 LINE",
"965 571 LINE",
"945 597 LINE",
"1013 50 LINE",
"836 8 LINE",
"838 0 LINE",
"1255 0 LINE",
"1257 8 LINE",
"1117 50 LINE",
"1039 552 LINE",
"1143 592 LINE",
"1141 600 LINE",
"929 600 LINE",
"594 38 LINE",
"635 65 LINE",
"318 600 LINE",
"86 600 LINE",
"84 592 LINE",
"237 549 LINE",
"134 50 LINE",
"-6 8 LINE"
);
}
);
width = 1256;
},
{
anchors = (
{
name = bottom;
position = "{382, 0}";
},
{
name = top;
position = "{390, 600}";
}
);
layerId = m003;
paths = (
{
closed = 1;
nodes = (
"-2 0 LINE",
"267 0 LINE",
"269 8 LINE",
"159 45 LINE",
"211 550 LINE",
"200 543 LINE",
"334 0 LINE",
"395 0 LINE",
"528 582 LINE",
"504 590 LINE",
"571 45 LINE",
"462 8 LINE",
"464 0 LINE",
"761 0 LINE",
"763 8 LINE",
"653 45 LINE",
"578 557 LINE",
"682 592 LINE",
"680 600 LINE",
"484 600 LINE",
"359 28 LINE",
"394 61 LINE",
"256 600 LINE",
"63 600 LINE",
"61 592 LINE",
"172 554 LINE",
"106 45 LINE",
"-4 8 LINE"
);
}
);
width = 765;
},
{
anchors = (
{
name = bottom;
position = "{371, 0}";
},
{
name = top;
position = "{341, 600}";
}
);
layerId = "2C26E880-80A5-4D19-8A94-7D905A372841";
paths = (
{
closed = 1;
nodes = (
"17 0 LINE",
"263 0 LINE",
"265 8 LINE",
"155 45 LINE",
"221 546 LINE",
"216 545 LINE",
"354 0 LINE",
"373 0 LINE",
"523 594 LINE",
"499 586 LINE",
"581 45 LINE",
"467 8 LINE",
"469 0 LINE",
"722 0 LINE",
"724 8 LINE",
"614 45 LINE",
"537 557 LINE",
"672 592 LINE",
"670 600 LINE",
"494 600 LINE",
"360 62 LINE",
"375 45 LINE",
"240 600 LINE",
"88 600 LINE",
"86 592 LINE",
"193 554 LINE",
"125 45 LINE",
"15 8 LINE"
);
}
);
width = 741;
}
);
leftKerningGroup = M;
rightKerningGroup = M;
unicode = 004D;
},
{
glyphname = N;
lastChange = "2022-09-25 10:48:48 +0000";
layers = (
{
anchors = (
{
name = bottom;
position = "{529, 0}";
},
{
name = top;
position = "{529, 600}";
}
);
layerId = "0CCC0E2D-406A-4672-8E6C-854B1DF78A27";
paths = (
{
closed = 1;
nodes = (
"893 0 LINE",
"893 550 LINE",
"1014 592 LINE",
"1012 600 LINE",
"679 600 LINE",
"677 592 LINE",
"856 550 LINE",
"856 50 LINE",
"883 48 LINE",
"198 600 LINE",
"22 600 LINE",
"20 592 LINE",
"170 550 LINE",
"170 50 LINE",
"50 8 LINE",
"50 0 LINE",
"388 0 LINE",
"388 8 LINE",
"207 50 LINE",
"207 550 LINE",
"193 553 LINE",
"880 -2 LINE"
);
}
);
width = 1034;
},
{
anchors = (
{
name = bottom;
position = "{524, 0}";
},
{
name = top;
position = "{524, 600}";
}
);
layerId = m002;
paths = (
{
closed = 1;
nodes = (
"888 0 LINE",
"893 550 LINE",
"1014 592 LINE",
"1012 600 LINE",
"657 600 LINE",
"655 592 LINE",
"834 550 LINE",
"839 50 LINE",
"878 80 LINE",
"208 600 LINE",
"6 600 LINE",
"4 592 LINE",
"154 550 LINE",
"150 50 LINE",
"30 8 LINE",
"30 0 LINE",
"389 0 LINE",
"389 8 LINE",
"208 50 LINE",
"202 550 LINE",
"157 523 LINE",
"843 -13 LINE"
);
}
);
width = 1018;
},
{
anchors = (
{
name = bottom;
position = "{289, 0}";
},
{
name = top;
position = "{289, 600}";
}
);
layerId = m003;
paths = (
{
closed = 1;
nodes = (
"466 0 LINE",
"468 555 LINE",
"578 592 LINE",
"576 600 LINE",
"301 600 LINE",
"299 592 LINE",
"409 555 LINE",
"417 80 LINE",
"438 81 LINE",
"191 600 LINE",
"12 600 LINE",
"10 592 LINE",
"120 555 LINE",
"114 45 LINE",
"4 8 LINE",
"6 0 LINE",
"281 0 LINE",
"283 8 LINE",
"173 45 LINE",
"168 527 LINE",
"145 524 LINE",
"404 -11 LINE"
);
}
);
width = 586;
},
{
anchors = (
{
name = bottom;
position = "{282, 0}";
},
{
name = top;
position = "{282, 600}";
}
);
layerId = "2C26E880-80A5-4D19-8A94-7D905A372841";
paths = (
{
closed = 1;
nodes = (
"447 0 LINE",
"447 555 LINE",
"557 592 LINE",
"555 600 LINE",
"309 600 LINE",
"307 592 LINE",
"417 555 LINE",
"417 42 LINE",
"431 61 LINE",
"173 600 LINE",
"22 600 LINE",
"20 592 LINE",
"130 555 LINE",
"131 45 LINE",
"21 8 LINE",
"23 0 LINE",
"269 0 LINE",
"271 8 LINE",
"161 45 LINE",
"161 583 LINE",
"149 569 LINE",
"420 -2 LINE"
);
}
);
width = 577;
}
);
leftKerningGroup = N;
rightKerningGroup = N;
unicode = 004E;
},
{
glyphname = O;
lastChange = "2022-09-20 19:14:36 +0000";
layers = (
{
anchors = (
{
name = bottom;
position = "{461, 0}";
},
{
name = center;
position = "{461, 300}";
},
{
name = ogonek;
position = "{848, 10}";
},
{
name = top;
position = "{461, 600}";
},
{
name = topleft;
position = "{-3, 600}";
},
{
name = topright;
position = "{925, 600}";
}
);
layerId = "0CCC0E2D-406A-4672-8E6C-854B1DF78A27";
paths = (
{
closed = 1;
nodes = (
"718 -20 OFFCURVE",
"882 107 OFFCURVE",
"882 297 CURVE SMOOTH",
"882 494 OFFCURVE",
"718 625 OFFCURVE",
"471 625 CURVE SMOOTH",
"212 625 OFFCURVE",
"40 499 OFFCURVE",
"40 309 CURVE SMOOTH",
"40 112 OFFCURVE",
"213 -20 OFFCURVE",
"472 -20 CURVE SMOOTH"
);
},
{
closed = 1;
nodes = (
"240 15 OFFCURVE",
"82 135 OFFCURVE",
"82 315 CURVE SMOOTH",
"82 480 OFFCURVE",
"236 590 OFFCURVE",
"468 590 CURVE SMOOTH",
"691 590 OFFCURVE",
"840 471 OFFCURVE",
"840 292 CURVE SMOOTH",
"840 126 OFFCURVE",
"694 15 OFFCURVE",
"476 15 CURVE SMOOTH"
);
}
);
width = 927;
},
{
anchors = (
{
name = bottom;
position = "{481, 0}";
},
{
name = center;
position = "{481, 300}";
},
{
name = ogonek;
position = "{868, 10}";
},
{
name = top;
position = "{481, 600}";
},
{
name = topleft;
position = "{17, 600}";
},
{
name = topright;
position = "{945, 600}";
}
);
layerId = m002;
paths = (
{
closed = 1;
nodes = (
"733 -20 OFFCURVE",
"938 127 OFFCURVE",
"938 313 CURVE SMOOTH",
"938 506 OFFCURVE",
"773 625 OFFCURVE",
"507 625 CURVE SMOOTH",
"240 625 OFFCURVE",
"24 478 OFFCURVE",
"24 293 CURVE SMOOTH",
"24 99 OFFCURVE",
"196 -20 OFFCURVE",
"476 -20 CURVE SMOOTH"
);
},
{
closed = 1;
nodes = (
"277 31 OFFCURVE",
"126 147 OFFCURVE",
"126 331 CURVE SMOOTH",
"126 483 OFFCURVE",
"257 574 OFFCURVE",
"472 574 CURVE SMOOTH",
"697 574 OFFCURVE",
"836 462 OFFCURVE",
"836 276 CURVE SMOOTH",
"836 117 OFFCURVE",
"723 31 OFFCURVE",
"512 31 CURVE SMOOTH"
);
}
);
width = 967;
},
{
anchors = (
{
name = bottom;
position = "{261, 0}";
},
{
name = center;
position = "{261, 300}";
},
{
name = ogonek;
position = "{343, 10}";
},
{
name = top;
position = "{261, 600}";
},
{
name = topleft;
position = "{7, 600}";
},
{
name = topright;
position = "{420, 600}";
}
);
layerId = m003;
paths = (
{
closed = 1;
nodes = (
"406 -20 OFFCURVE",
"496 115 OFFCURVE",
"496 309 CURVE SMOOTH",
"496 492 OFFCURVE",
"415 620 OFFCURVE",
"272 620 CURVE SMOOTH",
"116 620 OFFCURVE",
"26 488 OFFCURVE",
"26 298 CURVE SMOOTH",
"26 111 OFFCURVE",
"107 -20 OFFCURVE",
"250 -20 CURVE SMOOTH"
);
},
{
closed = 1;
nodes = (
"167 28 OFFCURVE",
"111 152 OFFCURVE",
"111 327 CURVE SMOOTH",
"111 471 OFFCURVE",
"163 572 OFFCURVE",
"250 572 CURVE SMOOTH",
"355 572 OFFCURVE",
"412 452 OFFCURVE",
"412 281 CURVE SMOOTH",
"412 132 OFFCURVE",
"358 28 OFFCURVE",
"273 28 CURVE SMOOTH"
);
}
);
width = 529;
},
{
anchors = (
{
name = bottom;
position = "{250, 0}";
},
{
name = center;
position = "{250, 300}";
},
{
name = ogonek;
position = "{332, 10}";
},
{
name = top;
position = "{250, 600}";
},
{
name = topleft;
position = "{-4, 600}";
},
{
name = topright;
position = "{409, 600}";
}
);
layerId = "2C26E880-80A5-4D19-8A94-7D905A372841";
paths = (
{
closed = 1;
nodes = (
"382 -20 OFFCURVE",
"455 94 OFFCURVE",
"455 298 CURVE SMOOTH",
"455 505 OFFCURVE",
"384 620 OFFCURVE",
"255 620 CURVE SMOOTH",
"120 620 OFFCURVE",
"45 507 OFFCURVE",
"45 303 CURVE SMOOTH",
"45 95 OFFCURVE",
"118 -20 OFFCURVE",
"250 -20 CURVE SMOOTH"
);
},
{
closed = 1;
nodes = (
"145 12 OFFCURVE",
"82 121 OFFCURVE",
"82 316 CURVE SMOOTH",
"82 491 OFFCURVE",
"142 588 OFFCURVE",
"250 588 CURVE SMOOTH",
"358 588 OFFCURVE",
"418 481 OFFCURVE",
"418 287 CURVE SMOOTH",
"418 110 OFFCURVE",
"361 12 OFFCURVE",
"257 12 CURVE SMOOTH"
);
}
);
width = 500;
}
);
leftKerningGroup = O;
rightKerningGroup = O;
unicode = 004F;
},
{
glyphname = Oslash;
lastChange = "2022-09-20 19:14:52 +0000";
layers = (
{
components = (
{
name = O;
}
);
layerId = "0CCC0E2D-406A-4672-8E6C-854B1DF78A27";
paths = (
{
closed = 1;
nodes = (
"233 -62 LINE",
"278 -62 LINE",
"748 669 LINE",
"703 669 LINE"
);
}
);
width = 927;
},
{
components = (
{
name = O;
}
);
layerId = m002;
paths = (
{
closed = 1;
nodes = (
"233 -62 LINE",
"278 -62 LINE",
"748 669 LINE",
"703 669 LINE"
);
}
);
width = 967;
},
{
components = (
{
name = O;
}
);
layerId = m003;
paths = (
{
closed = 1;
nodes = (
"123 -62 LINE",
"158 -62 LINE",
"407 669 LINE",
"372 669 LINE"
);
}
);
width = 529;
},
{
components = (
{
alignment = -1;
name = O;
}
);
layerId = "2C26E880-80A5-4D19-8A94-7D905A372841";
paths = (
{
closed = 1;
nodes = (
"123 -62 LINE",
"158 -62 LINE",
"407 669 LINE",
"372 669 LINE"
);
}
);
width = 500;
}
);
leftKerningGroup = O;
leftMetricsKey = O;
rightKerningGroup = O;
rightMetricsKey = O;
unicode = 00D8;
},
{
glyphname = OE;
lastChange = "2022-09-20 19:14:36 +0000";
layers = (
{
anchors = (
{
name = bottom;
position = "{636, 0}";
},
{
name = top;
position = "{636, 600}";
}
);
layerId = "0CCC0E2D-406A-4672-8E6C-854B1DF78A27";
paths = (
{
closed = 1;
nodes = (
"82 480 OFFCURVE",
"224 580 OFFCURVE",
"438 580 CURVE SMOOTH",
"516 580 OFFCURVE",
"584 564 OFFCURVE",
"638 535 CURVE",
"638 58 LINE",
"586 30 OFFCURVE",
"520 15 OFFCURVE",
"446 15 CURVE SMOOTH",
"228 15 OFFCURVE",
"82 135 OFFCURVE",
"82 315 CURVE SMOOTH"
);
},
{
closed = 1;
nodes = (
"40 112 OFFCURVE",
"201 -20 OFFCURVE",
"442 -20 CURVE SMOOTH",
"495 -20 OFFCURVE",
"545 -13 OFFCURVE",
"589 0 CURVE",
"1195 0 LINE",
"1174 199 LINE",
"1166 197 LINE",
"1125 28 LINE",
"675 25 LINE",
"675 282 LINE",
"952 279 LINE",
"1017 157 LINE",
"1025 159 LINE",
"1006 293 LINE",
"1023 428 LINE",
"1015 430 LINE",
"952 308 LINE",
"675 305 LINE",
"675 577 LINE",
"1121 581 LINE",
"1145 422 LINE",
"1153 420 LINE",
"1192 612 LINE",
"568 601 LINE",
"529 610 OFFCURVE",
"487 615 OFFCURVE",
"441 615 CURVE SMOOTH",
"200 615 OFFCURVE",
"40 499 OFFCURVE",
"40 309 CURVE SMOOTH"
);
}
);
width = 1255;
},
{
anchors = (
{
name = bottom;
position = "{674, 0}";
},
{
name = top;
position = "{674, 600}";
}
);
layerId = m002;
paths = (
{
closed = 1;
nodes = (
"125 471 OFFCURVE",
"251 564 OFFCURVE",
"442 564 CURVE SMOOTH",
"533 564 OFFCURVE",
"622 548 OFFCURVE",
"687 522 CURVE",
"687 49 LINE",
"649 37 OFFCURVE",
"594 31 OFFCURVE",
"543 31 CURVE SMOOTH",
"291 31 OFFCURVE",
"125 151 OFFCURVE",
"125 331 CURVE SMOOTH"
);
},
{
closed = 1;
nodes = (
"24 112 OFFCURVE",
"206 -20 OFFCURVE",
"477 -20 CURVE SMOOTH",
"538 -20 OFFCURVE",
"615 -13 OFFCURVE",
"668 0 CURVE",
"1281 0 LINE",
"1262 232 LINE",
"1257 230 LINE",
"1196 54 LINE",
"783 42 LINE",
"783 270 LINE",
"1036 267 LINE",
"1101 145 LINE",
"1109 147 LINE",
"1090 293 LINE",
"1107 440 LINE",
"1099 442 LINE",
"1036 320 LINE",
"784 314 LINE",
"784 559 LINE",
"1212 551 LINE",
"1237 392 LINE",
"1244 390 LINE",
"1299 612 LINE",
"675 600 LINE",
"626 601 OFFCURVE",
"561 615 OFFCURVE",
"507 615 CURVE SMOOTH",
"218 615 OFFCURVE",
"24 484 OFFCURVE",
"24 293 CURVE SMOOTH"
);
}
);
width = 1359;
},
{
anchors = (
{
name = bottom;
position = "{359, 0}";
},
{
name = top;
position = "{359, 600}";
}
);
layerId = m003;
paths = (
{
closed = 1;
nodes = (
"111 471 OFFCURVE",
"163 572 OFFCURVE",
"250 572 CURVE SMOOTH",
"282 572 OFFCURVE",
"309 561 OFFCURVE",
"332 540 CURVE",
"332 47 LINE",
"315 35 OFFCURVE",
"295 28 OFFCURVE",
"273 28 CURVE SMOOTH",
"167 28 OFFCURVE",
"111 152 OFFCURVE",
"111 327 CURVE SMOOTH"
);
},
{
closed = 1;
nodes = (
"26 111 OFFCURVE",
"107 -20 OFFCURVE",
"250 -20 CURVE SMOOTH",
"286 -20 OFFCURVE",
"317 -13 OFFCURVE",
"346 0 CURVE",
"694 0 LINE",
"673 219 LINE",
"665 217 LINE",
"617 43 LINE",
"411 33 LINE",
"411 275 LINE",
"504 273 LINE",
"564 151 LINE",
"572 153 LINE",
"553 293 LINE",
"570 435 LINE",
"562 437 LINE",
"504 315 LINE",
"411 313 LINE",
"411 570 LINE",
"613 564 LINE",
"644 403 LINE",
"652 401 LINE",
"691 612 LINE",
"354 604 LINE",
"329 614 OFFCURVE",
"303 620 OFFCURVE",
"272 620 CURVE SMOOTH",
"116 620 OFFCURVE",
"26 488 OFFCURVE",
"26 298 CURVE SMOOTH"
);
}
);
width = 742;
},
{
anchors = (
{
name = bottom;
position = "{367, 0}";
},
{
name = top;
position = "{367, 600}";
}
);
layerId = "2C26E880-80A5-4D19-8A94-7D905A372841";
paths = (
{
closed = 1;
nodes = (
"82 491 OFFCURVE",
"142 588 OFFCURVE",
"250 588 CURVE SMOOTH",
"283 588 OFFCURVE",
"311 578 OFFCURVE",
"335 559 CURVE",
"335 36 LINE",
"313 20 OFFCURVE",
"287 12 OFFCURVE",
"257 12 CURVE SMOOTH",
"145 12 OFFCURVE",
"82 121 OFFCURVE",
"82 316 CURVE SMOOTH"
);
},
{
closed = 1;
nodes = (
"45 95 OFFCURVE",
"118 -20 OFFCURVE",
"250 -20 CURVE SMOOTH",
"282 -20 OFFCURVE",
"310 -13 OFFCURVE",
"335 0 CURVE",
"642 0 LINE",
"621 198 LINE",
"613 196 LINE",
"576 30 LINE",
"370 25 LINE",
"370 279 LINE",
"467 279 LINE",
"527 156 LINE",
"535 158 LINE",
"516 292 LINE",
"533 429 LINE",
"525 433 LINE",
"467 309 LINE",
"370 309 LINE",
"370 579 LINE",
"572 575 LINE",
"592 423 LINE",
"600 421 LINE",
"639 612 LINE",
"339 600 LINE",
"314 613 OFFCURVE",
"286 620 OFFCURVE",
"255 620 CURVE SMOOTH",
"120 620 OFFCURVE",
"45 507 OFFCURVE",
"45 303 CURVE SMOOTH"
);
}
);
width = 702;
}
);
leftKerningGroup = O;
leftMetricsKey = O;
rightKerningGroup = E;
rightMetricsKey = E;
unicode = 0152;
},
{
glyphname = P;
lastChange = "2022-09-20 19:14:36 +0000";
layers = (
{
anchors = (
{
name = bottom;
position = "{431, 0}";
},
{
name = top;
position = "{431, 600}";
}
);
layerId = "0CCC0E2D-406A-4672-8E6C-854B1DF78A27";
paths = (
{
closed = 1;
nodes = (
"42 0 LINE",
"406 0 LINE",
"408 8 LINE",
"217 52 LINE",
"217 255 LINE",
"518 256 LINE SMOOTH",
"696 257 OFFCURVE",
"789 315 OFFCURVE",
"789 426 CURVE SMOOTH",
"789 540 OFFCURVE",
"693 600 OFFCURVE",
"508 600 CURVE SMOOTH",
"32 600 LINE",
"30 592 LINE",
"180 550 LINE",
"180 50 LINE",
"40 8 LINE"
);
},
{
closed = 1;
nodes = (
"217 573 LINE",
"508 573 LINE SMOOTH",
"668 573 OFFCURVE",
"751 520 OFFCURVE",
"751 418 CURVE SMOOTH",
"751 331 OFFCURVE",
"675 285 OFFCURVE",
"528 285 CURVE SMOOTH",
"217 285 LINE"
);
}
);
width = 829;
},
{
anchors = (
{
name = bottom;
position = "{449, 0}";
},
{
name = top;
position = "{449, 600}";
}
);
layerId = m002;
paths = (
{
closed = 1;
nodes = (
"26 0 LINE",
"447 0 LINE",
"449 8 LINE",
"260 52 LINE",
"260 252 LINE",
"520 252 LINE SMOOTH",
"720 252 OFFCURVE",
"846 299 OFFCURVE",
"846 433 CURVE SMOOTH",
"846 557 OFFCURVE",
"721 600 OFFCURVE",
"526 600 CURVE SMOOTH",
"16 600 LINE",
"14 592 LINE",
"164 550 LINE",
"164 50 LINE",
"24 8 LINE"
);
},
{
closed = 1;
nodes = (
"260 553 LINE",
"480 553 LINE SMOOTH",
"609 553 OFFCURVE",
"743 548 OFFCURVE",
"743 415 CURVE SMOOTH",
"743 313 OFFCURVE",
"639 287 OFFCURVE",
"500 293 CURVE SMOOTH",
"260 304 LINE"
);
}
);
width = 870;
},
{
anchors = (
{
name = bottom;
position = "{261, 0}";
},
{
name = top;
position = "{261, 600}";
}
);
background = {
paths = (
{
closed = 1;
nodes = (
"12 0 LINE",
"298 0 LINE",
"300 8 LINE",
"190 45 LINE",
"190 555 LINE",
"300 592 LINE",
"298 600 LINE",
"12 600 LINE",
"10 592 LINE",
"120 555 LINE",
"120 45 LINE",
"10 8 LINE"
);
}
);
};
layerId = m003;
paths = (
{
closed = 1;
nodes = (
"10 0 LINE",
"335 0 LINE",
"337 8 LINE",
"197 47 LINE",
"197 256 LINE",
"273 256 LINE SMOOTH",
"384 256 OFFCURVE",
"470 333 OFFCURVE",
"470 431 CURVE SMOOTH",
"470 524 OFFCURVE",
"391 600 OFFCURVE",
"296 600 CURVE SMOOTH",
"10 600 LINE",
"8 592 LINE",
"118 555 LINE",
"118 45 LINE",
"8 8 LINE"
);
},
{
closed = 1;
nodes = (
"197 562 LINE",
"261 566 LINE SMOOTH",
"327 570 OFFCURVE",
"385 510 OFFCURVE",
"385 416 CURVE SMOOTH",
"385 341 OFFCURVE",
"326 285 OFFCURVE",
"259 291 CURVE SMOOTH",
"197 297 LINE"
);
}
);
width = 498;
},
{
anchors = (
{
name = bottom;
position = "{248, 0}";
},
{
name = top;
position = "{248, 600}";
}
);
layerId = "2C26E880-80A5-4D19-8A94-7D905A372841";
paths = (
{
closed = 1;
nodes = (
"22 0 LINE",
"304 0 LINE",
"306 8 LINE",
"165 47 LINE",
"165 257 LINE",
"259 258 LINE SMOOTH",
"357 259 OFFCURVE",
"427 329 OFFCURVE",
"427 426 CURVE SMOOTH",
"427 523 OFFCURVE",
"358 600 OFFCURVE",
"270 600 CURVE SMOOTH",
"22 600 LINE",
"20 592 LINE",
"130 555 LINE",
"130 45 LINE",
"20 8 LINE"
);
},
{
closed = 1;
nodes = (
"165 571 LINE",
"258 575 LINE SMOOTH",
"333 578 OFFCURVE",
"392 504 OFFCURVE",
"392 418 CURVE SMOOTH",
"392 341 OFFCURVE",
"342 283 OFFCURVE",
"268 285 CURVE SMOOTH",
"165 288 LINE"
);
}
);
width = 467;
}
);
leftKerningGroup = H;
leftMetricsKey = H;
rightKerningGroup = P;
unicode = 0050;
},
{
glyphname = Thorn;
lastChange = "2022-09-20 19:14:36 +0000";
layers = (
{
layerId = "0CCC0E2D-406A-4672-8E6C-854B1DF78A27";
paths = (
{
closed = 1;
nodes = (
"32 0 LINE",
"370 0 LINE",
"372 8 LINE",
"222 50 LINE",
"222 134 LINE",
"523 135 LINE SMOOTH",
"710 136 OFFCURVE",
"794 188 OFFCURVE",
"794 305 CURVE SMOOTH",
"794 425 OFFCURVE",
"706 479 OFFCURVE",
"513 479 CURVE SMOOTH",
"222 479 LINE",
"222 550 LINE",
"377 592 LINE",
"375 600 LINE",
"37 600 LINE",
"35 592 LINE",
"185 550 LINE",
"185 50 LINE",
"30 8 LINE"
);
},
{
closed = 1;
nodes = (
"222 452 LINE",
"513 452 LINE SMOOTH",
"683 452 OFFCURVE",
"756 396 OFFCURVE",
"756 297 CURVE SMOOTH",
"756 207 OFFCURVE",
"689 164 OFFCURVE",
"533 164 CURVE SMOOTH",
"222 164 LINE"
);
}
);
width = 834;
},
{
layerId = m002;
paths = (
{
closed = 1;
nodes = (
"16 0 LINE",
"411 0 LINE",
"413 8 LINE",
"217 50 LINE",
"217 133 LINE",
"478 134 LINE SMOOTH",
"686 135 OFFCURVE",
"803 190 OFFCURVE",
"803 313 CURVE SMOOTH",
"803 434 OFFCURVE",
"674 480 OFFCURVE",
"484 480 CURVE SMOOTH",
"217 480 LINE",
"217 550 LINE",
"418 592 LINE",
"416 600 LINE",
"21 600 LINE",
"19 592 LINE",
"123 550 LINE",
"123 50 LINE",
"14 8 LINE"
);
},
{
closed = 1;
nodes = (
"217 434 LINE",
"436 434 LINE SMOOTH",
"561 434 OFFCURVE",
"700 430 OFFCURVE",
"700 296 CURVE SMOOTH",
"700 201 OFFCURVE",
"569 178 OFFCURVE",
"456 178 CURVE SMOOTH",
"217 178 LINE"
);
}
);
width = 827;
},
{
layerId = m003;
paths = (
{
closed = 1;
nodes = (
"12 0 LINE",
"342 0 LINE",
"344 8 LINE",
"197 45 LINE",
"197 132 LINE",
"273 133 LINE SMOOTH",
"382 134 OFFCURVE",
"470 204 OFFCURVE",
"470 309 CURVE SMOOTH",
"470 409 OFFCURVE",
"390 478 OFFCURVE",
"271 478 CURVE SMOOTH",
"197 478 LINE",
"197 555 LINE",
"343 592 LINE",
"341 600 LINE",
"10 600 LINE",
"8 592 LINE",
"118 555 LINE",
"118 45 LINE",
"10 8 LINE"
);
},
{
closed = 1;
nodes = (
"197 442 LINE",
"261 441 LINE SMOOTH",
"324 440 OFFCURVE",
"385 367 OFFCURVE",
"385 293 CURVE SMOOTH",
"385 219 OFFCURVE",
"327 163 OFFCURVE",
"259 169 CURVE SMOOTH",
"197 174 LINE"
);
}
);
width = 498;
},
{
background = {
anchors = (
{
name = bottom;
position = "{254, -121}";
}
);
};
layerId = "2C26E880-80A5-4D19-8A94-7D905A372841";
paths = (
{
closed = 1;
nodes = (
"22 0 LINE",
"279 0 LINE",
"281 8 LINE",
"171 45 LINE",
"171 136 LINE",
"265 137 LINE SMOOTH",
"363 138 OFFCURVE",
"433 208 OFFCURVE",
"433 305 CURVE SMOOTH",
"433 402 OFFCURVE",
"364 479 OFFCURVE",
"276 479 CURVE SMOOTH",
"171 479 LINE",
"171 555 LINE",
"286 592 LINE",
"284 600 LINE",
"28 600 LINE",
"26 592 LINE",
"136 555 LINE",
"136 45 LINE",
"20 8 LINE"
);
},
{
closed = 1;
nodes = (
"171 449 LINE",
"264 453 LINE SMOOTH",
"343 456 OFFCURVE",
"398 388 OFFCURVE",
"398 297 CURVE SMOOTH",
"398 220 OFFCURVE",
"348 160 OFFCURVE",
"274 164 CURVE SMOOTH",
"171 169 LINE"
);
}
);
width = 473;
}
);
leftKerningGroup = H;
leftMetricsKey = P;
rightKerningGroup = P;
rightMetricsKey = P;
unicode = 00DE;
},
{
glyphname = Q;
lastChange = "2022-09-24 15:20:26 +0000";
layers = (
{
associatedMasterId = "0CCC0E2D-406A-4672-8E6C-854B1DF78A27";
layerId = "37ACA70E-5713-4BE5-ACC0-CFF013DC889D";
name = "Mar 28 18, 15:13";
paths = (
{
closed = 1;
nodes = (
"744 -20 OFFCURVE",
"928 115 OFFCURVE",
"928 307 CURVE SMOOTH",
"928 493 OFFCURVE",
"752 625 OFFCURVE",
"504 625 CURVE SMOOTH",
"232 625 OFFCURVE",
"40 490 OFFCURVE",
"40 299 CURVE SMOOTH",
"40 112 OFFCURVE",
"224 -20 OFFCURVE",
"485 -20 CURVE SMOOTH"
);
},
{
closed = 1;
nodes = (
"289 25 OFFCURVE",
"120 145 OFFCURVE",
"120 325 CURVE SMOOTH",
"120 474 OFFCURVE",
"261 580 OFFCURVE",
"461 580 CURVE SMOOTH",
"688 580 OFFCURVE",
"848 457 OFFCURVE",
"848 282 CURVE SMOOTH",
"848 131 OFFCURVE",
"716 25 OFFCURVE",
"529 25 CURVE SMOOTH"
);
},
{
closed = 1;
nodes = (
"524 202 LINE",
"484 195 LINE",
"701 -158 LINE",
"786 -145 LINE"
);
}
);
width = 968;
},
{
associatedMasterId = "0CCC0E2D-406A-4672-8E6C-854B1DF78A27";
layerId = "047676F6-4566-4037-A2C9-BC1BAA19EAE7";
name = "Jun 9 18, 17:17";
paths = (
{
closed = 1;
nodes = (
"764 -20 OFFCURVE",
"948 115 OFFCURVE",
"948 307 CURVE SMOOTH",
"948 493 OFFCURVE",
"772 625 OFFCURVE",
"524 625 CURVE SMOOTH",
"252 625 OFFCURVE",
"60 490 OFFCURVE",
"60 299 CURVE SMOOTH",
"60 112 OFFCURVE",
"244 -20 OFFCURVE",
"505 -20 CURVE SMOOTH"
);
},
{
closed = 1;
nodes = (
"309 25 OFFCURVE",
"140 145 OFFCURVE",
"140 325 CURVE SMOOTH",
"140 474 OFFCURVE",
"281 580 OFFCURVE",
"481 580 CURVE SMOOTH",
"708 580 OFFCURVE",
"868 457 OFFCURVE",
"868 282 CURVE SMOOTH",
"868 131 OFFCURVE",
"736 25 OFFCURVE",
"549 25 CURVE SMOOTH"
);
},
{
closed = 1;
nodes = (
"463 172 LINE",
"829 -163 LINE",
"860 -137 LINE",
"531 229 LINE"
);
}
);
width = 1008;
},
{
associatedMasterId = "0CCC0E2D-406A-4672-8E6C-854B1DF78A27";
layerId = "1AC5EE05-1C4B-4860-A927-501E2FFF3073";
name = "Mar 28 18, 15:13";
paths = (
{
closed = 1;
nodes = (
"744 -20 OFFCURVE",
"928 115 OFFCURVE",
"928 307 CURVE SMOOTH",
"928 493 OFFCURVE",
"752 625 OFFCURVE",
"504 625 CURVE SMOOTH",
"232 625 OFFCURVE",
"40 490 OFFCURVE",
"40 299 CURVE SMOOTH",
"40 112 OFFCURVE",
"224 -20 OFFCURVE",
"485 -20 CURVE SMOOTH"
);
},
{
closed = 1;
nodes = (
"289 25 OFFCURVE",
"120 145 OFFCURVE",
"120 325 CURVE SMOOTH",
"120 474 OFFCURVE",
"261 580 OFFCURVE",
"461 580 CURVE SMOOTH",
"688 580 OFFCURVE",
"848 457 OFFCURVE",
"848 282 CURVE SMOOTH",
"848 131 OFFCURVE",
"716 25 OFFCURVE",
"529 25 CURVE SMOOTH"
);
},
{
closed = 1;
nodes = (
"524 202 LINE",
"484 195 LINE",
"701 -158 LINE",
"786 -145 LINE"
);
}
);
width = 968;
},
{
associatedMasterId = "0CCC0E2D-406A-4672-8E6C-854B1DF78A27";
layerId = "65FE9274-A69F-4605-954C-5F86FE1E3C13";
name = "Jun 9 18, 17:17";
paths = (
{
closed = 1;
nodes = (
"764 -20 OFFCURVE",
"948 115 OFFCURVE",
"948 307 CURVE SMOOTH",
"948 493 OFFCURVE",
"772 625 OFFCURVE",
"524 625 CURVE SMOOTH",
"252 625 OFFCURVE",
"60 490 OFFCURVE",
"60 299 CURVE SMOOTH",
"60 112 OFFCURVE",
"244 -20 OFFCURVE",
"505 -20 CURVE SMOOTH"
);
},
{
closed = 1;
nodes = (
"309 25 OFFCURVE",
"140 145 OFFCURVE",
"140 325 CURVE SMOOTH",
"140 474 OFFCURVE",
"281 580 OFFCURVE",
"481 580 CURVE SMOOTH",
"708 580 OFFCURVE",
"868 457 OFFCURVE",
"868 282 CURVE SMOOTH",
"868 131 OFFCURVE",
"736 25 OFFCURVE",
"549 25 CURVE SMOOTH"
);
},
{
closed = 1;
nodes = (
"463 172 LINE",
"829 -163 LINE",
"860 -137 LINE",
"531 229 LINE"
);
}
);
width = 1008;
},
{
associatedMasterId = "0CCC0E2D-406A-4672-8E6C-854B1DF78A27";
layerId = "81BB2019-E811-4380-A657-0C2A9AD5BC57";
name = "8 Dec 21, 16:04";
paths = (
{
closed = 1;
nodes = (
"40 112 OFFCURVE",
"224 -20 OFFCURVE",
"485 -20 CURVE SMOOTH",
"538 -20 OFFCURVE",
"589 -14 OFFCURVE",
"635 -3 CURVE",
"809 -163 LINE",
"840 -137 LINE",
"702 17 LINE",
"841 70 OFFCURVE",
"928 175 OFFCURVE",
"928 307 CURVE SMOOTH",
"928 493 OFFCURVE",
"752 625 OFFCURVE",
"504 625 CURVE SMOOTH",
"232 625 OFFCURVE",
"40 490 OFFCURVE",
"40 299 CURVE SMOOTH"
);
},
{
closed = 1;
nodes = (
"120 474 OFFCURVE",
"244 580 OFFCURVE",
"461 580 CURVE SMOOTH",
"689 580 OFFCURVE",
"848 457 OFFCURVE",
"848 282 CURVE SMOOTH",
"848 172 OFFCURVE",
"788 85 OFFCURVE",
"675 47 CURVE",
"511 229 LINE",
"443 172 LINE",
"599 29 LINE",
"577 27 OFFCURVE",
"554 25 OFFCURVE",
"529 25 CURVE SMOOTH",
"289 25 OFFCURVE",
"120 145 OFFCURVE",
"120 325 CURVE SMOOTH"
);
}
);
width = 968;
},
{
anchors = (
{
name = bottom;
position = "{484, 0}";
},
{
name = top;
position = "{484, 600}";
}
);
associatedMasterId = "0CCC0E2D-406A-4672-8E6C-854B1DF78A27";
components = (
{
name = O;
}
);
layerId = "E5726C61-028B-4038-916C-25E98D51B7DA";
name = "16 Dec 21, 11:59";
paths = (
{
closed = 1;
nodes = (
"568 204 OFFCURVE",
"661 128 OFFCURVE",
"852 -117 CURVE",
"878 -98 LINE",
"733 140 OFFCURVE",
"623 255 OFFCURVE",
"445 255 CURVE SMOOTH",
"318 255 OFFCURVE",
"228 225 OFFCURVE",
"133 140 CURVE",
"153 94 LINE",
"241 173 OFFCURVE",
"312 204 OFFCURVE",
"410 204 CURVE SMOOTH"
);
}
);
width = 968;
},
{
anchors = (
{
name = bottom;
position = "{484, 0}";
},
{
name = center;
position = "{461, 300}";
},
{
name = ogonek;
position = "{848, 10}";
},
{
name = top;
position = "{484, 600}";
},
{
name = topleft;
position = "{-3, 600}";
},
{
name = topright;
position = "{925, 600}";
}
);
layerId = "0CCC0E2D-406A-4672-8E6C-854B1DF78A27";
name = Extended;
paths = (
{
closed = 1;
nodes = (
"579 205 OFFCURVE",
"696 119 OFFCURVE",
"696 2 CURVE SMOOTH",
"696 -65 OFFCURVE",
"664 -140 OFFCURVE",
"602 -202 CURVE",
"612 -212 LINE",
"686 -158 OFFCURVE",
"732 -72 OFFCURVE",
"732 12 CURVE SMOOTH",
"732 143 OFFCURVE",
"606 240 OFFCURVE",
"435 240 CURVE SMOOTH",
"323 240 OFFCURVE",
"212 198 OFFCURVE",
"133 125 CURVE",
"153 100 LINE",
"231 169 OFFCURVE",
"327 205 OFFCURVE",
"425 205 CURVE SMOOTH"
);
},
{
closed = 1;
nodes = (
"718 -20 OFFCURVE",
"882 107 OFFCURVE",
"882 297 CURVE SMOOTH",
"882 494 OFFCURVE",
"718 625 OFFCURVE",
"471 625 CURVE SMOOTH",
"212 625 OFFCURVE",
"40 499 OFFCURVE",
"40 309 CURVE SMOOTH",
"40 112 OFFCURVE",
"213 -20 OFFCURVE",
"472 -20 CURVE SMOOTH"
);
},
{
closed = 1;
nodes = (
"240 15 OFFCURVE",
"82 135 OFFCURVE",
"82 315 CURVE SMOOTH",
"82 480 OFFCURVE",
"236 590 OFFCURVE",
"468 590 CURVE SMOOTH",
"691 590 OFFCURVE",
"840 471 OFFCURVE",
"840 292 CURVE SMOOTH",
"840 126 OFFCURVE",
"694 15 OFFCURVE",
"476 15 CURVE SMOOTH"
);
}
);
width = 927;
},
{
associatedMasterId = m002;
layerId = "EF7AD874-CB00-4657-8BCE-EC0829BD2124";
name = "Mar 28 18, 15:13";
paths = (
{
closed = 1;
nodes = (
"744 -20 OFFCURVE",
"928 115 OFFCURVE",
"928 307 CURVE SMOOTH",
"928 493 OFFCURVE",
"752 625 OFFCURVE",
"504 625 CURVE SMOOTH",
"232 625 OFFCURVE",
"40 490 OFFCURVE",
"40 299 CURVE SMOOTH",
"40 112 OFFCURVE",
"224 -20 OFFCURVE",
"485 -20 CURVE SMOOTH"
);
},
{
closed = 1;
nodes = (
"289 25 OFFCURVE",
"120 145 OFFCURVE",
"120 325 CURVE SMOOTH",
"120 474 OFFCURVE",
"261 580 OFFCURVE",
"461 580 CURVE SMOOTH",
"688 580 OFFCURVE",
"848 457 OFFCURVE",
"848 282 CURVE SMOOTH",
"848 131 OFFCURVE",
"716 25 OFFCURVE",
"529 25 CURVE SMOOTH"
);
},
{
closed = 1;
nodes = (
"524 202 LINE",
"484 195 LINE",
"701 -158 LINE",
"786 -145 LINE"
);
}
);
width = 968;
},
{
associatedMasterId = m002;
layerId = "D331C81A-C313-4B7E-94FC-1031B7FE440B";
name = "Jun 9 18, 17:17";
paths = (
{
closed = 1;
nodes = (
"764 -20 OFFCURVE",
"948 115 OFFCURVE",
"948 307 CURVE SMOOTH",
"948 493 OFFCURVE",
"772 625 OFFCURVE",
"524 625 CURVE SMOOTH",
"252 625 OFFCURVE",
"60 490 OFFCURVE",
"60 299 CURVE SMOOTH",
"60 112 OFFCURVE",
"244 -20 OFFCURVE",
"505 -20 CURVE SMOOTH"
);
},
{
closed = 1;
nodes = (
"309 25 OFFCURVE",
"140 145 OFFCURVE",
"140 325 CURVE SMOOTH",
"140 474 OFFCURVE",
"281 580 OFFCURVE",
"481 580 CURVE SMOOTH",
"708 580 OFFCURVE",
"868 457 OFFCURVE",
"868 282 CURVE SMOOTH",
"868 131 OFFCURVE",
"736 25 OFFCURVE",
"549 25 CURVE SMOOTH"
);
},
{
closed = 1;
nodes = (
"463 172 LINE",
"829 -163 LINE",
"860 -137 LINE",
"531 229 LINE"
);
}
);
width = 1008;
},
{
associatedMasterId = m002;
layerId = "D2B8386D-5C59-4216-A6B2-B5023A7B5E33";
name = "Mar 28 18, 15:13";
paths = (
{
closed = 1;
nodes = (
"744 -20 OFFCURVE",
"928 115 OFFCURVE",
"928 307 CURVE SMOOTH",
"928 493 OFFCURVE",
"752 625 OFFCURVE",
"504 625 CURVE SMOOTH",
"232 625 OFFCURVE",
"40 490 OFFCURVE",
"40 299 CURVE SMOOTH",
"40 112 OFFCURVE",
"224 -20 OFFCURVE",
"485 -20 CURVE SMOOTH"
);
},
{
closed = 1;
nodes = (
"289 25 OFFCURVE",
"120 145 OFFCURVE",
"120 325 CURVE SMOOTH",
"120 474 OFFCURVE",
"261 580 OFFCURVE",
"461 580 CURVE SMOOTH",
"688 580 OFFCURVE",
"848 457 OFFCURVE",
"848 282 CURVE SMOOTH",
"848 131 OFFCURVE",
"716 25 OFFCURVE",
"529 25 CURVE SMOOTH"
);
},
{
closed = 1;
nodes = (
"524 202 LINE",
"484 195 LINE",
"701 -158 LINE",
"786 -145 LINE"
);
}
);
width = 968;
},
{
associatedMasterId = m002;
layerId = "D5F57928-6493-40A8-AA00-5C744BC4C704";
name = "Jun 9 18, 17:17";
paths = (
{
closed = 1;
nodes = (
"764 -20 OFFCURVE",
"948 115 OFFCURVE",
"948 307 CURVE SMOOTH",
"948 493 OFFCURVE",
"772 625 OFFCURVE",
"524 625 CURVE SMOOTH",
"252 625 OFFCURVE",
"60 490 OFFCURVE",
"60 299 CURVE SMOOTH",
"60 112 OFFCURVE",
"244 -20 OFFCURVE",
"505 -20 CURVE SMOOTH"
);
},
{
closed = 1;
nodes = (
"309 25 OFFCURVE",
"140 145 OFFCURVE",
"140 325 CURVE SMOOTH",
"140 474 OFFCURVE",
"281 580 OFFCURVE",
"481 580 CURVE SMOOTH",
"708 580 OFFCURVE",
"868 457 OFFCURVE",
"868 282 CURVE SMOOTH",
"868 131 OFFCURVE",
"736 25 OFFCURVE",
"549 25 CURVE SMOOTH"
);
},
{
closed = 1;
nodes = (
"463 172 LINE",
"829 -163 LINE",
"860 -137 LINE",
"531 229 LINE"
);
}
);
width = 1008;
},
{
associatedMasterId = m002;
layerId = "712C5D4C-FAE0-4027-98FA-5F35D423EB8D";
name = "8 Dec 21, 16:04";
paths = (
{
closed = 1;
nodes = (
"40 112 OFFCURVE",
"224 -20 OFFCURVE",
"485 -20 CURVE SMOOTH",
"538 -20 OFFCURVE",
"589 -14 OFFCURVE",
"635 -3 CURVE",
"809 -163 LINE",
"840 -137 LINE",
"702 17 LINE",
"841 70 OFFCURVE",
"928 175 OFFCURVE",
"928 307 CURVE SMOOTH",
"928 493 OFFCURVE",
"752 625 OFFCURVE",
"504 625 CURVE SMOOTH",
"232 625 OFFCURVE",
"40 490 OFFCURVE",
"40 299 CURVE SMOOTH"
);
},
{
closed = 1;
nodes = (
"120 474 OFFCURVE",
"244 580 OFFCURVE",
"461 580 CURVE SMOOTH",
"689 580 OFFCURVE",
"848 457 OFFCURVE",
"848 282 CURVE SMOOTH",
"848 172 OFFCURVE",
"788 85 OFFCURVE",
"675 47 CURVE",
"511 229 LINE",
"443 172 LINE",
"599 29 LINE",
"577 27 OFFCURVE",
"554 25 OFFCURVE",
"529 25 CURVE SMOOTH",
"289 25 OFFCURVE",
"120 145 OFFCURVE",
"120 325 CURVE SMOOTH"
);
}
);
width = 968;
},
{
anchors = (
{
name = bottom;
position = "{484, 0}";
},
{
name = top;
position = "{484, 600}";
}
);
associatedMasterId = m002;
components = (
{
name = O;
}
);
layerId = "2985386E-6012-4042-9DD9-61390526335B";
name = "16 Dec 21, 11:59";
paths = (
{
closed = 1;
nodes = (
"568 204 OFFCURVE",
"661 128 OFFCURVE",
"852 -117 CURVE",
"878 -98 LINE",
"733 140 OFFCURVE",
"623 255 OFFCURVE",
"445 255 CURVE SMOOTH",
"318 255 OFFCURVE",
"228 225 OFFCURVE",
"133 140 CURVE",
"153 94 LINE",
"241 173 OFFCURVE",
"312 204 OFFCURVE",
"410 204 CURVE SMOOTH"
);
}
);
width = 968;
},
{
anchors = (
{
name = bottom;
position = "{484, 0}";
},
{
name = center;
position = "{481, 300}";
},
{
name = ogonek;
position = "{868, 10}";
},
{
name = top;
position = "{484, 600}";
},
{
name = topleft;
position = "{17, 600}";
},
{
name = topright;
position = "{945, 600}";
}
);
layerId = m002;
name = Extended;
paths = (
{
closed = 1;
nodes = (
"563 204 OFFCURVE",
"679 100 OFFCURVE",
"679 -44 CURVE SMOOTH",
"679 -118 OFFCURVE",
"648 -182 OFFCURVE",
"602 -202 CURVE",
"612 -212 LINE",
"703 -183 OFFCURVE",
"768 -89 OFFCURVE",
"768 12 CURVE SMOOTH",
"768 156 OFFCURVE",
"638 256 OFFCURVE",
"451 256 CURVE SMOOTH",
"330 256 OFFCURVE",
"221 214 OFFCURVE",
"133 133 CURVE",
"153 91 LINE",
"240 171 OFFCURVE",
"312 204 OFFCURVE",
"402 204 CURVE SMOOTH"
);
},
{
closed = 1;
nodes = (
"733 -20 OFFCURVE",
"938 127 OFFCURVE",
"938 313 CURVE SMOOTH",
"938 506 OFFCURVE",
"773 625 OFFCURVE",
"507 625 CURVE SMOOTH",
"240 625 OFFCURVE",
"24 478 OFFCURVE",
"24 293 CURVE SMOOTH",
"24 99 OFFCURVE",
"196 -20 OFFCURVE",
"476 -20 CURVE SMOOTH"
);
},
{
closed = 1;
nodes = (
"277 31 OFFCURVE",
"126 147 OFFCURVE",
"126 331 CURVE SMOOTH",
"126 483 OFFCURVE",
"257 574 OFFCURVE",
"472 574 CURVE SMOOTH",
"697 574 OFFCURVE",
"836 462 OFFCURVE",
"836 276 CURVE SMOOTH",
"836 117 OFFCURVE",
"723 31 OFFCURVE",
"512 31 CURVE SMOOTH"
);
}
);
width = 967;
},
{
associatedMasterId = m003;
layerId = "087D7EDF-81EE-4F90-B614-AADC1B080DA8";
name = "Mar 28 18, 15:13";
paths = (
{
closed = 1;
nodes = (
"744 -20 OFFCURVE",
"928 115 OFFCURVE",
"928 307 CURVE SMOOTH",
"928 493 OFFCURVE",
"752 625 OFFCURVE",
"504 625 CURVE SMOOTH",
"232 625 OFFCURVE",
"40 490 OFFCURVE",
"40 299 CURVE SMOOTH",
"40 112 OFFCURVE",
"224 -20 OFFCURVE",
"485 -20 CURVE SMOOTH"
);
},
{
closed = 1;
nodes = (
"289 25 OFFCURVE",
"120 145 OFFCURVE",
"120 325 CURVE SMOOTH",
"120 474 OFFCURVE",
"261 580 OFFCURVE",
"461 580 CURVE SMOOTH",
"688 580 OFFCURVE",
"848 457 OFFCURVE",
"848 282 CURVE SMOOTH",
"848 131 OFFCURVE",
"716 25 OFFCURVE",
"529 25 CURVE SMOOTH"
);
},
{
closed = 1;
nodes = (
"524 202 LINE",
"484 195 LINE",
"701 -158 LINE",
"786 -145 LINE"
);
}
);
width = 968;
},
{
associatedMasterId = m003;
layerId = "BD8D46B9-C8F6-4BFC-9EB8-17F28EFFEDAC";
name = "Jun 9 18, 17:17";
paths = (
{
closed = 1;
nodes = (
"764 -20 OFFCURVE",
"948 115 OFFCURVE",
"948 307 CURVE SMOOTH",
"948 493 OFFCURVE",
"772 625 OFFCURVE",
"524 625 CURVE SMOOTH",
"252 625 OFFCURVE",
"60 490 OFFCURVE",
"60 299 CURVE SMOOTH",
"60 112 OFFCURVE",
"244 -20 OFFCURVE",
"505 -20 CURVE SMOOTH"
);
},
{
closed = 1;
nodes = (
"309 25 OFFCURVE",
"140 145 OFFCURVE",
"140 325 CURVE SMOOTH",
"140 474 OFFCURVE",
"281 580 OFFCURVE",
"481 580 CURVE SMOOTH",
"708 580 OFFCURVE",
"868 457 OFFCURVE",
"868 282 CURVE SMOOTH",
"868 131 OFFCURVE",
"736 25 OFFCURVE",
"549 25 CURVE SMOOTH"
);
},
{
closed = 1;
nodes = (
"463 172 LINE",
"829 -163 LINE",
"860 -137 LINE",
"531 229 LINE"
);
}
);
width = 1008;
},
{
associatedMasterId = m003;
layerId = "88BC52F5-D8A2-4BA7-BBA2-AEB146113B1C";
name = "Mar 28 18, 15:13";
paths = (
{
closed = 1;
nodes = (
"744 -20 OFFCURVE",
"928 115 OFFCURVE",
"928 307 CURVE SMOOTH",
"928 493 OFFCURVE",
"752 625 OFFCURVE",
"504 625 CURVE SMOOTH",
"232 625 OFFCURVE",
"40 490 OFFCURVE",
"40 299 CURVE SMOOTH",
"40 112 OFFCURVE",
"224 -20 OFFCURVE",
"485 -20 CURVE SMOOTH"
);
},
{
closed = 1;
nodes = (
"289 25 OFFCURVE",
"120 145 OFFCURVE",
"120 325 CURVE SMOOTH",
"120 474 OFFCURVE",
"261 580 OFFCURVE",
"461 580 CURVE SMOOTH",
"688 580 OFFCURVE",
"848 457 OFFCURVE",
"848 282 CURVE SMOOTH",
"848 131 OFFCURVE",
"716 25 OFFCURVE",
"529 25 CURVE SMOOTH"
);
},
{
closed = 1;
nodes = (
"524 202 LINE",
"484 195 LINE",
"701 -158 LINE",
"786 -145 LINE"
);
}
);
width = 968;
},
{
associatedMasterId = m003;
layerId = "35D681DB-F282-474F-9116-DEBCD07AC371";
name = "Jun 9 18, 17:17";
paths = (
{
closed = 1;
nodes = (
"764 -20 OFFCURVE",
"948 115 OFFCURVE",
"948 307 CURVE SMOOTH",
"948 493 OFFCURVE",
"772 625 OFFCURVE",
"524 625 CURVE SMOOTH",
"252 625 OFFCURVE",
"60 490 OFFCURVE",
"60 299 CURVE SMOOTH",
"60 112 OFFCURVE",
"244 -20 OFFCURVE",
"505 -20 CURVE SMOOTH"
);
},
{
closed = 1;
nodes = (
"309 25 OFFCURVE",
"140 145 OFFCURVE",
"140 325 CURVE SMOOTH",
"140 474 OFFCURVE",
"281 580 OFFCURVE",
"481 580 CURVE SMOOTH",
"708 580 OFFCURVE",
"868 457 OFFCURVE",
"868 282 CURVE SMOOTH",
"868 131 OFFCURVE",
"736 25 OFFCURVE",
"549 25 CURVE SMOOTH"
);
},
{
closed = 1;
nodes = (
"463 172 LINE",
"829 -163 LINE",
"860 -137 LINE",
"531 229 LINE"
);
}
);
width = 1008;
},
{
associatedMasterId = m003;
layerId = "2C38DAAC-416F-4C23-BC84-75CF1D76DBAB";
name = "8 Dec 21, 16:04";
paths = (
{
closed = 1;
nodes = (
"40 112 OFFCURVE",
"224 -20 OFFCURVE",
"485 -20 CURVE SMOOTH",
"538 -20 OFFCURVE",
"589 -14 OFFCURVE",
"635 -3 CURVE",
"809 -163 LINE",
"840 -137 LINE",
"702 17 LINE",
"841 70 OFFCURVE",
"928 175 OFFCURVE",
"928 307 CURVE SMOOTH",
"928 493 OFFCURVE",
"752 625 OFFCURVE",
"504 625 CURVE SMOOTH",
"232 625 OFFCURVE",
"40 490 OFFCURVE",
"40 299 CURVE SMOOTH"
);
},
{
closed = 1;
nodes = (
"120 474 OFFCURVE",
"244 580 OFFCURVE",
"461 580 CURVE SMOOTH",
"689 580 OFFCURVE",
"848 457 OFFCURVE",
"848 282 CURVE SMOOTH",
"848 172 OFFCURVE",
"788 85 OFFCURVE",
"675 47 CURVE",
"511 229 LINE",
"443 172 LINE",
"599 29 LINE",
"577 27 OFFCURVE",
"554 25 OFFCURVE",
"529 25 CURVE SMOOTH",
"289 25 OFFCURVE",
"120 145 OFFCURVE",
"120 325 CURVE SMOOTH"
);
}
);
width = 968;
},
{
anchors = (
{
name = bottom;
position = "{484, 0}";
},
{
name = top;
position = "{484, 600}";
}
);
associatedMasterId = m003;
components = (
{
name = O;
}
);
layerId = "5AAA4791-3826-4F9E-8AA3-A9508B7137EF";
name = "16 Dec 21, 11:59";
paths = (
{
closed = 1;
nodes = (
"568 204 OFFCURVE",
"661 128 OFFCURVE",
"852 -117 CURVE",
"878 -98 LINE",
"733 140 OFFCURVE",
"623 255 OFFCURVE",
"445 255 CURVE SMOOTH",
"318 255 OFFCURVE",
"228 225 OFFCURVE",
"133 140 CURVE",
"153 94 LINE",
"241 173 OFFCURVE",
"312 204 OFFCURVE",
"410 204 CURVE SMOOTH"
);
}
);
width = 968;
},
{
anchors = (
{
name = bottom;
position = "{263, 0}";
},
{
name = center;
position = "{261, 300}";
},
{
name = ogonek;
position = "{343, 10}";
},
{
name = top;
position = "{263, 600}";
},
{
name = topleft;
position = "{7, 600}";
},
{
name = topright;
position = "{420, 600}";
}
);
layerId = m003;
name = Extended;
paths = (
{
closed = 1;
nodes = (
"245 203 OFFCURVE",
"280 145 OFFCURVE",
"280 48 CURVE SMOOTH",
"280 -53 OFFCURVE",
"242 -130 OFFCURVE",
"162 -193 CURVE",
"171 -202 LINE",
"283 -149 OFFCURVE",
"352 -37 OFFCURVE",
"352 92 CURVE SMOOTH",
"352 197 OFFCURVE",
"309 252 OFFCURVE",
"227 252 CURVE SMOOTH",
"159 252 OFFCURVE",
"111 215 OFFCURVE",
"98 161 CURVE",
"111 143 LINE",
"130 187 OFFCURVE",
"155 203 OFFCURVE",
"186 203 CURVE SMOOTH"
);
},
{
closed = 1;
nodes = (
"406 -20 OFFCURVE",
"496 115 OFFCURVE",
"496 309 CURVE SMOOTH",
"496 492 OFFCURVE",
"415 620 OFFCURVE",
"272 620 CURVE SMOOTH",
"116 620 OFFCURVE",
"26 488 OFFCURVE",
"26 298 CURVE SMOOTH",
"26 111 OFFCURVE",
"107 -20 OFFCURVE",
"250 -20 CURVE SMOOTH"
);
},
{
closed = 1;
nodes = (
"167 26 OFFCURVE",
"106 152 OFFCURVE",
"106 327 CURVE SMOOTH",
"106 471 OFFCURVE",
"163 574 OFFCURVE",
"250 574 CURVE SMOOTH",
"355 574 OFFCURVE",
"416 452 OFFCURVE",
"416 281 CURVE SMOOTH",
"416 132 OFFCURVE",
"358 26 OFFCURVE",
"273 26 CURVE SMOOTH"
);
}
);
width = 529;
},
{
anchors = (
{
name = bottom;
position = "{264, 0}";
},
{
name = top;
position = "{264, 600}";
}
);
associatedMasterId = m003;
components = (
{
name = O;
}
);
layerId = "1D6F2FB5-EE0D-492B-AB5A-8E0B0C038722";
name = "12 Mar 22, 12:54";
paths = (
{
closed = 1;
nodes = (
"258 204 OFFCURVE",
"315 125 OFFCURVE",
"315 32 CURVE SMOOTH",
"315 -44 OFFCURVE",
"275 -112 OFFCURVE",
"182 -192 CURVE",
"192 -202 LINE",
"309 -137 OFFCURVE",
"380 -34 OFFCURVE",
"380 72 CURVE SMOOTH",
"380 176 OFFCURVE",
"315 250 OFFCURVE",
"225 250 CURVE SMOOTH",
"163 250 OFFCURVE",
"113 216 OFFCURVE",
"93 160 CURVE",
"106 144 LINE",
"129 185 OFFCURVE",
"157 204 OFFCURVE",
"190 204 CURVE SMOOTH"
);
}
);
width = 523;
},
{
anchors = (
{
name = bottom;
position = "{269, 0}";
},
{
name = center;
position = "{250, 300}";
},
{
name = ogonek;
position = "{332, 10}";
},
{
name = top;
position = "{269, 600}";
},
{
name = topleft;
position = "{-4, 600}";
},
{
name = topright;
position = "{409, 600}";
}
);
layerId = "2C26E880-80A5-4D19-8A94-7D905A372841";
name = Extended;
paths = (
{
closed = 1;
nodes = (
"263 207 OFFCURVE",
"306 149 OFFCURVE",
"306 70 CURVE SMOOTH",
"306 -7 OFFCURVE",
"266 -80 OFFCURVE",
"162 -189 CURVE",
"176 -204 LINE",
"286 -104 OFFCURVE",
"341 -6 OFFCURVE",
"341 92 CURVE SMOOTH",
"341 182 OFFCURVE",
"292 241 OFFCURVE",
"217 241 CURVE SMOOTH",
"165 241 OFFCURVE",
"118 213 OFFCURVE",
"74 155 CURVE",
"87 150 LINE",
"128 187 OFFCURVE",
"169 207 OFFCURVE",
"205 207 CURVE SMOOTH"
);
},
{
closed = 1;
nodes = (
"382 -20 OFFCURVE",
"455 94 OFFCURVE",
"455 298 CURVE SMOOTH",
"455 505 OFFCURVE",
"384 620 OFFCURVE",
"255 620 CURVE SMOOTH",
"120 620 OFFCURVE",
"45 507 OFFCURVE",
"45 303 CURVE SMOOTH",
"45 95 OFFCURVE",
"118 -20 OFFCURVE",
"250 -20 CURVE SMOOTH"
);
},
{
closed = 1;
nodes = (
"145 11 OFFCURVE",
"79 121 OFFCURVE",
"79 316 CURVE SMOOTH",
"79 491 OFFCURVE",
"142 588 OFFCURVE",
"250 588 CURVE SMOOTH",
"358 588 OFFCURVE",
"421 481 OFFCURVE",
"421 287 CURVE SMOOTH",
"421 110 OFFCURVE",
"361 11 OFFCURVE",
"257 11 CURVE SMOOTH"
);
}
);
width = 500;
}
);
leftKerningGroup = O;
leftMetricsKey = O;
rightKerningGroup = O;
rightMetricsKey = O;
unicode = 0051;
},
{
glyphname = R;
lastChange = "2022-09-25 12:18:03 +0000";
layers = (
{
associatedMasterId = "0CCC0E2D-406A-4672-8E6C-854B1DF78A27";
layerId = "F3BBF246-7A5F-47B7-9EE5-022757B0F994";
name = "Extended Mar 31 18, 15:49";
paths = (
{
closed = 1;
nodes = (
"190 550 LINE",
"190 50 LINE",
"40 3 LINE",
"42 0 LINE",
"414 0 LINE",
"416 4 LINE",
"266 50 LINE",
"265 550 LINE",
"265 600 LINE",
"42 600 LINE",
"40 597 LINE"
);
},
{
closed = 1;
nodes = (
"551 267 LINE",
"909 -68 LINE",
"958 -58 LINE",
"657 277 LINE"
);
},
{
closed = 1;
nodes = (
"620 560 LINE SMOOTH",
"761 560 OFFCURVE",
"876 538 OFFCURVE",
"876 416 CURVE SMOOTH",
"876 323 OFFCURVE",
"768 293 OFFCURVE",
"640 293 CURVE",
"226 292 LINE",
"226 253 LINE",
"650 254 LINE SMOOTH",
"842 255 OFFCURVE",
"956 305 OFFCURVE",
"956 430 CURVE SMOOTH",
"956 551 OFFCURVE",
"842 600 OFFCURVE",
"650 600 CURVE SMOOTH",
"211 600 LINE",
"211 560 LINE"
);
}
);
width = 996;
},
{
anchors = (
{
name = bottom;
position = "{480, 0}";
},
{
name = top;
position = "{460, 600}";
}
);
layerId = "0CCC0E2D-406A-4672-8E6C-854B1DF78A27";
paths = (
{
closed = 1;
nodes = (
"568 276 LINE SMOOTH",
"766 277 OFFCURVE",
"839 337 OFFCURVE",
"839 436 CURVE SMOOTH",
"839 544 OFFCURVE",
"743 600 OFFCURVE",
"558 600 CURVE SMOOTH",
"32 600 LINE",
"30 592 LINE",
"180 550 LINE",
"180 50 LINE",
"40 8 LINE",
"42 0 LINE",
"406 0 LINE",
"408 8 LINE",
"217 52 LINE",
"217 275 LINE"
);
},
{
closed = 1;
nodes = (
"217 573 LINE",
"558 573 LINE SMOOTH",
"718 573 OFFCURVE",
"801 523 OFFCURVE",
"801 428 CURVE SMOOTH",
"801 361 OFFCURVE",
"760 305 OFFCURVE",
"578 305 CURVE SMOOTH",
"217 305 LINE"
);
},
{
closed = 1;
nodes = (
"538 285 LINE",
"679 50 LINE",
"539 8 LINE",
"541 0 LINE",
"878 0 LINE",
"880 8 LINE",
"720 50 LINE",
"579 285 LINE"
);
}
);
width = 895;
},
{
associatedMasterId = "0CCC0E2D-406A-4672-8E6C-854B1DF78A27";
layerId = "54BA13CA-5A69-4900-A9F3-01EF8D357D37";
name = "Extended Mar 31 18, 15:49";
paths = (
{
closed = 1;
nodes = (
"190 550 LINE",
"190 50 LINE",
"40 3 LINE",
"42 0 LINE",
"414 0 LINE",
"416 4 LINE",
"266 50 LINE",
"265 550 LINE",
"265 600 LINE",
"42 600 LINE",
"40 597 LINE"
);
},
{
closed = 1;
nodes = (
"551 267 LINE",
"909 -68 LINE",
"958 -58 LINE",
"657 277 LINE"
);
},
{
closed = 1;
nodes = (
"620 560 LINE SMOOTH",
"761 560 OFFCURVE",
"876 538 OFFCURVE",
"876 416 CURVE SMOOTH",
"876 323 OFFCURVE",
"768 293 OFFCURVE",
"640 293 CURVE",
"226 292 LINE",
"226 253 LINE",
"650 254 LINE SMOOTH",
"842 255 OFFCURVE",
"956 305 OFFCURVE",
"956 430 CURVE SMOOTH",
"956 551 OFFCURVE",
"842 600 OFFCURVE",
"650 600 CURVE SMOOTH",
"211 600 LINE",
"211 560 LINE"
);
}
);
width = 996;
},
{
associatedMasterId = m002;
layerId = "27EFD73D-BDE1-42BE-89E3-4AFFE868A76E";
name = "Extended Mar 31 18, 15:49";
paths = (
{
closed = 1;
nodes = (
"190 550 LINE",
"190 50 LINE",
"40 3 LINE",
"42 0 LINE",
"414 0 LINE",
"416 4 LINE",
"266 50 LINE",
"265 550 LINE",
"265 600 LINE",
"42 600 LINE",
"40 597 LINE"
);
},
{
closed = 1;
nodes = (
"551 267 LINE",
"909 -68 LINE",
"958 -58 LINE",
"657 277 LINE"
);
},
{
closed = 1;
nodes = (
"620 560 LINE SMOOTH",
"761 560 OFFCURVE",
"876 538 OFFCURVE",
"876 416 CURVE SMOOTH",
"876 323 OFFCURVE",
"768 293 OFFCURVE",
"640 293 CURVE",
"226 292 LINE",
"226 253 LINE",
"650 254 LINE SMOOTH",
"842 255 OFFCURVE",
"956 305 OFFCURVE",
"956 430 CURVE SMOOTH",
"956 551 OFFCURVE",
"842 600 OFFCURVE",
"650 600 CURVE SMOOTH",
"211 600 LINE",
"211 560 LINE"
);
}
);
width = 996;
},
{
anchors = (
{
name = bottom;
position = "{502, 0}";
},
{
name = top;
position = "{482, 600}";
}
);
layerId = m002;
paths = (
{
closed = 1;
nodes = (
"650 262 LINE SMOOTH",
"783 263 OFFCURVE",
"911 326 OFFCURVE",
"911 436 CURVE SMOOTH",
"911 563 OFFCURVE",
"788 600 OFFCURVE",
"592 600 CURVE SMOOTH",
"16 600 LINE",
"14 592 LINE",
"164 550 LINE",
"164 50 LINE",
"40 4 LINE",
"42 0 LINE",
"418 0 LINE",
"420 5 LINE",
"262 49 LINE",
"262 258 LINE"
);
},
{
closed = 1;
nodes = (
"260 553 LINE",
"545 553 LINE SMOOTH",
"672 553 OFFCURVE",
"809 555 OFFCURVE",
"809 419 CURVE SMOOTH",
"809 328 OFFCURVE",
"701 305 OFFCURVE",
"565 308 CURVE SMOOTH",
"260 314 LINE"
);
},
{
closed = 1;
nodes = (
"532 285 LINE",
"685 50 LINE",
"545 8 LINE",
"547 0 LINE",
"958 0 LINE",
"960 8 LINE",
"800 50 LINE",
"643 285 LINE"
);
}
);
width = 985;
},
{
associatedMasterId = m002;
layerId = "F9024B12-2AC0-43D4-B65C-CC7BB46488A1";
name = "Extended Mar 31 18, 15:49";
paths = (
{
closed = 1;
nodes = (
"190 550 LINE",
"190 50 LINE",
"40 3 LINE",
"42 0 LINE",
"414 0 LINE",
"416 4 LINE",
"266 50 LINE",
"265 550 LINE",
"265 600 LINE",
"42 600 LINE",
"40 597 LINE"
);
},
{
closed = 1;
nodes = (
"551 267 LINE",
"909 -68 LINE",
"958 -58 LINE",
"657 277 LINE"
);
},
{
closed = 1;
nodes = (
"620 560 LINE SMOOTH",
"761 560 OFFCURVE",
"876 538 OFFCURVE",
"876 416 CURVE SMOOTH",
"876 323 OFFCURVE",
"768 293 OFFCURVE",
"640 293 CURVE",
"226 292 LINE",
"226 253 LINE",
"650 254 LINE SMOOTH",
"842 255 OFFCURVE",
"956 305 OFFCURVE",
"956 430 CURVE SMOOTH",
"956 551 OFFCURVE",
"842 600 OFFCURVE",
"650 600 CURVE SMOOTH",
"211 600 LINE",
"211 560 LINE"
);
}
);
width = 996;
},
{
associatedMasterId = m003;
layerId = "3559C86F-44CC-4889-900D-CF986CC5DF0D";
name = "Extended Mar 31 18, 15:49";
paths = (
{
closed = 1;
nodes = (
"190 550 LINE",
"190 50 LINE",
"40 3 LINE",
"42 0 LINE",
"414 0 LINE",
"416 4 LINE",
"266 50 LINE",
"265 550 LINE",
"265 600 LINE",
"42 600 LINE",
"40 597 LINE"
);
},
{
closed = 1;
nodes = (
"551 267 LINE",
"909 -68 LINE",
"958 -58 LINE",
"657 277 LINE"
);
},
{
closed = 1;
nodes = (
"620 560 LINE SMOOTH",
"761 560 OFFCURVE",
"876 538 OFFCURVE",
"876 416 CURVE SMOOTH",
"876 323 OFFCURVE",
"768 293 OFFCURVE",
"640 293 CURVE",
"226 292 LINE",
"226 253 LINE",
"650 254 LINE SMOOTH",
"842 255 OFFCURVE",
"956 305 OFFCURVE",
"956 430 CURVE SMOOTH",
"956 551 OFFCURVE",
"842 600 OFFCURVE",
"650 600 CURVE SMOOTH",
"211 600 LINE",
"211 560 LINE"
);
}
);
width = 996;
},
{
associatedMasterId = m003;
layerId = "BF99D1A1-E071-43FA-A6EA-6FF931E373C1";
name = "Extended Mar 31 18, 15:49";
paths = (
{
closed = 1;
nodes = (
"190 550 LINE",
"190 50 LINE",
"40 3 LINE",
"42 0 LINE",
"414 0 LINE",
"416 4 LINE",
"266 50 LINE",
"265 550 LINE",
"265 600 LINE",
"42 600 LINE",
"40 597 LINE"
);
},
{
closed = 1;
nodes = (
"551 267 LINE",
"909 -68 LINE",
"958 -58 LINE",
"657 277 LINE"
);
},
{
closed = 1;
nodes = (
"620 560 LINE SMOOTH",
"761 560 OFFCURVE",
"876 538 OFFCURVE",
"876 416 CURVE SMOOTH",
"876 323 OFFCURVE",
"768 293 OFFCURVE",
"640 293 CURVE",
"226 292 LINE",
"226 253 LINE",
"650 254 LINE SMOOTH",
"842 255 OFFCURVE",
"956 305 OFFCURVE",
"956 430 CURVE SMOOTH",
"956 551 OFFCURVE",
"842 600 OFFCURVE",
"650 600 CURVE SMOOTH",
"211 600 LINE",
"211 560 LINE"
);
}
);
width = 996;
},
{
anchors = (
{
name = bottom;
position = "{268, 0}";
},
{
name = top;
position = "{253, 600}";
}
);
layerId = "2C26E880-80A5-4D19-8A94-7D905A372841";
paths = (
{
closed = 1;
nodes = (
"282 264 LINE SMOOTH",
"344 265 OFFCURVE",
"437 322 OFFCURVE",
"437 431 CURVE SMOOTH",
"437 528 OFFCURVE",
"368 600 OFFCURVE",
"280 600 CURVE SMOOTH",
"22 600 LINE",
"20 592 LINE",
"130 555 LINE",
"130 45 LINE",
"20 8 LINE",
"22 0 LINE",
"243 0 LINE",
"245 8 LINE",
"165 47 LINE",
"165 263 LINE"
);
},
{
closed = 1;
nodes = (
"165 571 LINE",
"268 575 LINE SMOOTH",
"343 578 OFFCURVE",
"402 509 OFFCURVE",
"402 423 CURVE SMOOTH",
"402 336 OFFCURVE",
"332 289 OFFCURVE",
"272 291 CURVE SMOOTH",
"165 294 LINE"
);
},
{
closed = 1;
nodes = (
"254 275 LINE",
"350 45 LINE",
"280 8 LINE",
"282 0 LINE",
"494 0 LINE",
"496 8 LINE",
"386 45 LINE",
"285 288 LINE"
);
}
);
width = 506;
},
{
anchors = (
{
name = bottom;
position = "{495, 0}";
},
{
name = top;
position = "{475, 600}";
}
);
associatedMasterId = m002;
layerId = "ED6913F8-8F03-4859-93E4-41BA79BDBB58";
name = "2 Sep 22, 10:24";
paths = (
{
closed = 1;
nodes = (
"621 267 LINE SMOOTH",
"770 268 OFFCURVE",
"886 327 OFFCURVE",
"886 436 CURVE SMOOTH",
"886 556 OFFCURVE",
"772 600 OFFCURVE",
"580 600 CURVE SMOOTH",
"22 600 LINE",
"20 592 LINE",
"170 550 LINE",
"170 50 LINE",
"40 5 LINE",
"42 0 LINE",
"414 0 LINE",
"416 6 LINE",
"246 50 LINE",
"246 264 LINE"
);
},
{
closed = 1;
nodes = (
"245 560 LINE",
"550 560 LINE SMOOTH",
"691 560 OFFCURVE",
"806 543 OFFCURVE",
"806 422 CURVE SMOOTH",
"806 329 OFFCURVE",
"698 305 OFFCURVE",
"570 307 CURVE SMOOTH",
"245 311 LINE"
);
},
{
closed = 1;
nodes = (
"588 285 LINE",
"779 50 LINE",
"599 8 LINE",
"601 0 LINE",
"991 0 LINE",
"993 8 LINE",
"873 50 LINE",
"679 285 LINE"
);
}
);
width = 983;
},
{
anchors = (
{
name = bottom;
position = "{480, 0}";
},
{
name = top;
position = "{460, 600}";
}
);
associatedMasterId = "0CCC0E2D-406A-4672-8E6C-854B1DF78A27";
layerId = "F6575CD0-A92F-4CA7-95ED-F31B3C1828F3";
name = "2 Sep 22, 10:46";
paths = (
{
closed = 1;
nodes = (
"568 276 LINE SMOOTH",
"746 277 OFFCURVE",
"839 332 OFFCURVE",
"839 436 CURVE SMOOTH",
"839 544 OFFCURVE",
"743 600 OFFCURVE",
"558 600 CURVE SMOOTH",
"32 600 LINE",
"30 592 LINE",
"180 550 LINE",
"180 50 LINE",
"40 8 LINE",
"42 0 LINE",
"406 0 LINE",
"408 8 LINE",
"217 52 LINE",
"217 275 LINE"
);
},
{
closed = 1;
nodes = (
"217 573 LINE",
"558 573 LINE SMOOTH",
"718 573 OFFCURVE",
"801 523 OFFCURVE",
"801 428 CURVE SMOOTH",
"801 347 OFFCURVE",
"725 305 OFFCURVE",
"578 305 CURVE SMOOTH",
"217 305 LINE"
);
},
{
closed = 1;
nodes = (
"578 285 LINE",
"769 50 LINE",
"589 8 LINE",
"591 0 LINE",
"933 0 LINE",
"935 8 LINE",
"815 50 LINE",
"621 285 LINE"
);
}
);
width = 935;
},
{
anchors = (
{
name = bottom;
position = "{295, 0}";
},
{
name = top;
position = "{275, 600}";
}
);
associatedMasterId = m003;
layerId = "1BB60639-2837-4BFA-BA68-446B2636C0B4";
name = "2 Sep 22, 10:49";
paths = (
{
closed = 1;
nodes = (
"290 256 LINE SMOOTH",
"408 257 OFFCURVE",
"481 332 OFFCURVE",
"481 430 CURVE SMOOTH",
"481 524 OFFCURVE",
"395 600 OFFCURVE",
"300 600 CURVE SMOOTH",
"12 600 LINE",
"10 592 LINE",
"120 555 LINE",
"120 45 LINE",
"10 8 LINE",
"12 0 LINE",
"268 0 LINE",
"270 8 LINE",
"190 45 LINE",
"190 255 LINE"
);
},
{
closed = 1;
nodes = (
"190 565 LINE",
"270 565 LINE SMOOTH",
"337 565 OFFCURVE",
"406 494 OFFCURVE",
"406 416 CURVE SMOOTH",
"406 341 OFFCURVE",
"349 284 OFFCURVE",
"260 290 CURVE SMOOTH",
"190 295 LINE"
);
},
{
closed = 1;
nodes = (
"296 275 LINE",
"408 45 LINE",
"318 8 LINE",
"320 0 LINE",
"577 0 LINE",
"579 8 LINE",
"479 45 LINE",
"364 275 LINE"
);
}
);
width = 578;
},
{
anchors = (
{
name = bottom;
position = "{268, 0}";
},
{
name = top;
position = "{253, 600}";
}
);
associatedMasterId = "2C26E880-80A5-4D19-8A94-7D905A372841";
layerId = "D807F695-3177-44B2-8D22-846A0B8A0B01";
name = "2 Sep 22, 10:52";
paths = (
{
closed = 1;
nodes = (
"269 264 LINE SMOOTH",
"367 265 OFFCURVE",
"437 334 OFFCURVE",
"437 431 CURVE SMOOTH",
"437 528 OFFCURVE",
"368 600 OFFCURVE",
"280 600 CURVE SMOOTH",
"22 600 LINE",
"20 592 LINE",
"130 555 LINE",
"130 45 LINE",
"20 8 LINE",
"22 0 LINE",
"243 0 LINE",
"245 8 LINE",
"165 47 LINE",
"165 263 LINE"
);
},
{
closed = 1;
nodes = (
"165 571 LINE",
"268 575 LINE SMOOTH",
"343 578 OFFCURVE",
"402 509 OFFCURVE",
"402 423 CURVE SMOOTH",
"402 346 OFFCURVE",
"352 289 OFFCURVE",
"278 291 CURVE SMOOTH",
"165 294 LINE"
);
},
{
closed = 1;
nodes = (
"297 275 LINE",
"400 45 LINE",
"310 8 LINE",
"312 0 LINE",
"525 0 LINE",
"527 8 LINE",
"437 45 LINE",
"332 275 LINE"
);
}
);
width = 537;
},
{
anchors = (
{
name = bottom;
position = "{302, 0}";
},
{
name = top;
position = "{281, 600}";
}
);
associatedMasterId = m003;
layerId = "BB9C9991-12A9-4CC6-8577-8B37327123D7";
name = "25 Sep 22, 14:02";
paths = (
{
closed = 1;
nodes = (
"286 254 LINE SMOOTH",
"414 255 OFFCURVE",
"493 325 OFFCURVE",
"493 430 CURVE SMOOTH",
"493 523 OFFCURVE",
"402 600 OFFCURVE",
"306 600 CURVE SMOOTH",
"10 600 LINE",
"8 592 LINE",
"118 555 LINE",
"118 45 LINE",
"8 8 LINE",
"10 0 LINE",
"262 0 LINE",
"264 8 LINE",
"197 45 LINE",
"197 253 LINE"
);
},
{
closed = 1;
nodes = (
"197 564 LINE",
"271 563 LINE SMOOTH",
"336 562 OFFCURVE",
"408 490 OFFCURVE",
"408 414 CURVE SMOOTH",
"408 341 OFFCURVE",
"349 282 OFFCURVE",
"254 290 CURVE SMOOTH",
"197 295 LINE"
);
},
{
closed = 1;
nodes = (
"285 275 LINE",
"376 45 LINE",
"298 8 LINE",
"300 0 LINE",
"530 0 LINE",
"532 8 LINE",
"454 45 LINE",
"361 272 LINE"
);
}
);
width = 529;
},
{
anchors = (
{
name = bottom;
position = "{272, 0}";
},
{
name = top;
position = "{261, 600}";
}
);
associatedMasterId = m003;
layerId = "3CD9F8BB-F10D-48DF-9B76-2604E1BC258F";
name = "25 Sep 22, 14:10";
paths = (
{
closed = 1;
nodes = (
"286 254 LINE SMOOTH",
"414 255 OFFCURVE",
"493 325 OFFCURVE",
"493 430 CURVE SMOOTH",
"493 523 OFFCURVE",
"402 600 OFFCURVE",
"306 600 CURVE SMOOTH",
"10 600 LINE",
"8 592 LINE",
"118 555 LINE",
"118 45 LINE",
"8 8 LINE",
"10 0 LINE",
"262 0 LINE",
"264 8 LINE",
"197 45 LINE",
"197 253 LINE"
);
},
{
closed = 1;
nodes = (
"197 564 LINE",
"271 563 LINE SMOOTH",
"336 562 OFFCURVE",
"408 490 OFFCURVE",
"408 414 CURVE SMOOTH",
"408 341 OFFCURVE",
"349 282 OFFCURVE",
"254 290 CURVE SMOOTH",
"197 295 LINE"
);
},
{
closed = 1;
nodes = (
"271 263 LINE",
"310 178 LINE SMOOTH",
"354 82 OFFCURVE",
"410 5 OFFCURVE",
"505 -43 CURVE",
"507 -35 LINE",
"356 244 LINE"
);
}
);
width = 539;
},
{
anchors = (
{
name = bottom;
position = "{272, 0}";
},
{
name = top;
position = "{261, 600}";
}
);
layerId = m003;
name = Condensed;
paths = (
{
closed = 1;
nodes = (
"286 254 LINE SMOOTH",
"414 255 OFFCURVE",
"493 325 OFFCURVE",
"493 430 CURVE SMOOTH",
"493 523 OFFCURVE",
"402 600 OFFCURVE",
"306 600 CURVE SMOOTH",
"10 600 LINE",
"8 592 LINE",
"118 555 LINE",
"118 45 LINE",
"8 8 LINE",
"10 0 LINE",
"272 0 LINE",
"274 8 LINE",
"197 45 LINE",
"197 253 LINE"
);
},
{
closed = 1;
nodes = (
"197 564 LINE",
"271 563 LINE SMOOTH",
"336 562 OFFCURVE",
"408 490 OFFCURVE",
"408 414 CURVE SMOOTH",
"408 341 OFFCURVE",
"349 282 OFFCURVE",
"254 290 CURVE SMOOTH",
"197 295 LINE"
);
},
{
closed = 1;
nodes = (
"249 275 LINE",
"360 45 LINE",
"300 8 LINE",
"302 0 LINE",
"520 0 LINE",
"522 8 LINE",
"444 45 LINE",
"331 272 LINE"
);
}
);
width = 529;
}
);
leftKerningGroup = H;
leftMetricsKey = H;
rightKerningGroup = R;
unicode = 0052;
},
{
glyphname = S;
lastChange = "2022-09-24 14:46:44 +0000";
layers = (
{
anchors = (
{
name = bottom;
position = "{411, 0}";
},
{
name = top;
position = "{411, 600}";
}
);
layerId = "0CCC0E2D-406A-4672-8E6C-854B1DF78A27";
paths = (
{
closed = 1;
nodes = (
"153 6 OFFCURVE",
"272 -20 OFFCURVE",
"431 -20 CURVE SMOOTH",
"657 -20 OFFCURVE",
"780 44 OFFCURVE",
"780 162 CURVE SMOOTH",
"780 253 OFFCURVE",
"708 300 OFFCURVE",
"542 318 CURVE SMOOTH",
"299 344 LINE SMOOTH",
"169 358 OFFCURVE",
"118 390 OFFCURVE",
"120 456 CURVE SMOOTH",
"122 549 OFFCURVE",
"219 598 OFFCURVE",
"401 598 CURVE SMOOTH",
"495 598 OFFCURVE",
"597 585 OFFCURVE",
"659 571 CURVE",
"676 414 LINE",
"684 412 LINE",
"745 589 LINE",
"660 609 OFFCURVE",
"525 625 OFFCURVE",
"401 625 CURVE SMOOTH",
"198 625 OFFCURVE",
"86 563 OFFCURVE",
"82 449 CURVE SMOOTH",
"79 366 OFFCURVE",
"135 329 OFFCURVE",
"286 313 CURVE SMOOTH",
"529 287 LINE SMOOTH",
"672 272 OFFCURVE",
"745 225 OFFCURVE",
"744 148 CURVE SMOOTH",
"742 59 OFFCURVE",
"639 10 OFFCURVE",
"451 10 CURVE SMOOTH",
"324 10 OFFCURVE",
"214 28 OFFCURVE",
"131 59 CURVE",
"114 218 LINE",
"106 220 LINE",
"45 50 LINE"
);
}
);
width = 840;
},
{
associatedMasterId = "0CCC0E2D-406A-4672-8E6C-854B1DF78A27";
layerId = "9A359F69-7A44-4B2C-B582-FDEDCD665DE8";
name = "Apr 3 18, 11:50";
paths = (
{
closed = 1;
nodes = (
"143 23 OFFCURVE",
"304 -10 OFFCURVE",
"459 -10 CURVE SMOOTH",
"689 -10 OFFCURVE",
"848 49 OFFCURVE",
"848 195 CURVE SMOOTH",
"848 326 OFFCURVE",
"681 353 OFFCURVE",
"449 353 CURVE SMOOTH",
"259 353 OFFCURVE",
"147 364 OFFCURVE",
"149 448 CURVE SMOOTH",
"151 532 OFFCURVE",
"288 578 OFFCURVE",
"449 578 CURVE SMOOTH",
"550 578 OFFCURVE",
"681 555 OFFCURVE",
"720 524 CURVE",
"806 535 LINE",
"729 598 OFFCURVE",
"551 623 OFFCURVE",
"449 623 CURVE SMOOTH",
"180 623 OFFCURVE",
"86 522 OFFCURVE",
"83 418 CURVE SMOOTH",
"79 295 OFFCURVE",
"230 273 OFFCURVE",
"449 273 CURVE SMOOTH",
"650 273 OFFCURVE",
"782 252 OFFCURVE",
"781 174 CURVE SMOOTH",
"780 82 OFFCURVE",
"640 35 OFFCURVE",
"459 35 CURVE SMOOTH",
"348 35 OFFCURVE",
"184 65 OFFCURVE",
"136 102 CURVE",
"50 91 LINE"
);
},
{
closed = 1;
nodes = (
"745 354 LINE",
"738 356 LINE",
"720 524 LINE",
"806 535 LINE"
);
},
{
closed = 1;
nodes = (
"111 272 LINE",
"118 270 LINE",
"136 102 LINE",
"50 91 LINE"
);
}
);
width = 878;
},
{
associatedMasterId = "0CCC0E2D-406A-4672-8E6C-854B1DF78A27";
layerId = "A8B821C7-36AA-44CB-84BC-D34DB5EED9F4";
name = "Apr 3 18, 11:50";
paths = (
{
closed = 1;
nodes = (
"143 23 OFFCURVE",
"304 -10 OFFCURVE",
"459 -10 CURVE SMOOTH",
"689 -10 OFFCURVE",
"848 49 OFFCURVE",
"848 195 CURVE SMOOTH",
"848 326 OFFCURVE",
"681 353 OFFCURVE",
"449 353 CURVE SMOOTH",
"259 353 OFFCURVE",
"147 364 OFFCURVE",
"149 448 CURVE SMOOTH",
"151 532 OFFCURVE",
"288 578 OFFCURVE",
"449 578 CURVE SMOOTH",
"550 578 OFFCURVE",
"681 555 OFFCURVE",
"720 524 CURVE",
"806 535 LINE",
"729 598 OFFCURVE",
"551 623 OFFCURVE",
"449 623 CURVE SMOOTH",
"180 623 OFFCURVE",
"86 522 OFFCURVE",
"83 418 CURVE SMOOTH",
"79 295 OFFCURVE",
"230 273 OFFCURVE",
"449 273 CURVE SMOOTH",
"650 273 OFFCURVE",
"782 252 OFFCURVE",
"781 174 CURVE SMOOTH",
"780 82 OFFCURVE",
"640 35 OFFCURVE",
"459 35 CURVE SMOOTH",
"348 35 OFFCURVE",
"184 65 OFFCURVE",
"136 102 CURVE",
"50 91 LINE"
);
},
{
closed = 1;
nodes = (
"745 354 LINE",
"738 356 LINE",
"720 524 LINE",
"806 535 LINE"
);
},
{
closed = 1;
nodes = (
"111 272 LINE",
"118 270 LINE",
"136 102 LINE",
"50 91 LINE"
);
}
);
width = 878;
},
{
anchors = (
{
name = bottom;
position = "{446, 0}";
},
{
name = top;
position = "{446, 600}";
}
);
layerId = m002;
paths = (
{
closed = 1;
nodes = (
"127 13 OFFCURVE",
"304 -20 OFFCURVE",
"451 -20 CURVE SMOOTH",
"693 -20 OFFCURVE",
"862 69 OFFCURVE",
"862 198 CURVE SMOOTH",
"862 288 OFFCURVE",
"779 336 OFFCURVE",
"592 350 CURVE SMOOTH",
"349 368 LINE SMOOTH",
"197 379 OFFCURVE",
"139 406 OFFCURVE",
"140 459 CURVE SMOOTH",
"142 529 OFFCURVE",
"284 578 OFFCURVE",
"441 578 CURVE SMOOTH",
"537 578 OFFCURVE",
"645 559 OFFCURVE",
"730 531 CURVE",
"745 396 LINE",
"753 394 LINE",
"814 584 LINE",
"695 609 OFFCURVE",
"566 625 OFFCURVE",
"461 625 CURVE SMOOTH",
"230 625 OFFCURVE",
"66 547 OFFCURVE",
"62 434 CURVE SMOOTH",
"59 347 OFFCURVE",
"145 295 OFFCURVE",
"306 283 CURVE SMOOTH",
"549 265 LINE SMOOTH",
"718 252 OFFCURVE",
"780 224 OFFCURVE",
"779 157 CURVE SMOOTH",
"777 84 OFFCURVE",
"652 34 OFFCURVE",
"491 34 CURVE SMOOTH",
"356 34 OFFCURVE",
"179 67 OFFCURVE",
"115 107 CURVE",
"98 266 LINE",
"90 268 LINE",
"29 58 LINE"
);
}
);
width = 906;
},
{
associatedMasterId = m002;
layerId = "3CD49650-8184-45EA-873A-FDEEE6AA1B09";
name = "Apr 3 18, 11:50";
paths = (
{
closed = 1;
nodes = (
"143 23 OFFCURVE",
"304 -10 OFFCURVE",
"459 -10 CURVE SMOOTH",
"689 -10 OFFCURVE",
"848 49 OFFCURVE",
"848 195 CURVE SMOOTH",
"848 326 OFFCURVE",
"681 353 OFFCURVE",
"449 353 CURVE SMOOTH",
"259 353 OFFCURVE",
"147 364 OFFCURVE",
"149 448 CURVE SMOOTH",
"151 532 OFFCURVE",
"288 578 OFFCURVE",
"449 578 CURVE SMOOTH",
"550 578 OFFCURVE",
"681 555 OFFCURVE",
"720 524 CURVE",
"806 535 LINE",
"729 598 OFFCURVE",
"551 623 OFFCURVE",
"449 623 CURVE SMOOTH",
"180 623 OFFCURVE",
"86 522 OFFCURVE",
"83 418 CURVE SMOOTH",
"79 295 OFFCURVE",
"230 273 OFFCURVE",
"449 273 CURVE SMOOTH",
"650 273 OFFCURVE",
"782 252 OFFCURVE",
"781 174 CURVE SMOOTH",
"780 82 OFFCURVE",
"640 35 OFFCURVE",
"459 35 CURVE SMOOTH",
"348 35 OFFCURVE",
"184 65 OFFCURVE",
"136 102 CURVE",
"50 91 LINE"
);
},
{
closed = 1;
nodes = (
"745 354 LINE",
"738 356 LINE",
"720 524 LINE",
"806 535 LINE"
);
},
{
closed = 1;
nodes = (
"111 272 LINE",
"118 270 LINE",
"136 102 LINE",
"50 91 LINE"
);
}
);
width = 878;
},
{
associatedMasterId = m002;
layerId = "FF34C2C3-E629-40EC-B18C-562382FD2B12";
name = "Apr 3 18, 11:50";
paths = (
{
closed = 1;
nodes = (
"143 23 OFFCURVE",
"304 -10 OFFCURVE",
"459 -10 CURVE SMOOTH",
"689 -10 OFFCURVE",
"848 49 OFFCURVE",
"848 195 CURVE SMOOTH",
"848 326 OFFCURVE",
"681 353 OFFCURVE",
"449 353 CURVE SMOOTH",
"259 353 OFFCURVE",
"147 364 OFFCURVE",
"149 448 CURVE SMOOTH",
"151 532 OFFCURVE",
"288 578 OFFCURVE",
"449 578 CURVE SMOOTH",
"550 578 OFFCURVE",
"681 555 OFFCURVE",
"720 524 CURVE",
"806 535 LINE",
"729 598 OFFCURVE",
"551 623 OFFCURVE",
"449 623 CURVE SMOOTH",
"180 623 OFFCURVE",
"86 522 OFFCURVE",
"83 418 CURVE SMOOTH",
"79 295 OFFCURVE",
"230 273 OFFCURVE",
"449 273 CURVE SMOOTH",
"650 273 OFFCURVE",
"782 252 OFFCURVE",
"781 174 CURVE SMOOTH",
"780 82 OFFCURVE",
"640 35 OFFCURVE",
"459 35 CURVE SMOOTH",
"348 35 OFFCURVE",
"184 65 OFFCURVE",
"136 102 CURVE",
"50 91 LINE"
);
},
{
closed = 1;
nodes = (
"745 354 LINE",
"738 356 LINE",
"720 524 LINE",
"806 535 LINE"
);
},
{
closed = 1;
nodes = (
"111 272 LINE",
"118 270 LINE",
"136 102 LINE",
"50 91 LINE"
);
}
);
width = 878;
},
{
anchors = (
{
name = bottom;
position = "{204, 0}";
},
{
name = top;
position = "{198, 600}";
}
);
layerId = m003;
paths = (
{
closed = 1;
nodes = (
"57 -4 OFFCURVE",
"140 -20 OFFCURVE",
"201 -20 CURVE SMOOTH",
"316 -20 OFFCURVE",
"392 55 OFFCURVE",
"392 167 CURVE SMOOTH",
"392 244 OFFCURVE",
"355 289 OFFCURVE",
"251 337 CURVE SMOOTH",
"190 365 LINE SMOOTH",
"131 393 OFFCURVE",
"101 433 OFFCURVE",
"101 486 CURVE SMOOTH",
"101 544 OFFCURVE",
"135 577 OFFCURVE",
"195 577 CURVE SMOOTH",
"227 577 OFFCURVE",
"268 568 OFFCURVE",
"284 557 CURVE",
"300 415 LINE",
"307 413 LINE",
"359 587 LINE",
"327 605 OFFCURVE",
"253 620 OFFCURVE",
"198 620 CURVE SMOOTH",
"98 620 OFFCURVE",
"38 563 OFFCURVE",
"36 464 CURVE SMOOTH",
"35 385 OFFCURVE",
"72 328 OFFCURVE",
"151 291 CURVE SMOOTH",
"222 258 LINE SMOOTH",
"296 223 OFFCURVE",
"326 186 OFFCURVE",
"326 132 CURVE SMOOTH",
"326 62 OFFCURVE",
"289 27 OFFCURVE",
"215 27 CURVE SMOOTH",
"168 27 OFFCURVE",
"112 38 OFFCURVE",
"88 52 CURVE",
"73 217 LINE",
"65 219 LINE",
"14 17 LINE"
);
}
);
width = 406;
},
{
associatedMasterId = m003;
layerId = "8C43811E-9CF8-47C6-A89B-E5D626EB4865";
name = "Apr 3 18, 11:50";
paths = (
{
closed = 1;
nodes = (
"143 23 OFFCURVE",
"304 -10 OFFCURVE",
"459 -10 CURVE SMOOTH",
"689 -10 OFFCURVE",
"848 49 OFFCURVE",
"848 195 CURVE SMOOTH",
"848 326 OFFCURVE",
"681 353 OFFCURVE",
"449 353 CURVE SMOOTH",
"259 353 OFFCURVE",
"147 364 OFFCURVE",
"149 448 CURVE SMOOTH",
"151 532 OFFCURVE",
"288 578 OFFCURVE",
"449 578 CURVE SMOOTH",
"550 578 OFFCURVE",
"681 555 OFFCURVE",
"720 524 CURVE",
"806 535 LINE",
"729 598 OFFCURVE",
"551 623 OFFCURVE",
"449 623 CURVE SMOOTH",
"180 623 OFFCURVE",
"86 522 OFFCURVE",
"83 418 CURVE SMOOTH",
"79 295 OFFCURVE",
"230 273 OFFCURVE",
"449 273 CURVE SMOOTH",
"650 273 OFFCURVE",
"782 252 OFFCURVE",
"781 174 CURVE SMOOTH",
"780 82 OFFCURVE",
"640 35 OFFCURVE",
"459 35 CURVE SMOOTH",
"348 35 OFFCURVE",
"184 65 OFFCURVE",
"136 102 CURVE",
"50 91 LINE"
);
},
{
closed = 1;
nodes = (
"745 354 LINE",
"738 356 LINE",
"720 524 LINE",
"806 535 LINE"
);
},
{
closed = 1;
nodes = (
"111 272 LINE",
"118 270 LINE",
"136 102 LINE",
"50 91 LINE"
);
}
);
width = 878;
},
{
associatedMasterId = m003;
layerId = "95B1B325-6487-47BB-AD9E-BB874A5EF258";
name = "Apr 3 18, 11:50";
paths = (
{
closed = 1;
nodes = (
"143 23 OFFCURVE",
"304 -10 OFFCURVE",
"459 -10 CURVE SMOOTH",
"689 -10 OFFCURVE",
"848 49 OFFCURVE",
"848 195 CURVE SMOOTH",
"848 326 OFFCURVE",
"681 353 OFFCURVE",
"449 353 CURVE SMOOTH",
"259 353 OFFCURVE",
"147 364 OFFCURVE",
"149 448 CURVE SMOOTH",
"151 532 OFFCURVE",
"288 578 OFFCURVE",
"449 578 CURVE SMOOTH",
"550 578 OFFCURVE",
"681 555 OFFCURVE",
"720 524 CURVE",
"806 535 LINE",
"729 598 OFFCURVE",
"551 623 OFFCURVE",
"449 623 CURVE SMOOTH",
"180 623 OFFCURVE",
"86 522 OFFCURVE",
"83 418 CURVE SMOOTH",
"79 295 OFFCURVE",
"230 273 OFFCURVE",
"449 273 CURVE SMOOTH",
"650 273 OFFCURVE",
"782 252 OFFCURVE",
"781 174 CURVE SMOOTH",
"780 82 OFFCURVE",
"640 35 OFFCURVE",
"459 35 CURVE SMOOTH",
"348 35 OFFCURVE",
"184 65 OFFCURVE",
"136 102 CURVE",
"50 91 LINE"
);
},
{
closed = 1;
nodes = (
"745 354 LINE",
"738 356 LINE",
"720 524 LINE",
"806 535 LINE"
);
},
{
closed = 1;
nodes = (
"111 272 LINE",
"118 270 LINE",
"136 102 LINE",
"50 91 LINE"
);
}
);
width = 878;
},
{
anchors = (
{
name = bottom;
position = "{204, 0}";
},
{
name = top;
position = "{180, 600}";
}
);
layerId = "2C26E880-80A5-4D19-8A94-7D905A372841";
paths = (
{
closed = 1;
nodes = (
"56 -3 OFFCURVE",
"124 -20 OFFCURVE",
"183 -20 CURVE SMOOTH",
"292 -20 OFFCURVE",
"359 34 OFFCURVE",
"359 138 CURVE SMOOTH",
"359 207 OFFCURVE",
"321 261 OFFCURVE",
"245 307 CURVE SMOOTH",
"170 352 LINE SMOOTH",
"111 388 OFFCURVE",
"85 428 OFFCURVE",
"86 483 CURVE SMOOTH",
"87 551 OFFCURVE",
"126 593 OFFCURVE",
"186 593 CURVE SMOOTH",
"202 593 OFFCURVE",
"227 589 OFFCURVE",
"245 584 CURVE",
"263 417 LINE",
"272 415 LINE",
"330 599 LINE",
"292 611 OFFCURVE",
"239 620 OFFCURVE",
"201 620 CURVE SMOOTH",
"109 620 OFFCURVE",
"51 565 OFFCURVE",
"49 476 CURVE SMOOTH",
"48 408 OFFCURVE",
"80 363 OFFCURVE",
"157 315 CURVE SMOOTH",
"234 267 LINE SMOOTH",
"294 230 OFFCURVE",
"324 184 OFFCURVE",
"324 124 CURVE SMOOTH",
"324 49 OFFCURVE",
"278 7 OFFCURVE",
"195 7 CURVE SMOOTH",
"161 7 OFFCURVE",
"129 14 OFFCURVE",
"104 27 CURVE",
"86 186 LINE",
"77 188 LINE",
"20 21 LINE"
);
}
);
width = 379;
}
);
leftKerningGroup = S;
rightKerningGroup = S;
unicode = 0053;
},
{
glyphname = Germandbls;
lastChange = "2022-09-21 15:11:36 +0000";
layers = (
{
layerId = "0CCC0E2D-406A-4672-8E6C-854B1DF78A27";
paths = (
{
closed = 1;
nodes = (
"797 611 LINE",
"32 600 LINE",
"30 592 LINE",
"180 550 LINE",
"180 50 LINE",
"30 8 LINE",
"32 0 LINE",
"217 0 LINE",
"218 577 LINE",
"779 580 LINE",
"783 597 LINE",
"471 317 LINE",
"488 298 LINE",
"733 334 OFFCURVE",
"857 291 OFFCURVE",
"856 171 CURVE SMOOTH",
"855 65 OFFCURVE",
"755 10 OFFCURVE",
"624 10 CURVE SMOOTH",
"534 10 OFFCURVE",
"452 26 OFFCURVE",
"369 65 CURVE",
"362 221 LINE",
"354 223 LINE",
"293 65 LINE",
"382 11 OFFCURVE",
"499 -20 OFFCURVE",
"614 -20 CURVE SMOOTH",
"775 -20 OFFCURVE",
"890 48 OFFCURVE",
"890 179 CURVE SMOOTH",
"890 315 OFFCURVE",
"753 367 OFFCURVE",
"507 327 CURVE",
"510 314 LINE",
"816 585 LINE"
);
}
);
width = 930;
},
{
layerId = m002;
paths = (
{
closed = 1;
nodes = (
"847 611 LINE",
"16 600 LINE",
"14 592 LINE",
"164 550 LINE",
"164 50 LINE",
"14 8 LINE",
"16 0 LINE",
"260 0 LINE",
"261 561 LINE",
"799 550 LINE",
"763 597 LINE",
"460 325 LINE",
"484 286 LINE",
"788 328 OFFCURVE",
"858 256 OFFCURVE",
"856 159 CURVE SMOOTH",
"855 98 OFFCURVE",
"768 30 OFFCURVE",
"659 30 CURVE SMOOTH",
"550 30 OFFCURVE",
"472 58 OFFCURVE",
"404 107 CURVE",
"382 267 LINE",
"374 269 LINE",
"313 65 LINE",
"399 12 OFFCURVE",
"499 -20 OFFCURVE",
"603 -20 CURVE SMOOTH",
"823 -20 OFFCURVE",
"943 85 OFFCURVE",
"943 195 CURVE SMOOTH",
"943 300 OFFCURVE",
"851 406 OFFCURVE",
"527 339 CURVE",
"556 314 LINE",
"866 574 LINE"
);
}
);
width = 981;
},
{
layerId = m003;
paths = (
{
closed = 1;
nodes = (
"468 611 LINE",
"10 600 LINE",
"8 592 LINE",
"118 555 LINE",
"118 45 LINE",
"8 8 LINE",
"10 0 LINE",
"196 0 LINE",
"197 570 LINE",
"443 560 LINE",
"435 596 LINE",
"273 317 LINE",
"307 289 LINE",
"397 332 OFFCURVE",
"484 272 OFFCURVE",
"482 156 CURVE SMOOTH",
"481 71 OFFCURVE",
"449 26 OFFCURVE",
"378 26 CURVE SMOOTH",
"352 26 OFFCURVE",
"336 29 OFFCURVE",
"313 42 CURVE",
"295 201 LINE",
"287 203 LINE",
"235 17 LINE",
"256 -2 OFFCURVE",
"322 -20 OFFCURVE",
"377 -20 CURVE SMOOTH",
"472 -20 OFFCURVE",
"551 75 OFFCURVE",
"551 191 CURVE SMOOTH",
"551 309 OFFCURVE",
"452 371 OFFCURVE",
"339 336 CURVE",
"343 315 LINE",
"503 585 LINE"
);
}
);
width = 574;
},
{
layerId = "2C26E880-80A5-4D19-8A94-7D905A372841";
paths = (
{
closed = 1;
nodes = (
"450 611 LINE",
"22 600 LINE",
"20 592 LINE",
"130 555 LINE",
"130 45 LINE",
"20 8 LINE",
"22 0 LINE",
"165 0 LINE",
"165 581 LINE",
"454 584 LINE",
"426 596 LINE",
"270 311 LINE",
"298 299 LINE",
"400 348 OFFCURVE",
"480 289 OFFCURVE",
"479 166 CURVE SMOOTH",
"478 60 OFFCURVE",
"427 10 OFFCURVE",
"364 10 CURVE SMOOTH",
"332 10 OFFCURVE",
"299 19 OFFCURVE",
"294 29 CURVE",
"288 185 LINE",
"280 187 LINE",
"228 11 LINE",
"269 -11 OFFCURVE",
"305 -20 OFFCURVE",
"349 -20 CURVE SMOOTH",
"452 -20 OFFCURVE",
"515 55 OFFCURVE",
"515 180 CURVE SMOOTH",
"515 314 OFFCURVE",
"424 380 OFFCURVE",
"312 327 CURVE",
"309 315 LINE",
"465 594 LINE"
);
}
);
width = 538;
}
);
leftKerningGroup = H;
leftMetricsKey = H;
rightKerningGroup = S;
unicode = 1E9E;
},
{
glyphname = T;
lastChange = "2022-09-20 19:14:36 +0000";
layers = (
{
anchors = (
{
name = bottom;
position = "{427, 0}";
},
{
name = center;
position = "{414, 300}";
},
{
name = top;
position = "{414, 600}";
}
);
layerId = "0CCC0E2D-406A-4672-8E6C-854B1DF78A27";
paths = (
{
closed = 1;
nodes = (
"73 419 LINE",
"81 421 LINE",
"107 579 LINE",
"395 579 LINE",
"396 50 LINE",
"246 8 LINE",
"248 0 LINE",
"581 0 LINE",
"583 8 LINE",
"433 50 LINE",
"432 579 LINE",
"721 580 LINE",
"760 421 LINE",
"768 419 LINE",
"792 610 LINE",
"414 600 LINE",
"35 610 LINE"
);
}
);
width = 827;
},
{
anchors = (
{
name = bottom;
position = "{492, 0}";
},
{
name = center;
position = "{473, 300}";
},
{
name = top;
position = "{473, 600}";
}
);
layerId = m002;
paths = (
{
closed = 1;
nodes = (
"65 420 LINE",
"73 422 LINE",
"123 550 LINE",
"425 558 LINE",
"426 50 LINE",
"276 8 LINE",
"278 0 LINE",
"671 0 LINE",
"673 8 LINE",
"523 50 LINE",
"522 558 LINE",
"824 551 LINE",
"888 422 LINE",
"896 420 LINE",
"928 610 LINE",
"473 600 LINE",
"19 610 LINE"
);
}
);
width = 947;
},
{
anchors = (
{
name = bottom;
position = "{268, 0}";
},
{
name = center;
position = "{247, 300}";
},
{
name = top;
position = "{250, 600}";
}
);
layerId = m003;
paths = (
{
closed = 1;
nodes = (
"62 401 LINE",
"70 403 LINE",
"101 564 LINE",
"210 571 LINE",
"210 45 LINE",
"100 8 LINE",
"102 0 LINE",
"398 0 LINE",
"400 8 LINE",
"290 45 LINE",
"290 571 LINE",
"398 564 LINE",
"429 403 LINE",
"437 401 LINE",
"476 612 LINE",
"250 600 LINE",
"23 612 LINE"
);
}
);
width = 499;
},
{
anchors = (
{
name = bottom;
position = "{234, 0}";
},
{
name = center;
position = "{238, 300}";
},
{
name = top;
position = "{241, 600}";
}
);
layerId = "2C26E880-80A5-4D19-8A94-7D905A372841";
paths = (
{
closed = 1;
nodes = (
"74 421 LINE",
"82 423 LINE",
"102 575 LINE",
"223 578 LINE",
"223 45 LINE",
"113 8 LINE",
"115 0 LINE",
"366 0 LINE",
"368 8 LINE",
"258 45 LINE",
"258 578 LINE",
"380 575 LINE",
"400 423 LINE",
"408 421 LINE",
"447 612 LINE",
"241 600 LINE",
"35 612 LINE"
);
}
);
width = 482;
}
);
leftKerningGroup = T;
rightKerningGroup = T;
unicode = 0054;
},
{
glyphname = U;
lastChange = "2022-09-25 10:44:41 +0000";
layers = (
{
anchors = (
{
name = bottom;
position = "{526, 0}";
},
{
name = ogonek;
position = "{691, 10}";
},
{
name = top;
position = "{526, 600}";
},
{
name = topright;
position = "{1064, 600}";
}
);
layerId = "0CCC0E2D-406A-4672-8E6C-854B1DF78A27";
paths = (
{
closed = 1;
nodes = (
"160 83 OFFCURVE",
"284 -20 OFFCURVE",
"523 -20 CURVE SMOOTH",
"754 -20 OFFCURVE",
"874 96 OFFCURVE",
"874 261 CURVE SMOOTH",
"874 550 LINE",
"1024 592 LINE",
"1022 600 LINE",
"689 600 LINE",
"687 592 LINE",
"837 550 LINE",
"837 256 LINE SMOOTH",
"837 118 OFFCURVE",
"731 15 OFFCURVE",
"527 15 CURVE SMOOTH",
"310 15 OFFCURVE",
"197 108 OFFCURVE",
"197 285 CURVE SMOOTH",
"197 550 LINE",
"347 592 LINE",
"345 600 LINE",
"12 600 LINE",
"10 592 LINE",
"160 550 LINE",
"160 279 LINE SMOOTH"
);
}
);
width = 1039;
},
{
anchors = (
{
name = bottom;
position = "{546, 0}";
},
{
name = ogonek;
position = "{711, 10}";
},
{
name = top;
position = "{546, 600}";
},
{
name = topright;
position = "{1084, 600}";
}
);
layerId = m002;
paths = (
{
closed = 1;
nodes = (
"144 79 OFFCURVE",
"277 -20 OFFCURVE",
"516 -20 CURVE SMOOTH",
"757 -20 OFFCURVE",
"906 81 OFFCURVE",
"911 247 CURVE SMOOTH",
"921 550 LINE",
"1071 592 LINE",
"1069 600 LINE",
"702 600 LINE",
"700 592 LINE",
"850 550 LINE",
"852 220 LINE SMOOTH",
"853 106 OFFCURVE",
"739 31 OFFCURVE",
"566 31 CURVE SMOOTH",
"365 31 OFFCURVE",
"240 131 OFFCURVE",
"240 291 CURVE SMOOTH",
"240 550 LINE",
"390 592 LINE",
"388 600 LINE",
"-4 600 LINE",
"-6 592 LINE",
"144 550 LINE",
"144 255 LINE SMOOTH"
);
}
);
width = 1071;
},
{
anchors = (
{
name = bottom;
position = "{279, 0}";
},
{
name = ogonek;
position = "{355, 10}";
},
{
name = top;
position = "{279, 600}";
},
{
name = topright;
position = "{597, 600}";
}
);
layerId = m003;
paths = (
{
closed = 1;
nodes = (
"90 42 OFFCURVE",
"150 -20 OFFCURVE",
"275 -20 CURVE SMOOTH",
"406 -20 OFFCURVE",
"472 48 OFFCURVE",
"474 186 CURVE SMOOTH",
"478 556 LINE",
"570 592 LINE",
"568 600 LINE",
"319 600 LINE",
"317 592 LINE",
"414 556 LINE",
"418 156 LINE SMOOTH",
"419 72 OFFCURVE",
"379 29 OFFCURVE",
"302 29 CURVE SMOOTH",
"212 29 OFFCURVE",
"168 87 OFFCURVE",
"168 205 CURVE SMOOTH",
"168 556 LINE",
"265 592 LINE",
"263 600 LINE",
"-1 600 LINE",
"-3 592 LINE",
"90 556 LINE",
"90 174 LINE SMOOTH"
);
}
);
width = 568;
},
{
anchors = (
{
name = bottom;
position = "{254, 0}";
},
{
name = ogonek;
position = "{330, 10}";
},
{
name = top;
position = "{254, 600}";
},
{
name = topright;
position = "{572, 600}";
}
);
layerId = "2C26E880-80A5-4D19-8A94-7D905A372841";
paths = (
{
closed = 1;
nodes = (
"91 49 OFFCURVE",
"151 -20 OFFCURVE",
"260 -20 CURVE SMOOTH",
"375 -20 OFFCURVE",
"438 53 OFFCURVE",
"436 202 CURVE SMOOTH",
"432 555 LINE",
"512 592 LINE",
"510 600 LINE",
"289 600 LINE",
"287 592 LINE",
"397 555 LINE",
"402 195 LINE SMOOTH",
"404 74 OFFCURVE",
"353 10 OFFCURVE",
"270 10 CURVE SMOOTH",
"177 10 OFFCURVE",
"126 74 OFFCURVE",
"126 197 CURVE SMOOTH",
"127 555 LINE",
"237 592 LINE",
"235 600 LINE",
"12 600 LINE",
"10 592 LINE",
"90 555 LINE",
"91 190 LINE SMOOTH"
);
}
);
width = 522;
}
);
leftKerningGroup = U;
rightKerningGroup = U;
unicode = 0055;
},
{
glyphname = V;
lastChange = "2022-09-25 10:31:32 +0000";
layers = (
{
anchors = (
{
name = bottom;
position = "{443, 0}";
},
{
name = top;
position = "{439, 600}";
}
);
layerId = "0CCC0E2D-406A-4672-8E6C-854B1DF78A27";
paths = (
{
closed = 1;
nodes = (
"80 550 LINE",
"414 0 LINE",
"441 0 LINE",
"765 550 LINE",
"895 592 LINE",
"893 600 LINE",
"554 600 LINE",
"552 592 LINE",
"727 550 LINE",
"425 32 LINE",
"435 33 LINE",
"123 550 LINE",
"298 592 LINE",
"296 600 LINE",
"-48 600 LINE",
"-50 592 LINE"
);
}
);
width = 855;
},
{
anchors = (
{
name = bottom;
position = "{484, 0}";
},
{
name = top;
position = "{480, 600}";
}
);
layerId = m002;
paths = (
{
closed = 1;
nodes = (
"72 550 LINE",
"441 0 LINE",
"503 0 LINE",
"832 550 LINE",
"962 592 LINE",
"960 600 LINE",
"588 600 LINE",
"586 592 LINE",
"761 550 LINE",
"474 35 LINE",
"528 33 LINE",
"198 550 LINE",
"373 592 LINE",
"371 600 LINE",
"-64 600 LINE",
"-66 592 LINE"
);
}
);
width = 906;
},
{
anchors = (
{
name = bottom;
position = "{280, 0}";
},
{
name = top;
position = "{275, 600}";
}
);
layerId = m003;
paths = (
{
closed = 1;
nodes = (
"53 555 LINE",
"238 0 LINE",
"294 0 LINE",
"466 555 LINE",
"546 592 LINE",
"544 600 LINE",
"300 600 LINE",
"298 592 LINE",
"408 555 LINE",
"258 35 LINE",
"301 41 LINE",
"142 555 LINE",
"252 592 LINE",
"250 600 LINE",
"-26 600 LINE",
"-28 592 LINE"
);
}
);
width = 524;
},
{
anchors = (
{
name = bottom;
position = "{238, 0}";
},
{
name = top;
position = "{238, 600}";
}
);
layerId = "2C26E880-80A5-4D19-8A94-7D905A372841";
paths = (
{
closed = 1;
nodes = (
"59 555 LINE",
"223 0 LINE",
"251 0 LINE",
"414 555 LINE",
"494 592 LINE",
"492 600 LINE",
"273 600 LINE",
"271 592 LINE",
"381 555 LINE",
"229 32 LINE",
"247 41 LINE",
"97 555 LINE",
"207 592 LINE",
"205 600 LINE",
"-15 600 LINE",
"-17 592 LINE"
);
}
);
width = 483;
}
);
leftKerningGroup = V;
rightKerningGroup = V;
unicode = 0056;
},
{
glyphname = W;
lastChange = "2022-09-25 10:50:02 +0000";
layers = (
{
anchors = (
{
name = bottom;
position = "{555, 0}";
},
{
name = top;
position = "{555, 600}";
}
);
layerId = "0CCC0E2D-406A-4672-8E6C-854B1DF78A27";
paths = (
{
closed = 1;
nodes = (
"106 547 LINE",
"341 0 LINE",
"364 0 LINE",
"582 585 LINE",
"563 574 LINE",
"793 0 LINE",
"816 0 LINE",
"1030 547 LINE",
"1192 592 LINE",
"1190 600 LINE",
"786 600 LINE",
"784 592 LINE",
"989 547 LINE",
"803 50 LINE",
"809 52 LINE",
"591 600 LINE",
"540 579 LINE",
"349 56 LINE",
"359 44 LINE",
"148 547 LINE",
"362 592 LINE",
"359 600 LINE",
"-58 600 LINE",
"-60 592 LINE"
);
}
);
width = 1142;
},
{
anchors = (
{
name = bottom;
position = "{590, 0}";
},
{
name = top;
position = "{590, 600}";
}
);
layerId = m002;
paths = (
{
closed = 1;
nodes = (
"90 547 LINE",
"330 0 LINE",
"384 0 LINE",
"617 585 LINE",
"567 574 LINE",
"833 0 LINE",
"889 0 LINE",
"1080 547 LINE",
"1242 592 LINE",
"1240 600 LINE",
"807 600 LINE",
"805 592 LINE",
"1010 547 LINE",
"865 66 LINE",
"905 69 LINE",
"650 600 LINE",
"569 579 LINE",
"362 56 LINE",
"402 60 LINE",
"206 547 LINE",
"420 592 LINE",
"417 600 LINE",
"-74 600 LINE",
"-76 592 LINE"
);
}
);
width = 1176;
},
{
anchors = (
{
name = bottom;
position = "{339, 0}";
},
{
name = top;
position = "{339, 600}";
}
);
layerId = m003;
paths = (
{
closed = 1;
nodes = (
"45 555 LINE",
"193 0 LINE",
"251 0 LINE",
"352 585 LINE",
"316 574 LINE",
"442 0 LINE",
"509 0 LINE",
"617 555 LINE",
"709 592 LINE",
"707 600 LINE",
"467 600 LINE",
"465 592 LINE",
"563 555 LINE",
"478 22 LINE",
"500 35 LINE",
"386 600 LINE",
"308 579 LINE",
"220 60 LINE",
"241 60 LINE",
"129 555 LINE",
"227 592 LINE",
"224 600 LINE",
"-46 600 LINE",
"-48 592 LINE"
);
}
);
width = 666;
},
{
anchors = (
{
name = bottom;
position = "{298, 0}";
},
{
name = top;
position = "{298, 600}";
}
);
layerId = "2C26E880-80A5-4D19-8A94-7D905A372841";
paths = (
{
closed = 1;
nodes = (
"40 555 LINE",
"163 0 LINE",
"193 0 LINE",
"311 585 LINE",
"291 574 LINE",
"417 0 LINE",
"454 0 LINE",
"562 555 LINE",
"642 592 LINE",
"640 600 LINE",
"419 600 LINE",
"417 592 LINE",
"527 555 LINE",
"428 11 LINE",
"445 22 LINE",
"320 600 LINE",
"277 579 LINE",
"172 42 LINE",
"185 31 LINE",
"76 555 LINE",
"186 592 LINE",
"183 600 LINE",
"-38 600 LINE",
"-40 592 LINE"
);
}
);
width = 612;
}
);
leftKerningGroup = W;
rightKerningGroup = W;
unicode = 0057;
},
{
glyphname = X;
lastChange = "2022-09-25 10:52:01 +0000";
layers = (
{
anchors = (
{
name = bottom;
position = "{493, 0}";
},
{
name = top;
position = "{493, 600}";
}
);
background = {
paths = (
{
closed = 1;
nodes = (
"-51 0 LINE",
"314 0 LINE",
"316 8 LINE",
"166 50 LINE",
"475 277 LINE",
"769 50 LINE",
"619 8 LINE",
"621 0 LINE",
"1037 0 LINE",
"1039 8 LINE",
"889 50 LINE",
"537 322 LINE",
"849 550 LINE",
"999 592 LINE",
"997 600 LINE",
"632 600 LINE",
"630 592 LINE",
"780 550 LINE",
"503 348 LINE",
"241 550 LINE",
"391 592 LINE",
"388 600 LINE",
"-27 600 LINE",
"-29 592 LINE",
"121 550 LINE",
"442 302 LINE",
"97 50 LINE",
"-53 8 LINE"
);
}
);
};
layerId = "0CCC0E2D-406A-4672-8E6C-854B1DF78A27";
paths = (
{
closed = 1;
nodes = (
"503 300 LINE",
"817 550 LINE",
"957 592 LINE",
"955 600 LINE",
"607 600 LINE",
"605 592 LINE",
"765 550 LINE",
"482 322 LINE"
);
},
{
closed = 1;
nodes = (
"475 318 LINE",
"130 50 LINE",
"-10 8 LINE",
"-8 0 LINE",
"354 0 LINE",
"356 8 LINE",
"186 50 LINE",
"498 294 LINE"
);
},
{
closed = 1;
nodes = (
"211 550 LINE",
"371 592 LINE",
"368 600 LINE",
"26 600 LINE",
"24 592 LINE",
"154 550 LINE",
"799 50 LINE",
"629 8 LINE",
"631 0 LINE",
"984 0 LINE",
"986 8 LINE",
"856 50 LINE"
);
}
);
width = 976;
},
{
anchors = (
{
name = bottom;
position = "{513, 0}";
},
{
name = top;
position = "{513, 600}";
}
);
background = {
paths = (
{
closed = 1;
nodes = (
"-38 0 LINE",
"327 0 LINE",
"329 8 LINE",
"179 50 LINE",
"488 277 LINE",
"782 50 LINE",
"632 8 LINE",
"634 0 LINE",
"1050 0 LINE",
"1052 8 LINE",
"902 50 LINE",
"550 322 LINE",
"862 550 LINE",
"1012 592 LINE",
"1010 600 LINE",
"645 600 LINE",
"643 592 LINE",
"793 550 LINE",
"516 348 LINE",
"254 550 LINE",
"404 592 LINE",
"401 600 LINE",
"-14 600 LINE",
"-16 592 LINE",
"134 550 LINE",
"455 302 LINE",
"110 50 LINE",
"-40 8 LINE"
);
}
);
};
layerId = m002;
paths = (
{
closed = 1;
nodes = (
"546 312 LINE",
"887 550 LINE",
"1011 592 LINE",
"1009 600 LINE",
"619 600 LINE",
"617 592 LINE",
"777 550 LINE",
"498 334 LINE"
);
},
{
closed = 1;
nodes = (
"458 319 LINE",
"98 50 LINE",
"-26 8 LINE",
"-24 0 LINE",
"382 0 LINE",
"384 8 LINE",
"214 50 LINE",
"508 295 LINE"
);
},
{
closed = 1;
nodes = (
"269 550 LINE",
"429 592 LINE",
"426 600 LINE",
"-6 600 LINE",
"-8 592 LINE",
"122 550 LINE",
"780 50 LINE",
"610 8 LINE",
"612 0 LINE",
"1055 0 LINE",
"1057 8 LINE",
"927 50 LINE"
);
}
);
width = 1031;
},
{
anchors = (
{
name = bottom;
position = "{283, 0}";
},
{
name = top;
position = "{296, 600}";
}
);
layerId = m003;
paths = (
{
closed = 1;
nodes = (
"292 268 LINE",
"467 555 LINE",
"544 592 LINE",
"542 600 LINE",
"309 600 LINE",
"307 592 LINE",
"407 555 LINE",
"265 302 LINE"
);
},
{
closed = 1;
nodes = (
"267 334 LINE",
"86 45 LINE",
"8 8 LINE",
"10 0 LINE",
"243 0 LINE",
"245 8 LINE",
"145 45 LINE",
"294 300 LINE"
);
},
{
closed = 1;
nodes = (
"182 555 LINE",
"282 592 LINE",
"279 600 LINE",
"19 600 LINE",
"17 592 LINE",
"97 555 LINE",
"396 45 LINE",
"296 8 LINE",
"298 0 LINE",
"561 0 LINE",
"563 8 LINE",
"483 45 LINE"
);
}
);
width = 571;
},
{
anchors = (
{
name = bottom;
position = "{276, 0}";
},
{
name = top;
position = "{274, 600}";
}
);
layerId = "2C26E880-80A5-4D19-8A94-7D905A372841";
paths = (
{
closed = 1;
nodes = (
"290 297 LINE",
"426 555 LINE",
"515 592 LINE",
"513 600 LINE",
"291 600 LINE",
"289 592 LINE",
"389 555 LINE",
"271 326 LINE"
);
},
{
closed = 1;
nodes = (
"259 320 LINE",
"110 45 LINE",
"20 8 LINE",
"22 0 LINE",
"244 0 LINE",
"246 8 LINE",
"146 45 LINE",
"278 291 LINE"
);
},
{
closed = 1;
nodes = (
"156 555 LINE",
"256 592 LINE",
"253 600 LINE",
"38 600 LINE",
"36 592 LINE",
"116 555 LINE",
"409 45 LINE",
"309 8 LINE",
"311 0 LINE",
"527 0 LINE",
"529 8 LINE",
"449 45 LINE"
);
}
);
width = 549;
}
);
leftKerningGroup = X;
rightKerningGroup = X;
unicode = 0058;
},
{
glyphname = Y;
lastChange = "2022-09-20 19:14:36 +0000";
layers = (
{
anchors = (
{
name = bottom;
position = "{464, 0}";
},
{
name = top;
position = "{484, 600}";
},
{
name = topleft;
position = "{-8, 600}";
}
);
layerId = "0CCC0E2D-406A-4672-8E6C-854B1DF78A27";
paths = (
{
closed = 1;
nodes = (
"120 550 LINE",
"453 250 LINE",
"453 50 LINE",
"298 6 LINE",
"300 0 LINE",
"638 0 LINE",
"640 6 LINE",
"490 50 LINE",
"490 251 LINE",
"808 550 LINE",
"928 592 LINE",
"926 600 LINE",
"586 600 LINE",
"584 592 LINE",
"764 550 LINE",
"462 264 LINE",
"478 267 LINE",
"166 550 LINE",
"346 592 LINE",
"344 600 LINE",
"2 600 LINE",
"0 592 LINE"
);
}
);
width = 948;
},
{
anchors = (
{
name = bottom;
position = "{507, 0}";
},
{
name = top;
position = "{527, 600}";
},
{
name = topleft;
position = "{35, 600}";
}
);
layerId = m002;
paths = (
{
closed = 1;
nodes = (
"104 550 LINE",
"448 250 LINE",
"448 50 LINE",
"293 6 LINE",
"295 0 LINE",
"692 0 LINE",
"694 6 LINE",
"544 50 LINE",
"544 251 LINE",
"862 550 LINE",
"982 592 LINE",
"980 600 LINE",
"599 600 LINE",
"597 592 LINE",
"777 550 LINE",
"502 264 LINE",
"558 274 LINE",
"261 550 LINE",
"441 592 LINE",
"439 600 LINE",
"-14 600 LINE",
"-16 592 LINE"
);
}
);
width = 986;
},
{
anchors = (
{
name = bottom;
position = "{263, 0}";
},
{
name = top;
position = "{266, 600}";
},
{
name = topleft;
position = "{-69, 600}";
}
);
layerId = m003;
paths = (
{
closed = 1;
nodes = (
"67 555 LINE",
"219 250 LINE",
"219 45 LINE",
"109 8 LINE",
"111 0 LINE",
"406 0 LINE",
"408 8 LINE",
"298 45 LINE",
"298 251 LINE",
"436 555 LINE",
"516 592 LINE",
"514 600 LINE",
"280 600 LINE",
"278 592 LINE",
"378 555 LINE",
"256 250 LINE",
"291 249 LINE",
"149 555 LINE",
"249 592 LINE",
"247 600 LINE",
"-11 600 LINE",
"-13 592 LINE"
);
}
);
width = 529;
},
{
anchors = (
{
name = bottom;
position = "{232, 0}";
},
{
name = top;
position = "{235, 600}";
},
{
name = topleft;
position = "{-100, 600}";
}
);
layerId = "2C26E880-80A5-4D19-8A94-7D905A372841";
paths = (
{
closed = 1;
nodes = (
"80 555 LINE",
"224 250 LINE",
"224 45 LINE",
"114 8 LINE",
"116 0 LINE",
"367 0 LINE",
"369 8 LINE",
"259 45 LINE",
"259 251 LINE",
"396 555 LINE",
"476 592 LINE",
"474 600 LINE",
"264 600 LINE",
"262 592 LINE",
"362 555 LINE",
"234 262 LINE",
"251 265 LINE",
"120 555 LINE",
"220 592 LINE",
"218 600 LINE",
"2 600 LINE",
"0 592 LINE"
);
}
);
width = 476;
}
);
leftKerningGroup = Y;
rightKerningGroup = Y;
unicode = 0059;
},
{
glyphname = Z;
lastChange = "2022-09-20 19:14:36 +0000";
layers = (
{
anchors = (
{
name = bottom;
position = "{394, 0}";
},
{
name = center;
position = "{394, 300}";
},
{
name = top;
position = "{394, 600}";
}
);
layerId = "0CCC0E2D-406A-4672-8E6C-854B1DF78A27";
paths = (
{
closed = 1;
nodes = (
"765 0 LINE",
"745 205 LINE",
"737 203 LINE",
"685 30 LINE",
"63 28 LINE",
"52 9 LINE",
"724 576 LINE",
"711 600 LINE",
"27 612 LINE",
"75 420 LINE",
"83 422 LINE",
"108 581 LINE",
"681 575 LINE",
"692 592 LINE",
"20 24 LINE",
"33 0 LINE"
);
}
);
width = 785;
},
{
anchors = (
{
name = bottom;
position = "{423, 0}";
},
{
name = center;
position = "{423, 300}";
},
{
name = top;
position = "{423, 600}";
}
);
layerId = m002;
paths = (
{
closed = 1;
nodes = (
"830 0 LINE",
"810 237 LINE",
"802 235 LINE",
"750 62 LINE",
"92 44 LINE",
"105 9 LINE",
"796 560 LINE",
"776 600 LINE",
"19 612 LINE",
"67 390 LINE",
"75 392 LINE",
"100 551 LINE",
"710 559 LINE",
"697 592 LINE",
"4 40 LINE",
"25 0 LINE"
);
}
);
width = 834;
},
{
anchors = (
{
name = bottom;
position = "{245, 0}";
},
{
name = center;
position = "{241, 300}";
},
{
name = top;
position = "{240, 600}";
}
);
layerId = m003;
paths = (
{
closed = 1;
nodes = (
"432 0 LINE",
"412 224 LINE",
"404 222 LINE",
"355 48 LINE",
"68 34 LINE",
"82 9 LINE",
"412 574 LINE",
"393 600 LINE",
"26 612 LINE",
"76 401 LINE",
"84 403 LINE",
"103 564 LINE",
"355 568 LINE",
"340 592 LINE",
"8 26 LINE",
"27 0 LINE"
);
}
);
width = 440;
},
{
anchors = (
{
name = bottom;
position = "{186, 0}";
},
{
name = center;
position = "{204, 300}";
},
{
name = top;
position = "{206, 600}";
}
);
background = {
paths = (
{
closed = 1;
nodes = (
"347 600 LINE",
"39 612 LINE",
"78 421 LINE",
"86 423 LINE",
"106 575 LINE",
"323 579 LINE"
);
},
{
closed = 1;
nodes = (
"318 30 LINE",
"355 196 LINE",
"363 198 LINE",
"384 0 LINE",
"37 0 LINE",
"37 25 LINE"
);
}
);
};
layerId = "2C26E880-80A5-4D19-8A94-7D905A372841";
paths = (
{
closed = 1;
nodes = (
"384 0 LINE",
"363 198 LINE",
"355 196 LINE",
"318 30 LINE",
"42 25 LINE",
"54 9 LINE",
"358 585 LINE",
"345 600 LINE",
"39 612 LINE",
"78 421 LINE",
"86 423 LINE",
"106 575 LINE",
"333 579 LINE",
"324 592 LINE",
"20 15 LINE",
"34 0 LINE"
);
}
);
width = 404;
}
);
leftKerningGroup = Z;
rightKerningGroup = Z;
unicode = 005A;
},
{
glyphname = T_b.liga;
lastChange = "2022-09-20 19:14:36 +0000";
layers = (
{
layerId = "0CCC0E2D-406A-4672-8E6C-854B1DF78A27";
paths = (
{
closed = 1;
nodes = (
"838 51 LINE",
"906 7 OFFCURVE",
"997 -20 OFFCURVE",
"1092 -20 CURVE SMOOTH",
"1276 -20 OFFCURVE",
"1400 72 OFFCURVE",
"1400 209 CURVE SMOOTH",
"1400 338 OFFCURVE",
"1293 420 OFFCURVE",
"1140 420 CURVE SMOOTH",
"1040 420 OFFCURVE",
"938 386 OFFCURVE",
"873 336 CURVE",
"873 662 LINE",
"742 610 LINE",
"414 600 LINE",
"35 610 LINE",
"73 419 LINE",
"81 421 LINE",
"107 579 LINE",
"395 579 LINE",
"396 50 LINE",
"246 8 LINE",
"248 0 LINE",
"581 0 LINE",
"583 8 LINE",
"433 50 LINE",
"432 579 LINE",
"838 580 LINE"
);
},
{
closed = 1;
nodes = (
"873 303 LINE",
"922 351 OFFCURVE",
"1028 391 OFFCURVE",
"1127 391 CURVE SMOOTH",
"1256 391 OFFCURVE",
"1365 320 OFFCURVE",
"1365 198 CURVE SMOOTH",
"1365 84 OFFCURVE",
"1257 5 OFFCURVE",
"1102 5 CURVE SMOOTH",
"1019 5 OFFCURVE",
"927 30 OFFCURVE",
"873 67 CURVE"
);
}
);
width = 1444;
},
{
layerId = "2C26E880-80A5-4D19-8A94-7D905A372841";
paths = (
{
closed = 1;
nodes = (
"482 31 LINE",
"533 -5 OFFCURVE",
"572 -20 OFFCURVE",
"613 -20 CURVE SMOOTH",
"710 -20 OFFCURVE",
"774 67 OFFCURVE",
"774 200 CURVE SMOOTH",
"774 327 OFFCURVE",
"712 411 OFFCURVE",
"619 411 CURVE SMOOTH",
"577 411 OFFCURVE",
"532 393 OFFCURVE",
"512 369 CURVE",
"512 661 LINE",
"413 608 LINE",
"241 600 LINE",
"35 612 LINE",
"74 421 LINE",
"82 423 LINE",
"102 575 LINE",
"223 578 LINE",
"223 45 LINE",
"113 8 LINE",
"115 0 LINE",
"366 0 LINE",
"368 8 LINE",
"258 45 LINE",
"258 578 LINE",
"482 575 LINE"
);
},
{
closed = 1;
nodes = (
"512 332 LINE",
"525 362 OFFCURVE",
"571 386 OFFCURVE",
"615 386 CURVE SMOOTH",
"694 386 OFFCURVE",
"744 309 OFFCURVE",
"744 188 CURVE SMOOTH",
"744 74 OFFCURVE",
"697 5 OFFCURVE",
"620 5 CURVE SMOOTH",
"582 5 OFFCURVE",
"538 22 OFFCURVE",
"512 47 CURVE"
);
}
);
width = 813;
},
{
layerId = m003;
paths = (
{
closed = 1;
nodes = (
"469 37 LINE",
"505 4 OFFCURVE",
"564 -20 OFFCURVE",
"624 -20 CURVE SMOOTH",
"729 -20 OFFCURVE",
"811 82 OFFCURVE",
"811 216 CURVE SMOOTH",
"811 339 OFFCURVE",
"749 422 OFFCURVE",
"656 422 CURVE SMOOTH",
"609 422 OFFCURVE",
"574 402 OFFCURVE",
"543 357 CURVE",
"543 650 LINE",
"447 612 LINE",
"250 600 LINE",
"23 612 LINE",
"62 401 LINE",
"70 403 LINE",
"101 564 LINE",
"210 571 LINE",
"210 45 LINE",
"100 8 LINE",
"102 0 LINE",
"398 0 LINE",
"400 8 LINE",
"290 45 LINE",
"290 571 LINE",
"469 561 LINE"
);
},
{
closed = 1;
nodes = (
"543 311 LINE",
"569 354 OFFCURVE",
"597 375 OFFCURVE",
"631 375 CURVE SMOOTH",
"695 375 OFFCURVE",
"737 299 OFFCURVE",
"737 188 CURVE SMOOTH",
"737 84 OFFCURVE",
"698 20 OFFCURVE",
"629 20 CURVE SMOOTH",
"596 20 OFFCURVE",
"563 34 OFFCURVE",
"543 53 CURVE"
);
}
);
width = 845;
},
{
layerId = m002;
paths = (
{
closed = 1;
nodes = (
"912 59 LINE",
"972 10 OFFCURVE",
"1080 -20 OFFCURVE",
"1182 -20 CURVE SMOOTH",
"1384 -20 OFFCURVE",
"1536 92 OFFCURVE",
"1536 230 CURVE SMOOTH",
"1536 342 OFFCURVE",
"1427 436 OFFCURVE",
"1276 436 CURVE SMOOTH",
"1182 436 OFFCURVE",
"1082 399 OFFCURVE",
"1001 336 CURVE",
"1001 700 LINE",
"746 606 LINE",
"473 600 LINE",
"19 610 LINE",
"65 390 LINE",
"73 392 LINE",
"107 550 LINE",
"425 558 LINE",
"426 50 LINE",
"276 8 LINE",
"278 0 LINE",
"671 0 LINE",
"673 8 LINE",
"523 50 LINE",
"522 558 LINE",
"912 551 LINE"
);
},
{
closed = 1;
nodes = (
"1001 285 LINE",
"1078 359 OFFCURVE",
"1150 385 OFFCURVE",
"1235 385 CURVE SMOOTH",
"1376 385 OFFCURVE",
"1447 307 OFFCURVE",
"1447 198 CURVE SMOOTH",
"1447 96 OFFCURVE",
"1353 24 OFFCURVE",
"1218 24 CURVE SMOOTH",
"1148 24 OFFCURVE",
"1053 39 OFFCURVE",
"1001 75 CURVE"
);
}
);
width = 1565;
}
);
leftMetricsKey = T;
rightMetricsKey = b;
},
{
glyphname = T_h.liga;
lastChange = "2022-09-20 19:14:36 +0000";
layers = (
{
anchors = (
{
name = bottom;
position = "{430, 0}";
},
{
name = center;
position = "{414, 300}";
},
{
name = top;
position = "{414, 600}";
}
);
layerId = "0CCC0E2D-406A-4672-8E6C-854B1DF78A27";
paths = (
{
closed = 1;
nodes = (
"73 419 LINE",
"81 421 LINE",
"107 579 LINE",
"395 579 LINE",
"396 50 LINE",
"246 8 LINE",
"248 0 LINE",
"581 0 LINE",
"583 8 LINE",
"433 50 LINE",
"432 579 LINE",
"888 580 LINE",
"888 50 LINE",
"748 6 LINE",
"750 0 LINE",
"1071 0 LINE",
"1073 6 LINE",
"923 50 LINE",
"923 662 LINE",
"792 610 LINE",
"414 600 LINE",
"35 610 LINE"
);
},
{
closed = 1;
nodes = (
"913 297 LINE",
"1016 365 OFFCURVE",
"1103 392 OFFCURVE",
"1196 392 CURVE SMOOTH",
"1329 392 OFFCURVE",
"1386 331 OFFCURVE",
"1387 217 CURVE SMOOTH",
"1388 50 LINE",
"1238 8 LINE",
"1240 0 LINE",
"1551 1 LINE",
"1553 9 LINE",
"1422 49 LINE",
"1422 224 LINE SMOOTH",
"1422 351 OFFCURVE",
"1353 420 OFFCURVE",
"1208 420 CURVE SMOOTH",
"1113 420 OFFCURVE",
"1016 390 OFFCURVE",
"913 323 CURVE"
);
}
);
width = 1572;
},
{
anchors = (
{
name = bottom;
position = "{489, 0}";
},
{
name = center;
position = "{473, 300}";
},
{
name = top;
position = "{473, 600}";
}
);
layerId = m002;
paths = (
{
closed = 1;
nodes = (
"65 390 LINE",
"73 392 LINE",
"107 550 LINE",
"425 558 LINE",
"426 50 LINE",
"276 8 LINE",
"278 0 LINE",
"671 0 LINE",
"673 8 LINE",
"523 50 LINE",
"522 558 LINE",
"962 551 LINE",
"962 50 LINE",
"822 9 LINE",
"824 0 LINE",
"1199 0 LINE",
"1201 9 LINE",
"1051 50 LINE",
"1051 700 LINE",
"796 606 LINE",
"473 600 LINE",
"19 610 LINE"
);
},
{
closed = 1;
nodes = (
"1017 284 LINE",
"1110 345 OFFCURVE",
"1210 379 OFFCURVE",
"1279 379 CURVE SMOOTH",
"1402 379 OFFCURVE",
"1468 321 OFFCURVE",
"1469 212 CURVE SMOOTH",
"1470 50 LINE",
"1320 8 LINE",
"1322 0 LINE",
"1687 1 LINE",
"1689 9 LINE",
"1558 49 LINE",
"1558 208 LINE SMOOTH",
"1558 355 OFFCURVE",
"1473 436 OFFCURVE",
"1328 436 CURVE SMOOTH",
"1231 436 OFFCURVE",
"1125 397 OFFCURVE",
"1017 323 CURVE"
);
}
);
width = 1695;
},
{
anchors = (
{
name = bottom;
position = "{263, 0}";
},
{
name = center;
position = "{244, 300}";
},
{
name = top;
position = "{245, 600}";
}
);
layerId = m003;
paths = (
{
closed = 1;
nodes = (
"62 401 LINE",
"70 403 LINE",
"101 564 LINE",
"210 571 LINE",
"210 45 LINE",
"100 8 LINE",
"102 0 LINE",
"398 0 LINE",
"400 8 LINE",
"290 45 LINE",
"290 571 LINE",
"499 561 LINE",
"499 45 LINE",
"426 8 LINE",
"428 0 LINE",
"643 0 LINE",
"645 8 LINE",
"573 45 LINE",
"573 650 LINE",
"477 612 LINE",
"250 600 LINE",
"23 612 LINE"
);
},
{
closed = 1;
nodes = (
"550 276 LINE",
"597 340 OFFCURVE",
"638 370 OFFCURVE",
"678 370 CURVE SMOOTH",
"728 370 OFFCURVE",
"756 327 OFFCURVE",
"756 253 CURVE SMOOTH",
"756 45 LINE",
"676 8 LINE",
"678 0 LINE",
"928 1 LINE",
"930 9 LINE",
"829 44 LINE",
"829 264 LINE SMOOTH",
"829 362 OFFCURVE",
"791 422 OFFCURVE",
"717 422 CURVE SMOOTH",
"663 422 OFFCURVE",
"610 389 OFFCURVE",
"550 312 CURVE"
);
}
);
width = 938;
},
{
anchors = (
{
name = bottom;
position = "{246, 0}";
},
{
name = center;
position = "{240, 300}";
},
{
name = top;
position = "{236, 600}";
}
);
layerId = "2C26E880-80A5-4D19-8A94-7D905A372841";
paths = (
{
closed = 1;
nodes = (
"74 421 LINE",
"82 423 LINE",
"102 575 LINE",
"223 578 LINE",
"223 45 LINE",
"113 8 LINE",
"115 0 LINE",
"366 0 LINE",
"368 8 LINE",
"258 45 LINE",
"258 578 LINE",
"512 575 LINE",
"512 47 LINE",
"402 8 LINE",
"404 0 LINE",
"650 0 LINE",
"652 8 LINE",
"542 47 LINE",
"542 661 LINE",
"443 608 LINE",
"241 600 LINE",
"35 612 LINE"
);
},
{
closed = 1;
nodes = (
"534 287 LINE",
"590 361 OFFCURVE",
"633 384 OFFCURVE",
"679 384 CURVE SMOOTH",
"735 384 OFFCURVE",
"757 349 OFFCURVE",
"757 257 CURVE SMOOTH",
"757 45 LINE",
"677 8 LINE",
"679 0 LINE",
"886 1 LINE",
"888 9 LINE",
"787 44 LINE",
"787 264 LINE SMOOTH",
"787 378 OFFCURVE",
"747 411 OFFCURVE",
"689 411 CURVE SMOOTH",
"632 411 OFFCURVE",
"583 382 OFFCURVE",
"534 319 CURVE"
);
}
);
width = 907;
}
);
leftKerningGroup = T;
leftMetricsKey = T;
rightKerningGroup = n;
rightMetricsKey = h;
},
{
glyphname = T_k.liga;
lastChange = "2022-09-21 11:08:21 +0000";
layers = (
{
anchors = (
{
name = bottom;
position = "{430, 0}";
},
{
name = center;
position = "{414, 300}";
},
{
name = top;
position = "{414, 600}";
}
);
layerId = "0CCC0E2D-406A-4672-8E6C-854B1DF78A27";
paths = (
{
closed = 1;
nodes = (
"1340 350 LINE",
"1503 392 LINE",
"1501 400 LINE",
"1126 400 LINE",
"1124 392 LINE",
"1285 350 LINE",
"909 143 LINE",
"918 118 LINE"
);
},
{
closed = 1;
nodes = (
"1108 243 LINE",
"1374 50 LINE",
"1214 8 LINE",
"1216 0 LINE",
"1559 0 LINE",
"1561 8 LINE",
"1426 50 LINE",
"1139 260 LINE"
);
},
{
closed = 1;
nodes = (
"73 419 LINE",
"81 421 LINE",
"107 579 LINE",
"395 579 LINE",
"396 50 LINE",
"246 8 LINE",
"248 0 LINE",
"581 0 LINE",
"583 8 LINE",
"433 50 LINE",
"432 579 LINE",
"888 580 LINE",
"888 50 LINE",
"748 6 LINE",
"750 0 LINE",
"1071 0 LINE",
"1073 6 LINE",
"923 50 LINE",
"923 662 LINE",
"792 610 LINE",
"414 600 LINE",
"35 610 LINE"
);
}
);
width = 1570;
},
{
anchors = (
{
name = bottom;
position = "{489, 0}";
},
{
name = center;
position = "{473, 300}";
},
{
name = top;
position = "{473, 600}";
}
);
layerId = m002;
paths = (
{
closed = 1;
nodes = (
"1488 366 LINE",
"1615 408 LINE",
"1613 416 LINE",
"1217 416 LINE",
"1215 408 LINE",
"1376 366 LINE",
"1003 146 LINE",
"1030 118 LINE"
);
},
{
closed = 1;
nodes = (
"1199 219 LINE",
"1460 50 LINE",
"1300 8 LINE",
"1302 0 LINE",
"1703 0 LINE",
"1705 8 LINE",
"1583 50 LINE",
"1279 256 LINE"
);
},
{
closed = 1;
nodes = (
"65 390 LINE",
"73 392 LINE",
"107 550 LINE",
"425 558 LINE",
"426 50 LINE",
"276 8 LINE",
"278 0 LINE",
"671 0 LINE",
"673 8 LINE",
"523 50 LINE",
"522 558 LINE",
"962 551 LINE",
"962 50 LINE",
"822 9 LINE",
"824 0 LINE",
"1199 0 LINE",
"1201 9 LINE",
"1051 50 LINE",
"1051 700 LINE",
"796 606 LINE",
"473 600 LINE",
"19 610 LINE"
);
}
);
width = 1700;
},
{
anchors = (
{
name = bottom;
position = "{251, 0}";
},
{
name = center;
position = "{245, 300}";
},
{
name = top;
position = "{245, 600}";
}
);
layerId = m003;
paths = (
{
closed = 1;
nodes = (
"737 357 LINE",
"845 394 LINE",
"843 402 LINE",
"612 402 LINE",
"610 394 LINE",
"690 357 LINE",
"531 146 LINE",
"552 118 LINE"
);
},
{
closed = 1;
nodes = (
"607 218 LINE",
"734 35 LINE",
"673 8 LINE",
"675 0 LINE",
"895 0 LINE",
"897 8 LINE",
"811 41 LINE",
"657 259 LINE"
);
},
{
closed = 1;
nodes = (
"62 401 LINE",
"70 403 LINE",
"101 564 LINE",
"210 571 LINE",
"210 45 LINE",
"100 8 LINE",
"102 0 LINE",
"398 0 LINE",
"400 8 LINE",
"290 45 LINE",
"290 571 LINE",
"499 561 LINE",
"499 45 LINE",
"426 8 LINE",
"428 0 LINE",
"643 0 LINE",
"645 8 LINE",
"573 45 LINE",
"573 650 LINE",
"477 612 LINE",
"250 600 LINE",
"23 612 LINE"
);
}
);
width = 886;
},
{
anchors = (
{
name = bottom;
position = "{243, 0}";
},
{
name = center;
position = "{237, 300}";
},
{
name = top;
position = "{237, 600}";
}
);
layerId = "2C26E880-80A5-4D19-8A94-7D905A372841";
paths = (
{
closed = 1;
nodes = (
"693 346 LINE",
"813 383 LINE",
"811 391 LINE",
"584 391 LINE",
"582 383 LINE",
"662 346 LINE",
"525 143 LINE",
"536 118 LINE"
);
},
{
closed = 1;
nodes = (
"604 235 LINE",
"721 35 LINE",
"661 8 LINE",
"663 0 LINE",
"844 0 LINE",
"846 8 LINE",
"750 41 LINE",
"619 263 LINE"
);
},
{
closed = 1;
nodes = (
"74 421 LINE",
"82 423 LINE",
"102 575 LINE",
"223 578 LINE",
"223 45 LINE",
"113 8 LINE",
"115 0 LINE",
"366 0 LINE",
"368 8 LINE",
"258 45 LINE",
"258 578 LINE",
"512 575 LINE",
"512 47 LINE",
"402 8 LINE",
"404 0 LINE",
"650 0 LINE",
"652 8 LINE",
"542 47 LINE",
"542 661 LINE",
"443 608 LINE",
"241 600 LINE",
"35 612 LINE"
);
}
);
width = 865;
}
);
leftMetricsKey = T;
rightMetricsKey = k;
},
{
glyphname = T_l.liga;
lastChange = "2022-09-20 19:14:36 +0000";
layers = (
{
layerId = "0CCC0E2D-406A-4672-8E6C-854B1DF78A27";
paths = (
{
closed = 1;
nodes = (
"73 419 LINE",
"81 421 LINE",
"107 579 LINE",
"395 579 LINE",
"396 50 LINE",
"246 8 LINE",
"248 0 LINE",
"581 0 LINE",
"583 8 LINE",
"433 50 LINE",
"432 579 LINE",
"888 580 LINE",
"888 50 LINE",
"748 6 LINE",
"750 0 LINE",
"1071 0 LINE",
"1073 6 LINE",
"923 50 LINE",
"923 662 LINE",
"792 610 LINE",
"414 600 LINE",
"35 610 LINE"
);
}
);
width = 1082;
},
{
layerId = m002;
paths = (
{
closed = 1;
nodes = (
"65 390 LINE",
"73 392 LINE",
"107 550 LINE",
"425 558 LINE",
"426 50 LINE",
"276 8 LINE",
"278 0 LINE",
"671 0 LINE",
"673 8 LINE",
"523 50 LINE",
"522 558 LINE",
"962 551 LINE",
"962 50 LINE",
"822 9 LINE",
"824 0 LINE",
"1199 0 LINE",
"1201 9 LINE",
"1051 50 LINE",
"1051 700 LINE",
"796 606 LINE",
"473 600 LINE",
"19 610 LINE"
);
}
);
width = 1196;
},
{
layerId = m003;
paths = (
{
closed = 1;
nodes = (
"62 401 LINE",
"70 403 LINE",
"101 564 LINE",
"210 571 LINE",
"210 45 LINE",
"100 8 LINE",
"102 0 LINE",
"398 0 LINE",
"400 8 LINE",
"290 45 LINE",
"290 571 LINE",
"499 561 LINE",
"499 45 LINE",
"426 8 LINE",
"428 0 LINE",
"643 0 LINE",
"645 8 LINE",
"573 45 LINE",
"573 650 LINE",
"477 612 LINE",
"250 600 LINE",
"23 612 LINE"
);
}
);
width = 632;
},
{
layerId = "2C26E880-80A5-4D19-8A94-7D905A372841";
paths = (
{
closed = 1;
nodes = (
"74 421 LINE",
"82 423 LINE",
"102 575 LINE",
"223 578 LINE",
"223 45 LINE",
"113 8 LINE",
"115 0 LINE",
"366 0 LINE",
"368 8 LINE",
"258 45 LINE",
"258 578 LINE",
"512 575 LINE",
"512 47 LINE",
"402 8 LINE",
"404 0 LINE",
"650 0 LINE",
"652 8 LINE",
"542 47 LINE",
"542 661 LINE",
"443 608 LINE",
"241 600 LINE",
"35 612 LINE"
);
}
);
width = 653;
}
);
leftMetricsKey = T;
rightMetricsKey = l;
},
